<mxfile host="Electron" agent="Mozilla/5.0 (X11; Linux x86_64) AppleWebKit/537.36 (KHTML, like Gecko) draw.io/28.0.6 Chrome/138.0.7204.100 Electron/37.2.3 Safari/537.36" version="28.0.6">
  <diagram name="Страница — 1" id="j9KpCvjW8k-SGIsEowqn">
    <mxGraphModel dx="872" dy="531" grid="1" gridSize="10" guides="1" tooltips="1" connect="1" arrows="1" fold="1" page="1" pageScale="1" pageWidth="827" pageHeight="1169" math="0" shadow="0">
      <root>
        <mxCell id="0" />
        <mxCell id="1" parent="0" />
        <mxCell id="okpZpmTV6SpFpqVT5AK8-6" value="" style="rounded=0;whiteSpace=wrap;html=1;" parent="1" vertex="1">
          <mxGeometry x="250" y="185" width="210" height="140" as="geometry" />
        </mxCell>
        <mxCell id="okpZpmTV6SpFpqVT5AK8-4" value="" style="rounded=0;whiteSpace=wrap;html=1;" parent="1" vertex="1">
          <mxGeometry x="35" y="180" width="120" height="150" as="geometry" />
        </mxCell>
        <mxCell id="okpZpmTV6SpFpqVT5AK8-2" value="" style="shape=image;verticalLabelPosition=bottom;labelBackgroundColor=default;verticalAlign=top;aspect=fixed;imageAspect=0;image=data:image/png,iVBORw0KGgoAAAANSUhEUgAAAcwAAAHMCAYAAABY25iGAAA9mklEQVR4nOzdCZxcVZ3//c/v1q1es3TITkJ3yIxAjEIEAYdAFIQRBIFhcWEcFBVlUWf+IjM+jAOoIzMKjorKIiKLDqMiKMg2iuxBZAeVgI6ku0kgezpLp5equud53eoOZunu9FJV51bV9+3rUkmn6twvsahfnXvPEiIiY7aUOXUh2cmGm5LNP9qUCCZDtIdhzUAjUBMfDlcLVmP9jw7XAFa/9ffkH2PWA67X9T12GbZlm9/3Wv6R3v6j0+HaIXglgLUOtyYkXOuwNVnCtUC3778jkXJnS5njO4NIos1hTtjKi7MN9nQwJ36EaI6DuWB7GEzpK3rJFRdbB2vAvWLwMgStDpYa5B/nsM8yIOs7p0iSmeMdvjOIJMD9tpzZsyKifFGE3J4OWwC8BdweDlK+ExaTQQ7sFeAZwz0LqXwxDQiWzmLZcsD5zijimzn9dyBVqJ3ZeztyRzrcvgb7gnuTg3G+cyWRwWaw3zt43rDnjdS9kHrJdy6RUrMO9vOdQaSgOljdDLwZmD2RSdM3sHq6g+kG+UdgGjDRd84ytwFYZbDSwcr4cSJTVwLxsQz4HVi775AihWRLmeE7g8iozWGf8BVeWuCIFjpYCC5+3N13Lsn3TF8FW2yw2AgW78Hez+o+qZQz3cOUstLFhtqVrDjciBaSL5Ac5HCNvnPJrhnWCTwOLHYEiydSfz/Q4zuXyHDZOub6ziAypEkckGrjwYMcwdEQfQSY7TuTFMQyCL5vRPe08Pa4kOZ8BxIZijlO9Z1BZCereHB6N8HRDnc08LcOt5vvTFI8Fn93h18adk8d0T3990JFEsVW5sc/iPhXy/Q5Haw6k74i+RaXvw0m1cb6prA8A3ZPE9OumcjkVt+ZRNA9TPFtHcsmbGbj8Q5OcHAcUOc7kyRKt8EdBreNY8LtwEbfgaR62Vr+2ncGqTI5asd1suY4g/c5OOYvS8GJDMV6DO528ONGptxBfn6oSOnYKub7ziBVIKIr3cOWEx3Re8GOdbh635mkfBnWBe5OI/hJmuDnQMZ3Jql81s4evjNIhWligW3kqbmOaL8sqfmQib+VLQJm+s4mFek14CFI/wH4gxE8N5EDXtZyflJo5rjYdwapEMv43qwcmTOAjzqcVvUXbwxrBa5Nkb4OWO47j1QGe0VT2mSMxrP7Ph20XQrumEpfpFzKS/+i8nc30XL+RFpe9J1HypvmYcqotfHQnv29yU/n66ZIcm0y7PK415nfvlRkFKw1vxa1yPC0MKWmnbUnRLgzDXek5kpKOTFwDrs3wK5pZvJt/ZtviwyLOY2SlWF4jfVTMmTPibBzwWm1C6kAtirAfSdNeAX5zbVFhmavamMH2YUsnB6Ru0pTQaQSGdYVkDrLCG70nUWSTYN+ZFAR0aGO3HkOdwK69CqVzRl2m5H6GvCI7zCSTNamHqZso5mFqXYe/rsI91lwB/vOI1J69tsAu6yZw36mHVRkW7aJg3xnEI+MMJUhs7CT9kVZ3CEO3pbfUUtE1hs8FmKPgnsoTf1iFdDqZqvZ23cG8SRHR2M33ORwx/vOIpJ0ht1eB6cBnb6ziB+2QtNKqk4X9XXQdTbwOY14FRkJWwX8J9RfCXT7TiOlZUvRCmbVYg6NNW2sPROiCxy6eS0yWgavQnBJC5Ov0VzO6qF5mFVhatjGkg87+Ddwzb7TiFQOazf4Ugvzru+bgSWVTBtIV7QGa+fpf3C4ixxuru80IpXKsJcN+0Izh/1Au6RULq0lW8Faeegr4P7Zdw6R6mFfNexffKeQ4rBWZvjOIAVmuLkOd6mDk3xnEak2Brcadj7wsu8sUli2nD19Z5AxauQcOrhsQZr6YzJseXf/XMrQdy6RKpY1eCxNw10uv73YZ5/1HUjGzpwut5e1dmYtdOS+4XBv9Z1FRAZm2JNG6p+Axb6zyOhpabwyFcCEHLmrHe79vrOIyPAY9qM0qU8AG31nkZELdd2u/OzOwlQbD97k4FjfWURk+OIvuBmy41t4+wlaZq/8aJRsmWnl0QVG9nsOd4DvLCIyOoY95Qg/BujeZhmxpczynUGGJV0X0HWRw33WaUCPSNmz/MAguyyi/gtaZq88aGm8stD9Doi+C7zBdxIRKbg/QfBx4AHfQWRotlTzMBOsrsnouhTcR502cBapWJZfHciuddSfD3T4ziMDUw8zoYyekyH3LQczfWcRkdIweA1SnwJu8Z1FdmZLme07g2wjILt3BF+G6GTfWUTEl+AWI/WvwEu+k8hfWLv2w0yEkFRDhuhrEdFZvrOISDIEBFelCc4DtvjOImCvauEC73phf8j9t8Pt4zuLiCSLYS9C6u+Bp31nqXbWqoLpTQsfD9q46jyH+3dwNb7ziEhSWa9hn2/htcu0fZg/WkvWk+XMnp0le4PDHeE7i4iUB8PuS5E+Pf8RIiVnr2jQT8lFZE9xuKsdbjffWUSkvBi2zrBPAD/1naXaWJvmYZZUCndKBnez7xwiUt7S2KmhimZJ2QqNki2ZLOFeGTKPAFN9ZxGRsrc6TfpQ4I++g1QLW6a1ZEsiQ+ZE4AZggu8sIlIxNgIfAn7uO0g1sPXaIapoNvJU/QQOOKWDJ84EDvOdR0Qq1sNNHHhNQPBToMt3mEqlHmaRZHH7O3K3gmvxnUVEqoW1GamTNGezODQPswgc0RmGu8Lh6nxnEZHqYli3w84BrvOdpdJot5ICa6L+hA46dT9BRLxqovHEJhpu852jkphjvu8MFWMVq6dvgSdBk1tFxLtlDfBWYKXvIJXCVjLNd4aK0E3wxgh3l+5ZikhyWFuAvRt4wXeSSqCFCwqgb3k7d4uDJt9ZRES2ZfkNqe1k4D7fWcqdtWrhgjEx7EMR0TX5hTdERJIpExCc2T8XXEYptPj7h4xKBF9wRBf6ziEisgvpiOh6COYCF/kOU65sPXv6zlBWOsjUNZE+rYPOTwP7+c4jIjJCzzXReDmEN+WHX8iw2VLm+M5QRjJNRvZRh5vnO4mIyFgYtsRhh+T7ATIsob5gDJ/BhSqWIlIJ4s8ywy407DO+s5QLa2Om7wxlwhZGZO8FtHqPiFSK7oDwSGCx7yDlwNq0NN4w5N7p4DaHa/SdRESkkAzrNDgB+LXvLElnbZpWsivHRflNWl2t7yAiIsVhPQGcAtzhO0mSqWAOyd4bEf1QcyxFpApkAoIPAj/xHSSpQjQPc0ARnGF9CxKkfGcRESmBtCO6yRE0aqeTgYWR7wQJZHCuEX3L6duEiFQRBykjuhaCBuA7vvMkjbVqLdltuMOBCxzuSN9JRER8Muxe4BLgft9ZkkJryf7F4Q6nxYlFRLZh2BEqmn1C3wES5ALfAUREEugCw1Qwtfh6HwefdES6DCsisoO+W1T2SeDbvrP4FjrfCTxzfaNhL/edQ0QkuaLLHUFntY+ereqCGcB7IfqeRsOKiAwu/ow0omusr2hW7TzNMPCdwBv3ngj3w766KSIiQ3GQckQ/DLAt1boiULWu9PPOCO7UcnciIiOVX0bv2Gpce7YKC2ZqoSP3v1pIXURkdPoWbE+9q9p2Oama7b0cNIG70BGdrS26RETGrNsIrgS+WC2bUNvSqljpJ6wzMk9r82cRkcIybImjfv+4gPrOUmxhNXS2mrDTOuhVsRQRKbC4IxJ/xjbR8H3fWYrNHPN9Zyi6VlY/C+znO4eISIV6zmCB7xDFFrax2neGonIEX1CxFBEpqv36P2sv8h2kmCr6HmYAH4qIrvedQ0SkGgQEHwZu8J2jWKytQgumwx3hcPcAad9ZRESqRMawo4GK3PmpIrf3MuyNjmhx31QSEREpFYMOI1gIvOA7S6FVXA+zjmj6Fuy34Fp8ZxERqU7W1oA7GFjpO0kh2Wbm+M5QMBnshA46vw3M9p1FRKTKLWui8ZPAbb6DFIotrZhLsnYGRBU/D0hEpLwEH6mUbcEqYpSsEewPucUOV/mrMIiIlBHDuiG1EHjad5axslZ2951hTAKoz5FbonuWIiJJZW1pwnlAl+8kYxGGZb53ciMLTu3gCRVLEZHEci3xZ3UTB97oO8lYmONi3xnGpI0rHnJwmO8cIiIyOIOHDVvkO8dYlPV+mBHuROBnvnOIiMiw/B3wc98hRsuWMs13hlFJk94rQ+YJYILvLCIiMiwb06QPBP7oO8ho2Gv8le8MIxYRndpL53eAqb6ziIjIiKyuofFc4GbfQUaq7JbGM+yUiKjs/qJFROQvAoJTgZ/6zjESZbU0XorU7CzZ5x1uku8sIiIyeoatDwn3BZb5zjJcYYqU7wzDMoszgzauvFHFUkSk/MWf5VmyN7Zw9pH5O21loGymlbRz1T9HRF/xnUNERAonIPgX4Ku+cwxHWVySdQT7O3K/AVfjO4uIiBSS9RqpvymHpfMSvzReDTT0knvK4fbxnUVERArPsBdrSB0AbPGdZShh0rtsPeT+CxVLEZGKFXeI+j7rOct3lqEkensvg70d7kXfOUREpPhSWNw5esl3jsGERug7w6AcuS/H/xQRkcqXw74MqVN85xhMghcuCE525MpqUquIiIyN9RXMW3znGIi1MtN3hp04apuMLUscZTCEV0RECsZghaNhHtDhO8uOQket7ww7MbouVbEUEak+8Wd/XAOAM31n2VHiLsk67B1GdJ+jzHe2FhGRUTFwjuAI4AHfWbZlSxPVkaurgy3PA2/wnURERLz6EzTsC3T7DrJVCHW+M2yj62IVSxERiWtBQNdFwP/nO8hW1paQS7IR4QIj84QjwfNcRESkZAyyrm/D6Wd9Z4mFUQLq0xwOSbXx0PdULEVEZCuXXysg+70WFh2cn6bpma3nIK8BUtiEdbTe5HDHeg0iIiKJZNidAcFpwEavOZZ7Xnw9Q+5/HO79XkOIiEiiGfYj4ANeM/icVmKkFkZkH/EWQEREykZAeCiw2Nf5rc1TD3Min6GDS59wuLd6CSAiImXFsCdbWHGgt/M7T4ubd3DZgg4ufcbLyUVEpEwFb/E1ajb0tZZsDXXHeDmxiIiUrbh2pGn0UjBtFfN9nJctrH7YwaFeTi4iImXJ4BHDDvNybk8LF8yNcC+heZciIjIyWcP2ApaW+sSB65scWuLDXapiKSIioxCCu8xH5Spp0ZpIs3XQ/p/ASaU8r4iIVA6XryH2lSYO/Fx/NSsJc1xcqnPRzlUfioiuL9kJRUSkYgUEHwZuKNX5rK1E23s1s0/YxpKXHG5uSU6YQMH0qez29S/6jrGdLbfdw5Yf3+Y7hozAbld8haBpgu8Y29nw718n88IffceQKmPYyy3M2xvIluJ8YTP7lOI8tLPkjGoulrFgfCPjPpCsq9HZpe0qmGWm4cRjCGcmY5ehrTZ/9wcqmFJycU2JawtwTSnOF7azpOgnaWZKTQSfL/qJRESkqsS1ZQ5TbgB6i32usJkpxT4Hbaw9E1xz0U8kIiJVxjX31Ri+U+wzhW2sLeoJHHV1RnRBUU8iIiJVLLrA0XAt0F3Ms4SOumK2D3Sd7fC8h5iIiFSsvhrTdTbw9WKeJ4SuojVeD41d8LminUBERKTP5+rhu0BnsU4QpovUcIow1U32JnDTinQKERGRfm5aN3ZTDXUnAblinCGspakY7ZKh61BH5viiNC4iIrIDhzu+l66FwEPFaD/sZH0x2iX0tJq8iIhUrxBbFBarYNZhxWiXbtwhRWlYRERkEFncIbki1bWwpwiNNrMo1cqDbytC0yIiIoNy8LYWFqWKcR8zbGZRoduknYdPAiYVvGEREZGhTeqvQTcXuuGwnYcL3SYR7ryCNyoiIjIM/TWo8AUzKvBWYgGpQyF7cEEbFRERGTZ3cEB4KPBIIVsNA1KFbI+I3GcL2qCIiMgI9deiwhbMQm5Wbdjp4DT3UkREPHPHpwhPB24sVIsFK5hpgim95K7K100RERG/LCJ3VQ2pu4A1hWgwTBMUoh0yZM91+eVjRURE/HO4+rg2AV8oRHthhuyYG2lmak0ra84p5OVdERGRsYqwc+Yw5T8KscF02MzUMQdqZ+0JWmRdRESSx03rq1Fjn2YSthdgA+kId+aYGxERESmC/ho19oI51nmYBnsa7khdjBURkSSKaxTYnsDSsbQTWP+w1tEewEedRsaKiEhC9deoj461nXAiLaN+scE+62n99FhDiIiIFJPDfXoSc34IvDjaNsJNtI06QASXAuNH3YCIiEhpjO+gLa5Z7xltA2E0yhemSM+C3mNGe2IREZHScsekqJkFLB/Nq8MU6VGdNkfvRxwFXohWRESkSOKalSNzBvDvo3l9mCMz4hdN5K22gSc/ooUKRESkzHy0hbO/zCgKWNjC2SM+2waenOtwc0b8QhEREY/i2vUK350L/Hmkrw1f4bujOGG034hfJCIikgARuf1GVTAjciM+mSOcnx8jKyIiUmb6alj61pG+LnSj2mCka/4oXiQiIpIA2fk2ik5fCN0jfIGls7hFIz6TiIhIIrhFAS6d35lyBMLaEe6HmSE6EZg50ngiIiIJMdPBiSNdkD3MjLBb6ojeN9JkIiIiSdJfy0ZWMN0ICmYDU8dtYc27Nf9SRETKm727gSnjgM3DfUXYMIINpDtZ8x5woxklJCIikhgOV99X0/if4b4m7GTNSM6hy7EiIlIp3jeigjncJ05g/ISNbDp61LFERESS5ei4tgEbh/PkcMIwd+faTOcJ4GrHmk5ERCQZXG1fbeMHw3l2uJnO4TVL7vixRhMREUmS/to2vII5gd12+SQjmLOelccVIpyIiEhSODhuEtPnAK27em64kfXDaDB3JlBXqIAiIiIJUdfBqrjG/euunhg4cuzqAHdMaXKLiIiUmju6b32BoY9wV4sQ1MP0LlhQstwiIiKl9Za41gErh3pSuKtVCLoJjnZEVthsIiIiyeDA4loH3DDU84JuAoY6Il2OFRGRChfXugjHUEcYDXFJdg6LUm08dJRWjhURkUpmcFQLi1KQH7gzoHAOg29t2caDBzmGMe9ERESkjDncbnHNA34z2HPCNh4coongGEaxK7WIiEj5iWve4AUzcBgDHbXU1jqiM0obVkRExI+45tUQ1tYQMtARTqRxwBduoOtwYHbJE4uIiPgxu4dcXPvuGegPww10DfgqI1qowT4iIlJN4to3aMG0we9RLixqKhERkeQZtPYNuB9mC/PCNpYcVNRIIiIiyXNQXAOB7I5/ELYwb6dnv8JLCxxu4JubIiIiFSqufXENBJ7c8c/CV3hpgBdEuhwr/hjYuEaCCePzh/U/BuMaiTZuIlq3nmhzJ27T5r7Hzi27WhJZqpQ11BNMGEcwdTKpqVPy7yOXy73+3ok2bcZt7iS3dh109/qOKwnRXwN3LphugHuYTvcvpURswjhq3rg36TftQ93hC6k74jBS06diNvzli102S/blNjIv/R+ZF/+P7sW/pWfxE0Rr1hU1uyREKkXNm/chPX+f/PuoZn7f+ylsno2lUsNuJtu+LP/+6Xsf/YnMS3/OP+aWryhqfEme/hr4zR1/Hg78xdypYEpR2LgG6o96B/XHHUX9Ow8jbNlj7G2GIem9/ip/8J53MfH8c/M/jz8Au371IF2/fIDuXz9MtHbXe79KmUiH1B32NuqPPZLGvz+ZcPq0MTcZF9j4qP/bd2z389y69fn3z8Yrr6fn/sVjPo+Ug4Fr4EAFsxnYvQSJpNIFAen5e1N78P7UveMQat/2VtJz9sj3CEoh/vAb/9G/zx84R/a1lWT/3Ermj39myx2/ovue+3DdPSXJIqMX7tmcfw+l3/Jm0nvN7fty9FdzsNrakpw/tdskGk89Pn/k1q4n+3IrmT8tpffZ39P71HP0Pv08UcfGkmSR0nD5GmhxLWzf9ueh7Xzz5826HSRjEUyfyvizPpQ/whlj/+ZfEGaEu8/IH3HPJC6iUVcXnT++jc1X30jPY0/5Tig7sMYGdvvWJYw/4wO+o7wuNXlS/qg98C1w2kn5n7koovtXD7Lp6hvZctvdEOkTtBIY7s07FsxggOdpdR8Zlbg3OeUH32aP9qeZdPH5ySmWgwjq6xn/4fcz8zd3MfOxu/K9YPEvmDaFSZddxOxlzyaqWA7GgoD6dx3OtFuvY8p1l0NqoI9VKUM71cKd/p+dyMQZJYsjFcHq69jt2//B7s/ex7gPnorV1PiONGK1Bx/AjPt/xrS7/4eaBfN9x6lONWkmnH8Os//0GBPPO4dU00TfiUZs3OnvZffnH6D++Hf5jiJjFNfCFvZg2yOM/7GtNl5JdrdAkiVMMeW/r6Dx7471naQgGo4+It9b6PzRz1h37ueI1m/wHakq1J9wNLt97Qv5e5PlruaNezP9thvpfvQJ1v/LF+l55HHfkWQUNrBh2ia2vzcdvMIytj0cTPeWUMpK/dGH579NV0qx3MrMGPeBk5hy47fzc0KleNJvnsf0e29m+s9vqIhiua26Qw5k5sO/YLcrv5KfDyrlJa6FEX0bXG49gh1/YCqYsgvW2MDk73+D6Xf/iJp5e/mOUzQNx/0t0391M6nZM31HqUi1hx7E7k/fS/07B9/EvhJMOOvD+dsVNQe9xXcUGYG4Flrf4+tHsOMP1MOUodQsmM/uT/2qLAZjFEL8Yb777x6k8QN/5ztKRUnNmMqU67+Vn0NbDdJvmMvMxXcw8aLP9n/qStLFtdD1Pb5+BDv+ABVMGcT4T32UmY/dTXrvv/YdpaRSTROZetNVTL76Uo2ALIC6d72D3Z+7v+Iuwe5K/OVg0sXnM+7j/+A7igzP9O2royOAFFsPI9wbmOA7pSRL3VGLmPXiYiZffknJJosn0fiPn97X2/zIB/IjOmUEamsY95EPMGPxHcy458ekpk31ncib3S69mIkX/CPBpPIbBVxlJhjpvY00W48gyFfNvsORO8p3QkmWmgMXMO1nN1Rdr3IwNfP2Yuq138jP3dRAjuFJzZzG7o/fw5Rrv5EfCFPtgnGNTPryBez+wiOk932j7zgyhLgmOnJsPYIIx9YD3L6+A0py1L3rHcy4/1aCxgbfURKndv99aexf6UUGF+41lxmP3knNvprbuqNwxjSm33VT/n6uJJPDvdnxl/8F2/4GeLPvgJIMjR88hem/+CFBo7ZFHcz4sz7kO0Ki1Rz0lvxAl/ScZt9REiucNZOpt1ynS/wJZbDvgKNk57DCwL3Jd0Dxb8J5Z+fnIFpa/xEPpfaA/Rh/zod9x0ik8K/nMOO+W0hNmew7SuLVHXIgk6/4iu8YMiD3phZWWAsriI9g6y9eZdZsB+N8xxO/xv/jmex22cUj2o+ymu32jX+ndtHbfMdInImf+7SuToxAfledc8/wHUN2ENfE5cyetZzZxEew9Rc5XHWN8ZadNP79yez29S/5jlFW4l74lOsvz6+nK31q9n9zfk1hGZlJl15EOLfFdwzZQUS0Z0Tf/4Ktv3C4PX0HE3/qjzmCKdd9Uz3LUUjv2cLEf/uM7xiJEL5hT6bf8yOstvwW4PctqK/XpdkEimvjToN+IFIPs0rV/s1bmfrTa3XPcgwmfvYc0m+s3GUChyO1+3Sm//InpKZO8R2lbNW/63Aa3neC7xiynbg29i0eG2z9hQMtdFiF6o44jOm/voWgQVNHxiL+sjH9rv8hPb86i2bj6aey+zO/1ojYAphyzX/le+qSDHFt3GZpPKP/UMGsQnVvO4BA998KImyZnV9Crxp3OBl/xmlVvXpPIQXjxzHuH3QPOCni2ri1TubXkm1hXmi4nXaXFpGRqdl3PvXHH+07hpS5ukV/4zuC9Itr4xzmhXOYRxD/o40le7i+BWVFZIyaNABIxqjm4P2xieN9x5C+S7GpuEa2sYQg/geYBvyIFEjtAfvllxUUGa2gro4J537Edwx5XVwjjaB/F0zdYRYpoPFnagsnGZtxHz2tKu+HJ1NcI/Pbezn1MEUKrOG4o7R9k4xJeu4cag892HcMyduuh6k5mCKFZLW1NL7vRN8xpMyNO/29viNIXt9czLBvHiZzfceRCpPLkV25mtyrK8i9upLs0jZyHRuhuwfX3Y3r7skv/R8Xlvym1HU1hDNnEL5hbn7/xLBldn7lk3I28YJ/ZPP1P+r7d5VRiTq3kP2/pWTz76MVROs6Xn//5I+ubkgFWGND/n0UNDaQmjGt74jfR3vMImgq357+uA+eysbLryHzuxd9R6l2+RoZ0jfPpLnv0qzI6LmeHrbc8Ss2/+Bmuu65D3p6R99YOqT+mHcy7rSTqD/+XWVZPOMP6/Qb96L36d/5jlJWXBTR/eCjdP7wp3TedOvYvnAY1B5yIE1fvoD6tx9SyJglYXW1jD/nDNad/S++o1Q1h+0RP4YOi99Tk1UuZbTib/8dF32Vzptvx23YVJhGM1m6bv/f/BHs1sTEz/+//KhBqymvNUrDPZtVMIcp09rOpiuvzxfJ3LLXCtOog57FT7DynScz4dNn5tf8TU1qKkzbJVJ/xGG+I1Q9g/x6jwHU1zmc1kWTUcn88c+sPOpUNn/vvwtXLHcQretg/WcuYvkbD6V3yR+Lco5iiQumDC23eg1r/+nzLN/7EDZ+9TuFK5bbnSRi49evZvlfH8yGb1yNy+UKf44iSe/1V6RmzfAdo6rFNdJRXxekyWilZBmx7IpVrDnrfJbPP4zMC6UpYtk/t7Hmg+fmL/2Wi3BPbdc0GNfbS8eXvsayvzqITd+8BnozRT9n/svX/7uQlX/7XnKrVhf9fIVSd8ShviNUvbhWBoC2RJcR2XL3r3n1TYvYfPWNkC3tN/Xep5/ntUPfQ7Z9WUnPO1phi1acHEzHl79Ox4VfxW3qLPm5u+97hFf3P5Lu3zxR8nOPhpbKS4TJQY6sepgyLC6XY/2/XsKqY08jWrveW47eJ5/jtcOOJ7vsVW8Zhis1Y5rvCIm0+Yc3s+E/vuU1Q275Cla+8xS6H/mt1xzDUbPgTb4jVL24VgZg6mHKLuVWrWblkaew4ZJvJmJAda59ed9ltbXrfEcZkgrm9lw2y9qz/5k1//BJyBT/Euwu83R1s+o9HyS3YpXvKENKv2mf/PQZ8ckmB65/9I/IYFx3Dyv+9r10P/Co7yjbySz5E6ve8w+JHsCRmqrvo1s551hzxj+y6aobfEfZTtSxkU1XJyvTjoK6OsK5uh/uU1wrA0ekmywyuChizdnnk3nuBd9JBtTzmydZddwHyXm8RDwUq6khnPcG3zG86374MVYccmx+bmUSbfzOdYkfgV17kLYs9imulYHlFy0QGdi68y6i8/of+44xpK577mPNhz/lO8agag/Yz3cErzpvuYMVi06g57GnfEcZVLR6LSvf9T5cAi4TD6Zm/319R6hqca0MgEbfQSSZun/zRH5ZrnLQdeev8nNCk6ia59Dl1q1n7bmf8x1jWHKvvErnT3/hO8agwtm7+45Q7RrjglleS6dISbjeXtZ+7DMQJWCEz3A4Elvcq/mDbt1nLiRaWT7zHTd+47u+IwwqNWum7wjVriYumLW+U0jydFzyzZItSFAom6//MdGWLb5j7CS1e3X2MLt++QCdN/zEd4wR6X38GXqees53jAFV85WKhKgNHE49TNlO5s+tbPiPb/qOMWKuc0viRvLGUtOqcCB6FLH2rPN9pxiVrjt+6TvCgDTi2q+4VgZg6mHKdjZ+4+qSLFNWDN33PuQ7wk6CKbv5jlByvX94kezSdt8xRqUrge+hWNDYmN+9RHyx2sDUw5Rt5Do2sPm6H/mOMWo9Tz/vO8JOUlVYMHsefdJ3hFHrfeb3+S3Gkqgav3wlhamHKTva/N0f5C9tlqvMc3/wHWEnwW6T8vsDVZPu35RvwXT9m1YnUTB5ku8IVcxqA3DltzOvFEXvCy/lF8QuZ1HHRnJr1vqOsR0Lgqr6oIs2bEzsfcDhSuqi7FV5PzwxXH3gMO2FKXkbLvkmbuNm3zHGLPda8tYFTU2tng+6zTf82Ovi/IWQ1E2/U9Om+o5QteJaqXuYkud6e9nyi//1HaMgoo3F2ch6LGzCeN8RSqbz1jt9Rxiz3CvJ3AknGD/Od4SqpXuY8rruxY9XRO+S/ntQSRM0VMedj2hzJz2LH/cdY8xyK5N3lSJmVfI+Sqa+e5jqYQrd9y/2HaFgos7Sb0i8K1Zf5ztCSeT3lizxpuLFkEvo6kQqmD7le5giccF8xHeEgkliD7NqCuYDlfHFK7dqje8IA6qW91FSBWA9vkOIXy6bpffJZC4HNhquK3lv6WrpGSR5R5KRcJs68/9dJI0Kpk/WE4Dr9R1D/Mq88FJ+k+hK4bq7fUfYidVW/lAB5xy9z/7ed4yCiTZs9B1hJ9XwPkou1xs4TAWzyvUkdAj9aLme5L2lLR36jlB02ZfbcBuSN0J5tKKOBBbMmrTvCFXL9fcwk3fDR0qqku5fkh/0k8C3dBWsAVpp76Mk3sdUD9Mn1xUYlsBPFymlSrnv9LoE9jCDusq/99Tz26d9RyioRF6SrYIvXkkV10rdw6x2UVS2u0oMxmUTuNNKUPkD0jN/etl3hIJyW7p8R9hZKuU7QRXru4dZOaM9ZMSiTZshk7zRgGOSxH+fKiiYubZlviMUlEvgZuTVtoh/kjiNkpV8wawwLokF0yr7k845R/bVFb5jFJTrSuBo6yr44pVcrjcw9TCrWiUWTHLJW2nGgsoumNHadWW76fhgkjjauhquVCSV9fUwSeC7QkrFVWDBTOTmvxX+QZdbXlm9S/JXKhL4BaDCr1QkXK8KZpWLOhM4sGGsEtjDrHS51cmbgjFmurQv28sXzMrrYsiwJXFVnDHLJbCHWeGi9Rt8Ryg416u+hGxnc+Bwr/hOIf5U4j1Ml0tgz6DCZZe/5jtCwSXyHqZ4E9fKAAIVzCqWxJ09xixyvhNUnSih22GNiS7ty3aCV4IA1vqOIR4lcWCDlJ0oiZP8xyiRg8fEm7hWBg5XgXfrZbgSOWdxrJx6mKWWyFVxxkoFU7YR18ogJFQPs5olcM+/MVPBLLmKLJh6H8k24loZOEw9zCqmHqYUQhJXxRkzvY1kG3GtDLLqYVY3FRcpgERO8h8r/bch24hrZQB0a4uvKqb7NFIIGlEqFSyukUZXd2B04UCXZauVvkVLATgVTKlgcY2MPykDl79Qr8ULqpWGzktBVOK9cJHXxTXSEeQ7m1BZO7/K8KmHKYWg95FUsLhGWtzDtHwPM2j1HUhERCSZ4hoZEMb/cLDUdxzxRB0DEZEhba2RgevrbqqHKSIiMoC4RhoQ2jbVU0RERLa3XQ9zDvssM9C4cBERkW3EtTGukXPYhzD+R34RA+wVcHN8hxMREUkOe6WNJfl5U2EbS7b+9Jl8Z1NERES2embrL4KtvzDcs97iiIiIJFBcGw0XPxLa6/MKUkt1G7MaaV6JiMjgUq8Pig0hlf+FppaIiIhsb9vamJ9WQv7abLA0px6miIjI6+LauPXXYdB/G3MWy5a3MX2zg3E+w4mIiCSBwea4Nm79fTiLZVt/7cB+D+5t3tKJiIgkhv2+jRmvD/QI25jx+h85eB5QwRQRkarXXxNfF247RtKw551GTYqIiORr4ra/DwNsm9+m7nVoQ+Gqou9HIiIDMlL3bvv7EGq2/f1LkNkATCx5MhERkeTYEJF9adsfhBE9Oz5plQqmiIhUuVW2ww8C6xs6u+2x0lM4ERGRRIhr4Y71MdyxgkYqmCIiUuUcrNxxiEe44xAfG+BJIiIi1SSuhcEOPwtTO/xgPFNXdrC6hLFERESSZSJTVzYxdbufhXswb7sfdLBal2RFRKSqbWD1yg07dB7DNl7Y8XnLShlKfNMFeBGRAexUC8Mdf+DgdyWLIyIikkAO26kWBo6AbQ8I2g1e9RNRRETEr7gGGq7d4rK5zREYETseYIt9BxYREfEjroE7r1IQDPRDAxVMERGpSnENHGBRn50XLuh7crAYch5iioiI+NVXA3cW5juZO9iDvZ9tY0mnwzWWIpyIiEgSGNYZ18CB/izcg70H+nkWeBw4vOjpxC/NKhER2dbjbSzJDvQHYRtLBnvRYhVMERGpMoOO4dlpHuZWTvcxRUSkyrhB7l/GwprtN5B+XR3p+zeweRkwu5jhREREEmJZLan7B/vDsIfeAf+gh94eI7jOEf1bMdOJiIgkQ/D9HrI9g/7pQPMw/3JEd5c2rIiIiB9GdM9Ai/lsPcK+lX0G1sLbH2/joXUOt1tJU4uIiJSQYetaWPT4UM8JW3j7UH+eA34JvL/g6SQhNK9ERCSudW08NORI17CNh4ZswbB7HE4FU0REKlZc63b1nDC/cuwQ6oju6QLn2MUTRUREypCBi2vdrp4X1g1xD7PfSuAZYP+CpRMREUmOZ7r6at2Qwq5htRV3VZ0KpoiIVKBdX46lb6WfnRdf31ETU69Zz8rP5K/QioiIVI7uJqZdM5wnhi3sM5zntXaw8g4Hp4w5moiISEIY3NHBytbhPDds44XhNnqbCmYF0qwSEalicW0b7nMH3EB6IOOYcPtGNvWAqx19NBERkaSwnnGMv324zw7HMWG4z91ocLeDE0edTUREJCHimraJTRuH+/xwE5uG3biDH6OCKSIiFaC/pg1bOJJbWI1MuWMLa7ocrn7k0URERJLBsK4GptwxkteEjUwZyfM3g7sTDf4REZGy5u7cwurNI3lFuIXVIzqFEfzEEalgiohI2Ypr2UhfE6ZIjegFKeznPUSvATNHejJJIs0rEZGq85rBz0f6ojC767Vkt5OFDOS3OHnfSE8mIiKSAA9FRJmRvii0UfQwHOk/9NVNERGRcpP+gyM94leFjoZRnCzzh1G8SERExDsj+4f89dIRCo3h7Vey/cnsuZFdyBUREUmGgNRzo3ldGIxw0E9sAge83MHjrQ43ZzQnFRER8cGw1j34+MujeW24Bx8fzetcB7/9PvDF0bxYRETEk2vbuHJU0wPCNq4c1RlT1Hw/R+9FjlF0UUVERErMIJcifd1oXx+mRjFSqN9ysLvBHTfaBiQBNA1TRKqG3Z0js3y0rw6jMUwPaaLl/PW0vh0YP+pGREREim9TXLPG0kDYzKKxvP7FDtoud7h/HUsjIiIixWTY5R20vTiWNsK2/KI9Y3KtwQUuf3lYREQkWazv5tO1Y20nKECWpQ67twDtiIiIFFxco1y+VvVVztEewVgbyDeCXeP7L0RERGQgcY0KMMZ6hEEBrqQ2M/m2VtasAjetIP92IiIiBWGr4hpViJbCZiYXop3eAPedCL5QiMZEREQKIa5N7azuLURbYfsIN5AeTJrwil5yn3O4+oI0KCIiMgaGdaVJXVGo9ka1luxAcrg1AamzcmSvRyNmRUTELxfXpCysKVSDYSFXtjO40bC/c7gTC9ZoJXEOl0nWPqIuqrx9Z1yUvL9nCvn3nMkk7t/PucpbMsrlcon7eyY78i2pqpVht0Xkbixom61ML2R7GKlDI7IPF7RRERGREQgIDwMeKWSb1sbuhWwvLyL3GLiDC96wiIjILtlvgbcVutUwIlfoNgmwyyLczQVvWEREZBfiGlSMdq2NGQVvtJnDUq08uBqYVPDGRUREBrd+Dm+fmh+LWmBhM4cVus1YzuAxB8cUo3EREZGBxLWnnYcKf+m0bx7mmBdfH7hh7NEMTgVTRERKJq49YbHari1Sw1lccSqxiIjIIOLaU6zJN2GO4pTMkHBxls7bHe74opxARERkG4bdXkPd4qK1X4xBP1vV4hq74GUtyi4iIsVlq+phLtBZrDOEtRR1hY44+H8C/1XMk4iISNX7z64iFsuYLS3wSj87q68ztvzZUYQVEkREpOoZvOpo+Cugu5jnCaHom4t0Q3AJRN8u9olERKQaBZcY3UUtlvStJVu8e5hbtTC5ppU1fwLXXPSTiYhIFbH2OUx5A1CQPS+HErYUZgPpXek1+JKDa0pxMhERqQ5xbWljTdGLJcXYrWQwLcwL21jyksPNLckJRUSkohn2cgvz9s5PvyyBsIV5pThPLGvYFxzuhlKdUEREKldcU9p5sWSbhIYbGFeqc9HMST9o5Zb54P65ZCcVEZEKZF+dwFt/UNIzlmLQz86iWxyc5OHEIiJS5gxuBU4u+XlbKf0iPIbNjXAv9U1rERERGbZsgO1NfhW50gqM0v8v/hc1eKzU/7IiIlLe+mtHyYslPnt4aRru6mXLob7OLyIi5SeuHWkavZzbVjHfy4l72bIgQ+czXk4uIiJlKngL8KyPM9tSL4N+oInz2MBlTzjcW70EEBGRsmLYky2sONDb+V1xdysZUjuzFkZkH/EWQEREykZAeChQtP0ud8XaPG8i4sj9j8O932sIERFJNMN+BHzAZ4bQiHyen5DUJzJkxzs41msQERFJJIM7A+wT3nP4mIe5oxbenmrjod863AG+s4iISHIY9lQLiw4Gct6zOE71nSGvlUcXGJknnBYzEBGRvp5l1pE+0Neo2B2FrTzqO8NWzxp2mcN9zncQERHxL64JRjYRxZK+QT+l2d5rOCLq62DL88AbfGcRERGv/gQN+wLdvoNsFUbU+86wrW4IPm5E9zn61tATEZHqYuAcwcehOzHFkr6l8RKVJ/YA2LXgPuY7iIiI+GDXGu4B3yl2ZK0JuiS7laO+ydjygoOZvrOIiEjpGLzmaHgj0OE7y45Cl6xLslt1QOpTkPup7yAiIlJKqU8ZPYkrlvjbQHp4HPwUopJvEioiIj4Et0DqFN8pBmNLmeM7w6CMzN6OzIu+c4iISPGlsH2Al3znGEyYost3hqG85AiuiojO8h1ERESKJyC4yiW4WNI3DzO5l2TJbxYaNPSSe8rh9vGdRURECs+wF2tIHQBs8Z1lKPaq591KhqMX9nfkfgOuxncWEREpJOs1Un8DPO07ya6Evb4TDM/Thn3e4b7qO4iIiBRO/NkOUeKLJUkfJbutFs4K2rjyXoc73HcWEREZO8Pua+Hso/Iro5YBc1zsO8OwLeea2Vmyzzncbr6ziIjI6Bm2LiTcD1jmO8tw2TJm+c4wIjlyp0REN/vOISIioxcQnEp+rn35SOTSeLsSwikZ3BXAVN9ZRERkRFansXPKrVjGbEUZFsxYlnCvDJkngAm+s4iIyLBsTPdtCP1H30FGI8zG/bXyFP+Ffwj4me8gIiIyLB/KkCnLYknf0njTfGcYq4eAw3yHEBGRIT1s2CLfIcYitDLfp3kib/1eB0+oYIqIJFgTB17TxIG+Y4xJWU0rGchGnqpfx+NLwLX4ziIiIgOxtjThPEj24uW7UnbTSgaSxe0PucUOV+c7i4iI/IVh3ZBaWA5L3+1KmMX5zlAIT7v8MGX3fd9BRETkL/o+m8tj6btdCR053xkK5bomGtd10PltYLbvMCIiVW5ZE42fBG7zHaRQzDHfd4aCWsXq6Vuw3+qepoiIL9bWgDsYWOk7SSHZyvKfVrKTboI3OqLFDpp8ZxERqSYGHUawEHjBd5ZCC7sJfGcohhfATgZ3T34PahERKYVM/NnrcBVXLOm7h1kRg34Gcl9AcGZEdL3vICIi1SD+zI0/e33nKJayX7hgF26AYC5EF/oOIiJS2YIvRvnP3MplS8tkA+mxiZ4F9vOdQkSkQj1nsMB3iGILrTw2uh6TiTRe3kHntb5ziIhUoiYaL2+iwXeMoqu4aSUD6aC3bgMbn3a4eb6ziIhUEsOWOOr3z09QqHC2tAKWxhsOI9sEdqEjOhvQEnoiImPTDcEVBl/K90uqgLWyu+8MJWWw0JH7X4dr9J1FRKQcGdZppN4FLPadpZSsrcoKZp/cOyO4E1yt7yQiIuXFegI4Fvi17ySlZm1M953Bl+Mi3K1a2EBEZNgyAXYScIfvID5U5DI/w3RHQPBBo3JWnxcRKZb4szL+zAS7I/+7KjxCKnvhgl35iSNoNKJrXZX/RYiIDMbAOYIzHfzEdxafwsqfhblL10HQCNG3fAcREUmm4FOW/6ysbtZaFSv9DIf7lcMd6TuFiEiSGHavYUf5zpEEoa5D9nFwCaCCKSKyvUsqeJOOEUn9E5qO2K/VsIcMmwXM9R1GRMSn/p7lx4D7fWdJCmvTJdmdOPgkRJdrIJCIVBvLfwQGnwa+7TtL0oTqaA/o246g04i+56p76o2IVBGDyBF8DA3wGZAK5uCuM4JOR/RDLW4gIlUgY31z06t66shQQnWfhvSTAOuK4GYtoycilSu/3N2p4H7hO0mSVfPSeCPxTge3acF2Eak0fQupc0I1rg07UiqYw5ZaGJG9V1uDiUgF6Q4Ij6y2XUdGK4SU7wzlYrERXOmI/p/vICIihRB/poFTsRwma2Om7wxlw+GawD3qcPN8ZxERGQvDljjskGrZ/LkQbCmzfWcoM2FdE3ZaB52fBvbznUZEZISea6LxcghvArp9hykn5pjvO0PZamXtFyC60HcOEZHhCb4IXOQ7RbmypVrpZ0wC+FBEdI3maopIgmUCgjOBG3wHKWdaGq8AHO4IcLc4aPKdRURkW5a/R2knA/f5zlLurFXTSgrCsDdGuLvAtfjOIiLSx9oC7N3AC76TVAL1MAsoom4GbHkCNJJKRLxb1gBvBVb6DlIpwjoi3xkqyJYVNTR+soPOn/tOIiLVrYnGTzbRoGJZQBolWwStrD3DcFc4nFYFEpGSMqzbYedox5HC0yjZIgmwAyKiW3RPU0RKx9qM1EnA076TVCJrZ3ffGSpWgNU3suDUDTzxMQeH+c4jIpXJ4OGJHPi9gOBmoMt3nkpljot9Z6gKrVxxYv8cqAm+s4hIxdgIfAjQuIkSsKVM852haqRJ75Uh8wgw1XcWESl7q9OkDwX+6DtItbBlzPKdoaoYNaf20qkdzUVkTNLYqSH81HeOamIrtHBByfVgpzjcdx1uku8sIlJeDFtv2MdRsSw5LVzgSYrU7CzZGx3ucN9ZRKQ8GHZ/SHg6sMx3lmqkS7IezeLMoJ2rPhvhvgSuxnceEUkq6w2wf2vmrMvyi4qJFxolmwBtfHd/yP23w+3jO4uIJIthL0Lq7zW30j9r1TzMRKiBhh5y/wXuE76ziEhS2NW1pD4DbPGdRPKXZHUPM0ki3N457MsQnew7i4j4EtxipP4VeMl3EvkLW8oc3xlkAEbPyZD7tkPfaESqhcEKSH0SuMV3FtmZtTLTdwYZhKO2yei6FNxHXf6/JRGpRBb/545d66g/n/yGz5JE6mGWhe53QPRd4A2+k4hIwf0Jgo8DD/gOIkPTbiVlo64Oui423HkOQt9pRGRsDLIO+xrUXxx/K/adR3ZNPcyyk1lgZL/ncAf4TiIio2PYU47wY8CzvrPI8NlSLVxQduZwSKqNh25zuGN9ZxGRkTHszhYWnQDkfGeRkTHHqb4zyChson3COlqvdrj3+84iIsNj2I/SpD7Rvy2XlBlbroULyloWFjpy33C4t/rOIiIDM+xJI/VPwGLfWWT0rIPLfGeQMZrIeXRw2YItfOeYDFve7eBtaGCQiE9Zg8fSNNzlsLub+KzuVVYAW8V83xmkwLpYM9fhLnVwku8sItXG4FbDzgde9p1FCsvatB9mxYrgK+D+2XcOkephXzXsX3ynkOKwVs3DrFgTabaNtJ/ucBc63FzfeUQqlWEvG/bFZs66Mb9Il1Qkbe9VFR4I21lyRgSfB9fsO41I5bD2AP69mXnX9Y3Bk0pmjnf4ziAls7qmjbVnQnSBQ8OjRUbL4FUILmlh8jVAr+88UhrmNOin6rTSWQddZwOfAzfNdx6R8mGrgP+E+iu1nF310dJ4VayersZuuMnhjvedRSTpDLu9Dk4DOn1nET9sJS2+M4hHRpjKkjk0ouewLO6Q/jmck3znEkmA9QaPhdij4B5OU/+IlrOrbrZC00pkG9NZlGrn4ZMi3HngDvadR6T07LcB9rVmDrtVBVK2pbVkZVDtLD40IvdZ+i7ZagNrqWQO7PaA1GXAI77DSDJZmwZLyi4YnB6Ru8rh6n1nESk0w7oCUmcZwY2+s0iy2SvM9p1BykCKaEqG7LkRdo5G1kplsFUB7oo04XeANb7TSPLZq+phygjMZFJNO2tPiHBnGu5Ip0u1UkYMnMPuDbBrmpl8m+ZQykhoHqaMWhtr9gQ+6nCfBsb7ziMyhE2GXQ5cCyz1HUbKk7VqlKyMURMt+3TQdim4YxykfOcR2cryo1zt7iZazp9Iy4u+80h50yhZKZhl/GZWjt6PgH3E4bQihnhjcV8A9/0UNd8HlvvOI5XBNqBFXqSwJrC/beCpuY5ovw6enQ/Z+eAW5W+BihTea2APQfgH4A9G8NxEDnhZu4ZIoWlpPCmJFLm0I3OiI3of2Ls1RUXGwrAucHcZwY/TBD8HMr4zSeXTKFkpuZBJ4zpZ8x7gfcDR4Gp9Z5JyYD3APcCPG5nyC2Cz70RSXWyVRsmKRyl6Jmym8wRH7ngHxwF1vjNJonQb3GGkbh9H423ARt+BpHrZWv7adwaRvBT1czpYdSa4Y4AFmuNZnazv3uOzfaNbp10zkcmtvjOJoA2kJalW8cL0boKjI9wxBkc53G6+M0nxGLbOwa8C7O46onuAlb4ziezIVqJVziTZpvH2VBsPHgTBMY7oDNB6jhVimRFcB9HdLbz9ce0MIkmneZhSVrp4tXYlLx9uRAuB+DjI4Rp955JdM6wTiAvjYkeweCL19wM9vnOJDJetY67vDCKjNonm8BVeWuCIFrp8AXXxo4Z+J4DBq2CLDRYbweI92PtZIOs7l8ho2Xre5DuDSEF1sLoZeDMwu4kJMzawYZqD6QbT40f6jgm+c5a5jcBKg5Wu/3EiE1eBW5Ff9An7XX5LVZEKYo4DfGcQKbl2VuztyB0Fbt++4ure5GCc71xJZPn5jvZ74HdgzxupX0HqJd+5RErN2mj2nUHEu2babDmzZ0VEezrcnhDNcfAWh73FcLMrfVF5g5zDlhnuGYNnIGg1bGlAsHQWy5ZrmTmRfA9T/x2IDO3wsI0le4DNIV9M48doDjDXYc0Gkx2uwXfKoRi2xcFaw7UDL8cFEVxrfnVMXGsL817R/UWRoWkepkgBtNJalyYzBZicIzsFbLKDKY5otmHNQCNQA9Q6XA1YrfU/gqt3WMM2v6/pa9V6wfU4rNdwW+hbPzX/+/jR8o/5UabxY6fDtRvBMoM14NamCNcAazOk48du339HIuXu/w8AAP//nARDohsk5CIAAAAASUVORK5CYII=;" parent="1" vertex="1">
          <mxGeometry x="65" y="220" width="60" height="60" as="geometry" />
        </mxCell>
        <mxCell id="okpZpmTV6SpFpqVT5AK8-3" value="&lt;font&gt;API&lt;/font&gt;" style="text;html=1;align=center;verticalAlign=middle;whiteSpace=wrap;rounded=0;fontSize=24;" parent="1" vertex="1">
          <mxGeometry x="50" y="280" width="90" height="40" as="geometry" />
        </mxCell>
        <mxCell id="okpZpmTV6SpFpqVT5AK8-5" value="&lt;font style=&quot;font-size: 15px;&quot;&gt;ИСТОЧНИК&lt;/font&gt;&lt;div&gt;&lt;font style=&quot;font-size: 15px;&quot;&gt;ДАННЫХ&lt;/font&gt;&lt;/div&gt;" style="text;html=1;align=center;verticalAlign=middle;whiteSpace=wrap;rounded=0;" parent="1" vertex="1">
          <mxGeometry x="35" y="330" width="120" height="60" as="geometry" />
        </mxCell>
        <mxCell id="okpZpmTV6SpFpqVT5AK8-7" value="" style="shape=image;verticalLabelPosition=bottom;labelBackgroundColor=default;verticalAlign=top;aspect=fixed;imageAspect=0;image=data:image/png,iVBORw0KGgoAAAANSUhEUgAAArwAAAK8CAYAAAANumxDAAAACXBIWXMAACxLAAAsSwGlPZapAAAAAXNSR0IArs4c6QAAAARnQU1BAACxjwv8YQUAAGDvSURBVHgB7d17fF1neej5591bN1u+SLETQxLibUMbAnZsBUhsKIltwClMB+wEQg/9TGJn5vQz53Noc5lpy61jOZTQnk7BaZmh7R9Yzuk0DE1i0zkktDSxwpmh5nJipSeHO3g71+Yq+SJZ0t57vbPeJW1HliXt27q8612/LwjL9s6FxLZ+evys9xUBAAAAAAAAAAAAAAAAAAAAAAAAACAkqpEXP/OOwkbJy0bzvhYpLvTatgW+//VHikUBAAAAYlBX8D63ee1tnuh+/90eidBcEa2UjPjfMXLOt4n/daXO+TbP847P/HpeybCn5cR8f25VkZF8furPO94lI2sGiyMCAAAAe2i/4Iae6JGx9h1+7RWCb1PqmKjSY7K5r1jvn6Zm8D77zrV7tA5iNzNmxrE69/2zoR3EtPZGZr7G8+NcTcf5zKBmog0AANCgIz/z/2f8NvGk3++v2UNXP9fUXtn81r31/KkWDN4sxm7ERrTIOZFcjejZAT0znqvrIYQzAADIhB/8REmp/BW/a3fVeOVR2bzuqhqvmT94j20p9LRNqKP+CwoCq+jXYnnqS6WK1WCurnKcfY0/aS51S5GVDQAAkAr1x+4UT++Vd63vX+gl8wbvU5sLO3KiDgpcEkyY5wrlmVNlM1FmrxkAAMTu6DGRybF+P2L3NPBHDUtXaa309c3bLW3zfYcfPhsbO8MBKdCjph48LJivaK2n/hWrqX/RueB9kYr/RfuEyDOb1wTT5HMC2fOOz5wiM0EGAAChaC52jR4Zze/wvxyY7wVtAixgeqXFvE0Fsh/H3vR3BJnctnAcm68TxgAAYEHNx66h/PAoLPSChSa8I0x40Yi54nj62+cMY/PAnifqeF68Y2WR49V1Ch7OAwAgQ1qL3brMG7ylRTLgB8oXBQhZNYx18L72J8bqnHWK86JY6yfMGkVFyxNmUnzp94tDAgAA0i+G2DUWnOE+vbmwz58R3yaAfcxqxBBBDABASoUZuzVOalhwh7fcKf3tk3Kd6KnrhAGLmIfvtgRTYqV2eDL97F3b1ITY/1RuyNzQp0U9UV2ZyJWlSAwDAGCBmCa7VTW3dM15vO2T6jDRC1dU1yWqMcxkGACAGIUfu1oq3q3ya1cOzPeCuh5LI3qRGf5kWGkpmofptHiD5kG6cpcMcboEAAAhiGayG07wGkQvMi7YGZ45FSaEAQBoQHRrDOEFb9VTmwoDOaVuEQDG2RCuToTfcKQ4KAAA4DVPPikyKrvEk/0SvvCD1yB6gRqqqxFaP+F/bZBpMAAgs6KNXSOa4DWIXqBh50yDOTUCAOC86GPXiC54DaIXaBkRDABwUzyxa0QbvAbRC4RuKoK1fkwrGap0yiDrEACAVIkvdg1/bqR2yqa3fn2+F7QcvMbTmwr9SqlYDg4GssicHZwLbpbTg+aECB6MAwBYy8TuiVKf5Nofl3hoKett8u71g/O9IJTgNYheIHaD1VUIpsAAACtUY1e1PepPXXskHvEFr0H0AgkyJ0OIGsopb1Aq8tjrjxSLAgBAXJKJXSPe4DWIXsAO1TWIXE4fqkzKEzwMBwCITHKxa8QfvAbRC9gnCGClBpkAAwBClWzsGskEr0H0AnarBnBFe19nBxgA0BTtfzQ5MrRGdNvjCcVu8HeRWPAaRC+QIsochaYeE+0d4hQIAEBN1diV9kf9rxUkOVrycpVcvW7e1b1Ig9cgeoFUGvF/cRg0+7+sPwAAzmNP7AZ/NyKltbK5rzjfCyIPXoPoBVKO6S8AoMqu2DXsCF6D6AWcMeL/XD5kHn4bb5evs/sLABliX+wa9gSv8czmwu3+X/KLAsAlg/mcHmD1AQAcZ2fsGnYFr/HUpsKunFJx3KsMIG5KhnJaDygtXyd+AcAh9sauYV/wGkQvkAHELwC4we7YNbRsXpdb6AWJBK9B9AIZQvwCQDrZH7uGvcFrEL1ABvnxm1d6Hzu/AGC5dMSuYXfwGs+8o7BR2tRh/92kbucAkJzggTdOewAAy5jYHXqiV8bbHhe7Y9ewP3gNoheAUmrA87wDnPMLAAkLYnfIj91gsrtR7JeO4DWIXgCG/8tsMafUYM7z9rLyAAAxS1/sGsN+8F6w0AusCV6D6AUwS7Dy8Pr/r3hAAADRSmfs+vQx2bx+7UKvsCp4DaIXwGxMfQEgYqmNXSOFwWs8v6lQKCt1WNm/JA0gfkx9ASBsj/9YyUTZPKCWstg1Uhq8BtELYCFMfQEgJD/4iZJS+Sv+r6y7JJVqB++CT7QlyXwAa9N6q/mgJgAwi/lkWGu9q6LUsWffuXb/05sKWwQA0JjUx66hirVeYW3wGkQvgHqY8FX+7wg9vXnNseffVbhFAAC1ORG79bF2pWEm1hsANMJ8ktyW0/3c5gYA83Ardg/L5nXbFnqB1RPeKia9ABphPjmueGrAfKJs1h3MJ80CAJjynSeVlEtfyMJktyoVwWsQvQAaNXvPl/AFkHlHj4nk1R7/t8JulwxJTfAaRC+AZhG+ADLPxO7kWL94eo+4pVjrBakKXoPoBdAKwhdAJrkbu3VJXfAaRC+AVhG+ADIj47FrpDJ4jWr0ipIhAYAmEb4AnJaF2NVyotZLUhu8honeUgfRC6B1hC8A52Rlsqu128FrrBksjhC9AMIyI3z3EL4AUos1hnOkPngNohdA2Pzw7Tfn+HJzG4DUyVbs6um3BTkRvAbRCyBs1QssuLIYQGpkcbKr1EitlzgTvIaJ3ku/c6zP0/qAAEBIquHLfi8Aq2V1jcHz3N/hnctlR4q7iF4AYZu533tsS6FHAMAWTz7px+7oLnZ25+Zk8BpEL4ComP3etgl1lDUHAFYwsTsqfuzKfsmm7OzwzoXoBRAV1hwAWIHY9XNXHa/1EqeD1yB6AURpes3hqFlzEACIE7FbN+eD1zDR639Q2isAEI0es+YQnObAtBdAHIjdhmQieI03HCn2E70AohSsOUw/1CYAEBUTuydKfcRu/ZRkzNObCv1KKT4YAYiUFim2ab3VXIEuABCWauyqtkdFKU6LCX65La2VzX3FhV6UmQlvFZNeAHFg2gsgdMRu0zI34a1i0gsgLkx7AbSM2J0PE96FMOkFEJfpaS/n9gJoDrG7sBqxa2Q2eA2iF0CMeqrn9nJLG4C6aX+Aeaq0RnLtDxK7zct08BpEL4A4mXN7g1vaOL4MQC0mdo8MrRFpf9T/WkHQtMwHr0H0AohT9YG2ZzYXbhcAmAuxW6+Rel5E8E4jegHET33xmc1rvygAMBOx2wBdV/Bm9pSG+Ty1qbArpxQHOQOIDac4ADiL2G2QPiab16+t9SomvLNcdqQ44Gm9WwAgJmbFoazU4WfeUdgoALKL2G2CKtbzKoJ3DkQvgLiZ6JU2dZSLKoCMInYjRfDOg+gFkAStdT/RC2QMsRs5gncBRC+AJATRu3nNQc7rBTKA2G2N1ifqeRnBW4OJXinrPqnz2AsACIP/IXAH5/UCjiN2W6fUcD0vI3jrcOn3i0N+9G4VohdAjKoPsxG9gINM7A490UvsxoPgrRPRCyAJnOAAOCiI3aFeGW8jdlvl6afqeRnB2wCiF0ASpk9wIHoBF5yN3WCyy8/pmBC8DSJ6ASSkxxxb9vy73niLAEgnYjdsevqtJoK3CSZ681r3mduRBABiVPG8AaIXSCFiNxpaH6/nZQRvk8wVoOYqUKIXQNyIXiCFjv5EEbuRYMIbNaIXQFKIXiBFfuDH7kTlK0Lshk8rJrxxIHoBJMVE7ysfuJJb2QCbmdgtlf3Y1bsEiSF4Q0D0AkjKxKmx/tFd24hewEbErjUI3pAQvQCS4JUrcuIXT/VP/PYHiF7AJsRuPNrKxXpeRvCGiOgFkAQTva/+9JdEL2CL7zyppFz6ArFrD4I3ZEQvgCRUJiaC6C397g6iF0jS0WMiebVHtNwuiF5XffciELwRIHoBJMFE78lfPtWvf/8mohdIgondybF+8TQ/B+PS10fwJonoBZCEM68My6njzxG9QNyIXasRvBEy0Vvu1H2iZEgAICYnn3pWxl54megF4kLsJkQX630lwRuxNYPFkVKH3kr0AojTiV8+JZUzk0QvEDViNxUI3hgQvQDiZk5ueOm//lh0qUL0AlEhdhOmivW+kuCNCdELIG7BQ2xPPWeu3vSj96NfFADhIXZTheCNEdELIG6nn/tXGXvxJTFHJOnf++h+AdA6YtcOWp+o96UEb8xM9F76nWN9ntYHBABiEOzzjk+Yd3cRvUCLiF17KDVc70sJ3oRcdqS4i+gFEAezzzv8s2PVrxK9QLOIXbtoYcKbBkQvgLhMnDgpo8/9a/WrRC/QqCef9GN3dBexaw0tWtd16YRB8CaM6AUQF3M+7/Rqg+FH701H9e07egTAwkzsjoofu8InijZRiuBNExO9/qcp9wgARGjWaoNPbZT2jkeJXmABxK69tMdKQ9q84Z+Lt2ut9woARMisNkycODXjW1Qf0QvMg9i1Wz7PQ2tp9IYjxX6iF0DUhn/6S9Hl8oxvIXqB8xC79isx4U0tohdA1MyFFKeee2HWtxK9wFkmdk+U+qSiubDFEQSvhYheAFEzJzbMeIBtmonezsf1J36zIEBWVWNXtT0qSvEJoM3aysV6X0rwWoroBRAl8wDbyaefneu71vhTrUeJXmQSsZsuXcIpDS4gegFEaeyFl2c9wHYW0YvsIXbTp6+P4HUF0QsgSqeeena+7yJ6kR3EbhrVHbsGwZsCRC+AqJx/TNk5iF64T2v/M7/SGsm1P0jspgrB6yKiF0BUFpjyGkQv3GVi98jQGpH2R/2vFQTpoQleZxG9AKJQY8prEL1wD7GbborgdZqJXk/r3QIAIaox5TWIXriD2E0/reu+dMIgeFPosiPFAaIXQJjqmPIaRC/Sj9h1g1J1XytsELwpRfQCCNvYiy/V8zKiF+lF7LrD00818nKCN8WIXgBhMufy6nK5npea6H1c/95HNgqQFsSuS/T0W90I3pQjegGE6dRzL9T70l7/Q8ijRC9Sgdh1kD7eyKsJXgeY6JWy7pMGz6QDgNlGn/vXRl5O9MJ+xK6b8nl2eLPo0u8Xh/zo3SpEL4AWeOVKPQ+vzUT0wl7ErrtKHqc0ZBXRCyAMdRxRNhvRC/uY2B16opfYdVRnjnN4s4zoBdAqc0RZnQ+vzWSi93H9+zfdIkDSgtgd6pXxNmLXVZVJgjfrqtHr/3QvCgA0oYGH12ZSotV+oheJOhu7wWSX33Vw1ea+YiMvJ3gdZaK3TRO9AJpjjihrEtGL5BC7mAfB67DXHykWiV4AzahMTDT68NpMRC/iR+xmiC5KgwhexxG9AJpldnlbQPQiXt//b8qP3QeF2M0AVZQGEbwZQPQCaEYLaw1V1ejdI0CUfvATJRX1Ff+9LQLMgeDNCKIXQKNaXGuoMtG7h+hFZEzslsp+7OpdgqwoSoMI3gwhegE0qsW1hiqiF9EgdrNJS0OXThgEb8YQvQAaMdn6hLeK6EW4iN2s0qJ1w3cNELwZRPQCqFeTl1DMh+hFOL7zpJJy6QvEblbp49IggjejiF4A9Rp9seWH12YietGao8dE8mqPP+e7XZBN+fywNIjgzTCiF0A9SqNjEjKiF80xsTs51i+e5sdOlpU8dnjRGBO95U7d53/4GRIAmMP4Kw0PU+pB9KIxxC6q2spFaRDBC1kzWBwpdeitRC+AuXjlij/lHZUIEL2oD7GLmbqEh9bQHKIXwEImwjutYTaiFwsjdjFbXx/Bi+YRvQDmMxld8Bomevv17330KwLMROziPLooTSB4cQ6iF8BcQrqAopbdRC/OInYxJ1WUJhC8OI+J3ku/c6zP0/qAAIBM7fGWxyckBkQviF2EjuDFvC47UtxF9AKomoh2rWEmojfLiF0srChNIHixIKIXQFU5mpMa5kP0ZhGxi4Vp/8dGw7esGQQvaiJ6ARil0TMSMz96b3pc376jR+C+J5/0Y3d0F7GLBSnV8AkNBsGLupjo1aLvEQCZVYp3wjtN9Ul7x6NEr+NM7I6KH7uyX4CF5HhoDRF7wz8Xb9da7xUAmRTjg2uzEL1OI3bRiCauFTYIXjTkDUeK/UQvkF3l0TFJBtHrJGIXjerMsdKAeBC9QHZNJha8xnT0fuI3C4L0+8GzIie9ncQuGtI+WZQmELxoCtELZFNlIomVhpn86K1oojftzGR34sU+/98nJ3GgMU1cK2wQvGga0QtkT+l07Cc1zGUN0ZtiJnZPlPpEtT0qSrGiggY0d62wQfCiJUQvkC2ViXGxBNGbRsQuWtLcCQ0GwYuWEb1AdiR3UsOciN40IXbRKi1NndBgELwIBdELZIeulMUiRG8aELsIR1GaRPAiNEQvkA2TduzxzkT02kxrkVOlNZJrf5DYRQu0/2OpqQfWDIIXoSJ6Afclf1LDnIheG5nYPTK0RqT9Uf9rBQFaoXloDRYx0etpvVsAOMnS4DWIXpsQuwibVselSQQvInHZkeIA0Qu4SZcrYjGi1wbELqLQ5C1rBsGLyBC9gJvK45NiOaI3ScQuotLkLWsGwYtIEb2Ae7yyVac0zMdE7+P69z6yURAfYhfRGWn2ljWD4EXkZkRv0z9QAdjD4h3e2Xr9D3OPEr0xIXYRJd38kWQGwYtYmOiVst4qRC/gBJ2OKa9B9MaB2EXUVGv9QPAiNpd+vzhE9AJuqNj94NpsRG+UiF3EoygtIHgRK6IXcENlwvoH12YjeqNA7CIunn5KWkDwInZEL4CEmOh9XP/+TbcIWmdid+iJXmIXMdCtXDphELxIRDV6dYu/RQEgGeXx1Dy4NpsSrfYTvS0KYneoV8bbiF3EQ6uitIDgRWJM9LZpohdA7IjeVpyN3WCyy4oI4tGpeGgN6fX6I8Ui0Qukj66k5pSG+RC9zSB2kZT2UlFaQPAicUQvkD5euk5pmM909H70dkFtxC6S09KlEwbBCysQvQAS4kevfMGf9O4RLOw7v1Bypu0rQuwibrr1NiB4YQ2iF0BCzKR3D9G7gB/8RElu4iui1A4B4ndcWkTwwipEL5AOKbpeuF5E73xM7JbK/mRX7xIgGUVpEcEL6xC9ABJC9M5G7CJ5fg4w4YWjiF4ACSF6q4hd2CKnjkmLCF5Yi+gFkBCi9ztPKimXvkDswgol74S0iOCF1YheAAnJbvQe9YdpebXH/41kjmuDHZaUh6RFBC+sZ6K33Kn7/A8/Lf+AB4AGZC96TexOjvWLp1npgC1aPoPXIHiRCmsGiyOlDr2V6AUQs+xEL7ELG+lwfoeX4EVqEL0AEuJ+9BK7sJWSlqe7BsGLVCF6ASTERG+//r2PfkVcQ+zCZlqekBAQvEidavQqkUMCIBH5zk7JqN1ORS+xC7uFcgavQfAilUz0XvLPx3Z6Wh8QAIiXG9FL7CINKjqU39EleJFqlx0p7iJ6ASQg/dFL7CINOlUoO7xKAAc8takwkFPqFgEQi6WXXSLL/DfIfilN3Kn2HQrlg3Ispia7e/zY7RfAblo2rwtlOMuEF05g0gvEK8M7vLPtlvaOR/XtO3okDY78TGTi9O3ELlIitE8kCV44w0SvFn2PAECsVF8qovfJJ/2/1YldotUXBUiH0E5kInjhlDf8c/F2rfVeARCpti4mvOeyPHpN7I7KLvFkvwDpUZSQELxwzhuOFPuJXgDxszR6iV2klaefkpAQvHAS0QtEK9fGh4+5TUfvJ36zIDYgdpFeWvK5oxISfsWCs4heIDoq3yaYjx+9FZ189P7gWZGT3k5iF6lV8k5ISAheOI3oBaKRb8sLFrQm0eg1k92JF/v8+HbvKmRkx5IyD60B9SJ6gfCpNia8dUgmek3snij1+f+SHhWl0nFcGnC+Eenr41gyoBFELxAezuBtSLzRS+zCHaFNdw2CF5lB9ALhyDHdbVQ80Uvswi1FCRHBi0wheoHWKfZ3mxFt9BK7cE2IR5IZBC8yh+gFWtPW1SFoSjTRq7XIqdIaybU/SOzCEaEeSWYQvMgkE72e1rsFQMPY4W1JuNFrYvfI0BqR9kf9rxUEcEVOH5cQEbzIrMuOFAeIXqBxOVYaWhVO9BK7cNnV63hoDQgL0Qs0ro0Jbxhai15iFy7T4Z7QYBC8yDyiF2gMZ/CGxkTv4/r3PrKxoT+K2IXrlIR2/m4VwQvIdPSK3ikS/k8ywDX5Th5aC1Gv/6H40bqjl9hFFmh5QkJG8ALTLvvn4iEp661C9AILautipSFk9UUvsYts8H+gS6gPrBkELzDDpd8vDhG9wPw4oSEyC0cvsYssqWh2eIGoEb3A/PJMd6M0Fb3/629uOedbiV1kzZJy6MGrBMCcnnlHYaO0qcP+u00d5P5sz6Xy7PJL/LdLz/n2S048I0vHT8olI8/KsomTAqTJ4lUrpfdX1goipUXp3eo/fO0AsYsMGpbN6y6QkPGoLTAPM+n1o3erblMHVR0faE52LpNDG2+Uf7r8ffKjVW+RU13Lav0hQfhe8cIP5erid+Xq40fkzf/6IyIYVmOlIRZKtNqvf/8mUUNDf+/H7oNC7CI7Qp/uGkx4gRqe31QolJU6PF/0fm/1NfKl627zv9wkYTDhu/OJB/wIPuJPg58VwCYrrvgV6VrRK4ieeXLndzdcX/zSG68uCJAVWvbJO9fdISEjeIE6zBW9ZqL7pS23yb1XR3eEbzV+3/PjbzH5hRVWrr9COpcvFcTDRO8Nm26SQxdfLkAGaP8/d/rBu09CRvACdZoZvWY39+ab7wv2dOOy84n75eOP3cPUF4m6eNNVXDwRs+H2LrnqPf9WioubepwASBMtZb1N3r1+UEJG8AINMNF79JKNh//H3zpQqGdHNwpm6mvC9+rj3xUgTrm2vLx+09sE8Tu8crVsu/ZmARynpat0gfT1hX5KEsELNKD7G3qjUtL0yQ1humTkGfn4t+8JVh6AOHQsXyYXrn+zIH5mtWH32z4oB1ZvEMBhkZzQYHAOL1Cnrod1wf8U8aBYELuGWaf45Af/VN7zO9+WRy5/nwBR6+heJEiGmU7t+dG3BXBcJCc0GAQvUAcTu3kth5WFRwOZ8P33N/2V//aXwbm/QFS4dCJZhbER2fJSUQBnaXlCIkLwAjXYHLszPXL5dnnP7/5nf+r7HwhfRKK9u1uQHDPlvfl4ZD0AJE1LTg1KRAheYAFpid2ZDm74cHCCxMENNwoQplwbHzKStuP5nwrgrJw+LhHhoTVgHmmM3dnMg2333vtvOMoMLeOEBjuYh9fW/vrvcEQZXKRl87rIPqvm03VgDi7ErmH2e82ag7kJDmhFG+sM1tgw8oIAztHRPbBmELzALK7E7kxfuva24DQHdnvRLE5osMeasdCPKAVsENk6g0HwAjO4GLtVTHvRCk5osIPZQ+wpjQvgGLOt85hEiOAFprkcuzOZae/NN/8t0140hBMaAESqollpAKKWldit+t7qTcFJDv/EhRWoEysNACK1pEzwAlHqOah78pM6M7FbZVYcPn7TX7HigJrMdFe1tQkAREMXpa8v0uV0gheZZmK33OFPdttVQTLKrDjs+Lf/iRUHzKutq0NgB7PoONLeJYBbVFEiRvAis6qxK0o2Ssb9+HVvCVYcfrTqCgFm61i+VGCPY5zBC9d4+tsSMYIXmUTsns+sOOz87W+w4oDz8MCaXU60c2IGnKIlnzsqESN4kTnE7sLMisPd2z8jQBUPrNllqOd1AjhFTz4hESN4kTnlTtlP7C7s3mtuZa8XAR5Ys0tx8XJ2eOGaEdncV5SIEbzIlO6H9X7/ix2Cmqp7vURvtvHAml2eYLoL90R6HFkVwYvMMLGrtOwS1M3s9fIwW7bxwJo9gquoVq4WwCkxPLBmELzIBGK3edWH2Q5uuFGQPTywZpfBCwleOCWWB9YMghfOI3bD8ckP/iknOGRQJxNea5j93aHlrDTAMTE8sGbwJAKctuQh/UUhdkNjTnAwPv7YPQL3dSxfJrDH4MqCAG7RxTgeWDOY8MJZSx7We/wvbheEykQvk95s4Dgye5j93XtXXymAU7SKZbprELxwUhC7WvoFkTDR+8kP/geB2zqZ8FrDrDMMXlgQwCHBc5gSE4IXziF243Fww4fl39/0l3KykyhyFfu79mCdAU6q6FiOJDMIXjiF2I3XI5dvl5tv/lui10FcOGEPMwa76y3XCuCcJWWCF2gUsZuMqQsqiF7XtC9hf9cWgytXS3FxjwBO0TIkfX0jEhOCF04gdpNF9LqHdQY7mOnugdUbBHCOktimuwbBi9Qjdu1A9Lqlcxn/Hm1gHlYjeOEg7RdobA+sGQQvUo3YtQvR64Z8Z6fkuzoFyTLT3b1XXCeAk5TEdiSZQfAitYhdOxG96dfZwzqDDcx09+sXXy6Ag0bk6nWsNAC1LP56hdi1mInej3/0LwXpxP6uHe5dvUFG2rsEcFCssWsQvEid7of0Lbn2XL/Aat9bvYnLKVKK/d3kHfOnuwPs7sJN2v/P30vMCF6kioldJTIgSAVzOQXRmy7m/F32d5NV3d3lKDI4K8YLJ6ryAqQEsZtOZr1B/H9xVx//rsB+XRcsl0UregXJMbu7t779QwI4613rd0vMmPAiFYjddPvStbfJl667TWC/RRcQu0niZAZkwKAkgOCF9ZY+pHcQu+lnovfANbF/Uo8G8cBasoaWv45zd+E2He9xZFUEL6zW/Q290Z947Bc44fPb/1AObrhRYKeO5ctEtbUJkmGmuzds/ogADtOSU4OSAIIX1jKxq5Qc9t/lyQ2H3O1H749WXSGwT0f3IkFy7nnTNTyoBvd1TsZ6w1oVwQsrEbvuOtW1TD5+01/Js8svEdila8UFgmSYY8j2XnGtAE7TMiR9fSOSAIIX1iF23fdsz6Vy8833Eb0WybXl2d9NSPVBNS6ZQAYkMt01CF5YhdjNDhO9/96f9HIFsR06l/PvISkDl23gQTVkQWL7uwbBC2t0PawLouSgELuZYc7o/fz1nxEkr2sFP+2SYFYZ7noLqwzIiIT2dw0unoAVTOzmtRxWIgVBpnAxhR161qyWHCc0xMqsMtxx5fXy2IUFAZxn9nev3nCPJIQJLxJH7MKc0ctxZcnhOuFksMqAjElsumsQvEgUsYsqjitLTufyJYJ4mVWGOzdsFyAjtFT01yVBBC8SQ+xiJo4rSw7HkcXLrDJsu/ZmTmVAtiwpD0mCCF4kgtjFXDi5IX75zk6OI4vZXVdcywUTyJrBpM7frSJ4ETtiFwsxD7F96brfFcSjs4fYjdPB118u/VdcJ0CmePrbkjCCF7EidlGPe6+5VQ5cs1sQvUUX9Ariwd4uMkqL5094E0bwIjbELhrx+e1/KN9bfY0gWqwzxKO6t8sqAzJoRN69flASRvAiFsQumvHJD/4pD7FFqGP5MlGcvRs5E7t3Xnk9sYts0skeR1ZF8CJyPQd1T5snB4ldNKr6EBui0b1qhSB65iG1fW+6WoAM0pKXQ2IBgheRMrFb7pDDomSjAE0wD7HdvZ3rh6PQuYzTMKJ2dPkqHlJDtnklJrxwG7GLsJiH2LiJLVxmnYHb1aJlHlK7YfNNAmSXLsrmvqJYgOBFJIhdhM3cxMY+b3gWrWCfNErD7Z08pAaIGhRLELwIHbGLKJib2G6++T4upQgJx5FFxzykdsOmjxK7yDotZX2vWILgRejKnbKf2EUUzENsXErRuvbubtYZIlI9kWHwwtUCZJ4Fx5FVEbwIVffDer//xQ4BIsI+b+sWczpDZDiRAThrUCxC8CI0JnaVll0CRIx93tZw2UQ09vqxy4kMQED7hXlALELwIhTELuJk9nk5n7c5+c7OYKUB4RpYvYHYBWay5DiyqrwALSJ2kYSXl1woJ7uWyrt/8W1B/bpXrZSuXh6mCpM5a/cD7/qYAJimZUjeueFPxCJMeNGS7kOVLxK7SIrZ5/3e6msE9VvsBy/CY2LXHD8G4BxWTXcNghdNW/Kw3qM6crcLkKBPfvBPOaqsTqwzhKt6scRIe5cAOEtLRX9dLEPwoikmdv0f0v0CJMwcVfbxj/6loDamu+ExscvFEsBcdNGm48iqCF40jNiFbb63epMcuGa3YGHdFxG8YSB2gYXYc7vaTAQvGkLswlZfuvY2jipbAJdNhIPYBRZk1e1qMxG8qBuxC5uZo8o++aE/FcyNyyZaR+wCNY3YuM5gELyoC7GLNDCrDV+67jbB+RZd0CtoHrEL1OWQWIrgRU3ELtLErDb8aNUVgtd0LF/GOkMLiF2gLlqUsu50hiqCFwsidpFGH7/prziqbIZu1hmaRuwCdRuRTW8leJE+xC7SyhxV9qXrflcwpXMZ8d+M6qUSxC5QF2vXGQyCF3Pq/qa+jdhFmnEL25RFK3pZZ2gCsQs0xOp1BoPgxXm6H9K3KE/2CZBy3MIm0rWCYGvUwOoNQexygxpQN6vXGQyCF+cIYtf/9V4AB2R9tSHXlpfFF10oqJ+J3d1v+yCxCzTG6nUGg+DFWcQuXJTl1YauFRxF1oi9V1wbxC6Ahli/zmAQvAgQu3DZ3dv/ULKI6W79TOz2X3GdAGiY9esMBsELWfx/l3cQu3DZj1/3lsxdSJHv7JTO5UsFC9P+m5nqErtA06xfZzAI3ozr/obemFua3y+A4w5cvVueXX6JZMUiHlarabi9U67a9m+DvV0ATdFS1vdKChC8GWZiVyk57L/LR0Y471TXMvnkh/5UsmLJxa8TzM9cKHHVe35bhnr45wQ0Txfl3esHJQUI3owidpFF31u9SQ5cs1tcx1XCC+OMXSAsalBSguDNIGIXWfala29zfrWBq4TnVz1jl9gFWqYlL38uKUHwZkz7/kliF5lmVhvuvt7tUxsWXcBxZHOpHjvGGbtACLQMydXrhiQlCN4M6XpYFzpWtR8UYhcZ98jl2509m3fxqpWi2toErzEPp3ESAxAqM929R1KE4M0IE7t5LYeVSEEAOHvtMGfvnss8nLbt3TdzEgMQNq/0mKRIXuA8Yhc4n1lt6KxMyNXHvyuuMGfv9qy9TDDl8MrVcsPmm+THS1cKgBBp+bq8c8NfSYow4XUcsQvMz7UH2JZcskowZd+bruHhNCAaWnJqQFKG4HUYsQvU5tLZvDysNrWve8eV1/tv2wVAFHQxDVcJz0bwOorYBepjzub9p8vfJ2m3aEVv5s/ere7r7nvT1QIgKuk5e3cmHuV1UBpjV5d18Ba8P+FNf5v/ZUWf91pv+vuNXOccn7Pllai2qW9X5kd4fur9XBef32Fun9/+h3J18buybOKkpNXii7K9p3rw9ZfLrW/nyDEgYv4H5dJdkkIEr2Nsi90gZCcq4o17oie94EsJvs07G656RsDGQfmRrIIoVsH70jb1voln1ZkPInnqSyXIhmd7LpV7N+2Wjz+WqlN2zjIPq3WtyOY6g/mU+M4rr2eqC8RjUDb3FSWFCF6HJBm7JmS9kyXR/kTWO+0H7mglCNzq1NYmJrDr+bsKgrgjN/Vldz6YEJuvB18SxM4xD7DtHLpfLjnxrKRNZ89SySKzwnDr2z4kgxeuFgCR05KTA5JSfMR2RJyx642Wg6Ct+G/eibK1YRu1YCq8OH82hnOL24LpcK6bzyPT6urjR+Teez8mafO6t2/I3P6uOXLMrDBwCgMQF31MNq9fKynFR2YH9BzUPWVPDvqfvhQkZCZkTeCWX/WntyZwxyqZjNu5mH8OlZNlEfM2w1whnOtmIpwG5gE2cwNbms7m7Vi+LFOxywoDkJR0PqxWxUfglAtit0MO+/8mN0pIKidK4vkRV/Gnt5VZMYfmmX3hfPdUCOeXtRPBlrpk5Bk5+Ne/kZoH2Hp/dU1mbldjhQFIjHlYbW1a93cNblpLsbBiN5hUvjwppecmZPIXY1J+YTII3bgfJnOe2W8+4wWfTJRf8v95Pzsu5Rcng6/rkv/P2pveG84RwUlK0w1s5mG13l9N7e8wNsScwvCBX/sYt6YBSUjhzWqz8ZE1pVqN3SByX52cCi7WFKxi1iHM9De/fGoVgp3g+C0dPymP/Pm11k95l1z8Olnu+FXC5iKJu67YwgoDkBwtZb1N3r1+UFKMCW8KtRK7Zl1h8udjUnrqjJRfLk1NcRnkWkWXdPBJSOXVUjBtnzkFVjkJTopAtCbbOmWirUPe/Ytvi80uuPyNkmtz9xOio8tXBdcDf3PVGwVAUnRR3rX+Dkk5RkcpNKn0/pxSdcducKKCP80tPT/BJDeFzCclZfOJiR/Ahll7yC/zp7/+BDj4kglwJO695lZ570++Ze1qg+s3q+170zVcDwwkT0tO7RUHsNKQMt0P6/1Ky656XmumuaWnx3nwzHHVAM5f0M4KRMhsPqZs5forpHO5e+fv8mAaYJN0H0U2Ex8ZU6Se2DUT3PLz40xzMyT4d27WH6oTYHMaxNkAbuNK5RbYekyZeVjNxdg1U929V1zL9cCANdJ9FNlMTHhTolbsErqYz2vrD+3Bg3BojDmm7JG/uFZs4tpRZEx1ASul/iiymXhoLQUWit0gdJ8dl4mfjUplpMwDaDiP2QGuHoUWPAA3WgmOSJN8jnOA62COKVs6cVI2PjsktuhZs9qZh9U4bgyw1oBs3pDaq4Rn46Od5ZY8rPf4n2P1z/52JroIQ7D6sKKdh99qsOmYssWrVkrvr6R/pc4cN2amuocuvlwAWMep6a7BhNdic8UuE12EyUx/zY+js8efTXjBxRfs/Z7LHFNmy2UUK674ldRPd81U1xw3NtTzOgFgpUF/unuPOIQJr6Xmit3yK5MyWTzDDWiI3MwH39pWdAjsmPJ2LF8mF65/s6QVu7pAKjhx0cRsTHgtNDt2zc7lxE9Hg6t/g91LIGqV6csvXilJ+fmJ4H3DXHqR1auPbbiMYtnqi6W9u1vSyJzA8LGrb2BXF7CdliH5tfWfFMcw4bXMzNit7ulOPj0ugC3a/KlvPnjryORDb4/8+bvlkhPPStzMUWSve8cGSRumukCqaMnJbrlmnTMPq1URvBaZGbvm0oiJn4+xvgCrBfF7YUem1h6SuoyiZ+1l0n1xunZe915xnT/ZvZpzdYHUcOeiidl4LNsS1dg1U93S02eC0xcA21UvvJhsG5N8b3smdn6Tuoyi64JeSYvDK1fLnVdu56E0IF2cuUZ4Lkx4LVCNXbOrO/7j00x1kWrVB97aLup09qKLuKe8aTmKzBw1dtcVW4KpLoC0cXe6azDhTVg1ds2DQRPHxgRIO/MJW3DJhf9Wjd/2izudOuc37invsjdcIrbbf9kGuXPDdtYXgHRyerprMOFNkIldXdL9E/5Ut3KyLIDLcovzU+G7rN2Jc37jmvLafhTZ0eWr5M4rr+ehNCDV3J7uGkx4E9L9TX2bd6rSzwoDssIcbWYexDSmVh46grWHtIprytu9aoXYiPUFwBnOT3cNJrwJ6H5I31J5fmJg8ukzXAuMTDPHmpmH3dK67xv1lNfWo8hYXwBc4v5012DCGzMTu+Wnx4PYBbIuOGt6xr5vxxu6UrXyEPWU11w0YZPBlauDo8ZYXwCckYnprsFNazHqflDfMvnz0wOlFzhyDDhPRUvl1amb3fRoRcTTqXjQ7dmeS2XnEw9I2Mx0d9lll0iuLfl/BmZ94VPr3iv/ru8DUuzuEQDOGJRN6+6UDGDCG5OuvynfMv7jkwPVK1oBzO/s+b5Pj0+d8vCGRdZOfaOa8nb2LJV8V/I7zuZK4L1XXMv6AuAe7Y89MxG7Bju8McjffXKHrngHeTgNaJ7ND7pdMvKMPPIX10qYXvf2DYkGr7k84ta3f1CKi5noAo7aL5vX3SoZkf6zgSzX/sXTG/VEZT+xC7TGHN1nTnkY+y8nZOJno+KN2/Nzyqw1HNxwo4TFXDSRVOyaY8a2vvtm2XbtzcQu4C4tUrpLMoQJb5Q+NbxR5fRh/z0+agARsGnqG+aU96K+t0p7d7fEaaS9U/ZyzBiQFZma7hrs8EaF2AUiZ6a+5s2GXV8z5Q1jl9dcNBFn7JrQvedNm4LQZU8XyIRjWZvuGpzSEAViF4hXRQcXW1RPeFDtuUTCN4wTG8xRZHEF7z1vukZ2br5JvrnqjTKeZ/4BZID2/3OXvHPDNyVjWGkIW/9wQZX1USF2gUQlda7vvff+m6anvHFdNGHO093NA2lABmXjkom58NBamEzslpjsAjYwD4qah9zOPB7vQ25fuu42aVbUF02Y0DUPpG3lgTQgizJzycRc+D2ssFRjV0lBAFileptbHA+5zT6X9yf5RfJMvktezrXJmHpti2ylV5JfLY/J5ZWpWxfNdHfxRRdKFLghDYBvQK5Zd0AyiuANA7ELpMLMh9yiXHf4y03/k7zwrz+XRzov8CO39p9/8+QJ+a1V4T8wVly8XO648no5dPHlAiDTMncM2Wzs8Laqf7hnOnY3CoDUabuwI7TTHdomRuWSoUP+28Hg/Ua9t7dDPuZPn1d1tPb3YkK335/oHlgd/T4wgBTw9F551/p+yTCCt0XqM68c9P93hwBIteqxZvnlzf3GV9fJF+TKB/5Auk69IK0wsfvbr++STf70uVGcpQvgfNl9UG0mgrcFuc8M79Gi+wWAM6qnOzSy5xtW7M70sYu65LdW1ff3wFm6AOah/f9u84N3UDKO4G0SsQu4zYRv+0Udkr+wc8F1hyhit+qOSxfLe3vnn/QSugBqyNyNavMheJvxyZd3qHzuoADIhIX2fK/evyuS2DW680r+4k1LztvpJXQB1MHcqOZPd/uKAoK3YVwsAWSWCV+z6lDd81393f/Lf/sbidL67jb547VTN6+Zh9H2vema4GE0QhfAArTkZHeWjyGbjWPJGvHa8WPELpBBM8/zXbr0RHAaQ9T+62hZ/h+9RB54+zZOXQBQr0yfuTsXgrcBqux9UZQqCIBMM2f59vzsPzd19FgzPne6S75L7AKoz7Gsn7k7F64WrpN5SI3jxwBUFV54WOKyovgLaRs/IwBQg1ll2Mve7vkI3np88uUdnMgAoGrRxEuyaPIlidOlQz8QAKiBVYZ5ELy1mL3dXO6LAgDTlp05LnFb9q/PCQAsgFWGBRC8NaiSPihKCgIA05aOxR+8i068KgAwD3PBxK2sMsyP4F1AsLerZKMAwAztlTGJ2+IRghfAPDx9F7epLYzgnc+nh7ewtwvAFpNdiwQAzqePybvW9wsWRPDOxeztit4vADCHUn6xxK1M8AKYTeth/1eHbYKaCN455EqVfvZ2AcznTOeFErdSJ8EL4Bxa8uoO9nbrQ/DO9qmXd2mVu0UAYB6vLr1C4vZq4Y0CAGeZvV2OIKsbwTuTWWVQuT0CAAs403GhlGNea3jhzW8VAJh2lL3dxhC8M6iy3s8qA4B6HFv1fonLidddLGd6LhAAkKnzdm8QNITgnZb7zPBt/hdbBABq6X5Fnnr/qJQXKYnD81uvl1w+LwAyT4vnxy57uw1rEwSrDLrMEWQAavBDN7f+IVFrj0jF/+rxa7vkjf9wRqI0sWKlDG95nyz3358cG5Px06elUi4LgMzR/n/ulHf1DQkaRvDK1KkMWuV6BADmctFPp0J31c/O+ebj13bKxd+bkEXDnkTlv/0vf3j2/Y7Fi4O38sSETJw5EwQwgIwwD6m9a/0+QVPi+f04m33q5V0ql+PMXQDnmyd0Z1r0qieb/+yktJ3RErbiTf+DPP+e+XeFvUpFzpw6RfgC7jssm9dx3m4Lsh285lSGkj7Mg2oAzlFH6M609NmKvOP/PBVq9D79398oz/zGjXW91oRvyZ/4jo+OBu8DcIk+Jl3lq6Svb0TQtEwHb+7TLw9w5i6As8yO7qb/WHfozmQmvW//P061vN5QXrw4CN2FJrsLMdNeM/UlfAEnmBMZtvGQWuuyG7xmulv2P2sCgBkPo7XCRK95iO3i709KM0786hXyi13/s0ysaP0mN/Z8gZQz1wYrf7JL7IYis8GrPv3qMVYZgIxrH5Pc2x5oOXRn63puUtb+/WlZVfT/EpO1f5l95fVant1xs4xuDP9s3+qerwlgpr5Aamj/v/5kd/2gIBSZPKXBnLmrRRcEQDb5oavefFhybx4M3g/bqEzKv1znf7y6TuSC57WseE7Jslf8X3CnB7/lDpGxpSInV2h5YbX/9U7/+xZ9X5ZK+MFrzu/t7ukR7XlSGh9n3QGwn/+Lh3erbL5yUBCa7E14eVANyK6IQ9fQpYpUft7csyVLLv/fpH3pWyRqZtprHnAzAQzAMp7ey7XB4cvchHf6zN2CAMgUdbkfulc+FFnoVnkvNX8Rxfhz90u7H71Ra+vslCX+G+sOgGWI3chka8LLg2pA5qhLnwj2dM2DaVFrZbpbFdeUdzZucQMSRuxGKlMTXj92uWACyIoGz9INg3619RWBuKa8s3GLG5AgYjdy2QneT728y//fLQLAbS2cpdsq71Rzx5HNVD71Qyn5b0lMeQ2z7mDeFi1dGsQvD7kBESN2Y5GZlQaOIQMcZx5Iu/IhyV1+WJLgjUyI9/xpCUObH7tLE5jyzoepLxARYjc22ZjwmukusQs4S63/RqQnL9TDezm8v3bSU97ZmPoC4cu15fd677iiXxCLvLjOPKjmqf1+8PYIALdc9FPJv/ceUZf+i/+rWUmSYqa7+sSEhMmbfEk6V14nNlG5nOTb26VryRJp7+jwv0FJpZTcP3cgjVROSceiRXvLV/1qvyA2zk94c2W5RTPdBdyS4J7uXMKOXcO2Ke9ss6e+nPAA1GYuglm0fOnA6OWX9gti5faE15/uSkXvY7oLOMLs6b71HyV/7V+LWvKq2MAcRea9EM0qhY1T3tmqU9/O7m7p6OoyV0QFt7pprQXAa6ZvPRw4ffkluwWxc3rCyyUTgDvU2iNT5+m22/XgVCsXTdRi+5R3NhO+5hpjwzzgNuG/lSdbP7kCSDtz5F/X0iUDJ9deROwmxN1TGrhkAnBDAufp1iuMiyZqse3EhkaZh9t40A1Z1rV0qSzuXjLw6poVxG6CnJ3wTk93BUBKJXzMWD3CuGiilrRNeWczv41bvdTCPOA2PjrKVcbIhOkVBmlv7yB2LeDmhJfpLpBqtq4vzFb++bBIyZOopX3KO5eSOdfXD1/O9oWL2jo6pLu310Tv0eHVF1wlSJyTE16mu0BKWXb6wkLMUWRxxK5hprwTLz9m/QNsjWhftCh4W7xsmZTGx9n3hTMWL18ePMTpO6o9tU1gBfcmvEx3gfQx6wtvPpz45RGNiGu6W5XruFCWX/kX4rLqvi/xizQyKwxLLrggeHhTpmN3ZE1vtEv+qJtzE16mu0DKmMsjNv9NMN1NCz1WijV2DXNE2fgLD0vXqveLq2bu+xK/SBMz0TVnUptj+oTYtZJbE16mu0B6pOChtPlUnjsdyWUTtah8tz/l/fPgyywx8Wt2fk38crkFbGJ2dc0Kw/RU1yB2LeXUhJfpLpAO6tInph5KS9FUt8ocRZZE7AZ/7cpoMOVddPGHJUvM5LdzyZLgjckvbGCuB160dFl1V7fqmB+7NxC7dnJnwmumuyV9WLhGGLCXP9XNbf6bIHjTKqnpblVWp7xzIX6RhFnrC1XHpie7RYGV3JnwlrwdolRBAFhJXX5Yclc+lJqH0uYT7O8m+dfP6JR3LnPt/E6Oj/vxOyHa42pjhMusL5jQbevsnP1dxG4KOBO8StRtAsA+KTpqrJY4jyJbyIQfvJ0rrpNc54WCKTPj1wgmv2fOcMkFWrZA6BrEbkrkxQWfenmXyqldAsAqZqqb/7X9opa9IC7wnjstUrFgcqhLwakNHRe8UzC3XFubdHR1SdeSJcGXef/rWmviF3ULLo/o6ZFFy5YFP57mQOymiBMTXqVyewSAPRzY1Z3NrDLoCXtiqTTyg1RfORwn8wS9eZv50FtpcpLpL+ZUY6JbReymTPofWvvMyzuU5A4KACsEJzCYc3VTvqs7W9IPq83FxSuH41YplWbs/vLgW5bVGboGsZtCqZ/w+rHL7i5ggxSfq1tLkkeRLcRcOcyUtzUzp7/a84IADuLXj2DO/HWfOV6sY9Fi6Vy8eOZZugshdlMq3RNeLpoA7JDC29IaYR5W854/LTYyVw4ve+sfc0xZBMy6Q8Wf+k6a+PW/JIDdYaa5ZrfbPOQ463ixhRC7KZbqCS8XTQDJU2+738mp7kzey/auZ1SvHOaYsvCZkx9yixZJu/9mVAO4uv9LAKdLdZprQreOtYXZiN2US++El+kukCx/mpu/9q9Fep8Rl5mH1SrHT4rNuIwiGdUViNcCuMT5v5ZpMXKrhv3YvYrYTbf0TngnK1skx3QXSIIrl0jUIzh713LmMoozz94viy+7RRAf81vhJqKCkFq6NPg2E8DVCGYNIhlmMt9u1hVai9yqYSa7bkht8HIUGZAA82Da2x+Q3JojkgW2Pqw2l4kXH5b23nfwAFvCqg/BVS/AqE6BqxHs+QFMBIfLTHHzbe1B4JrQnefM3GZUY3dIkHrpXGngKDIgfr3PTK0wOPpg2lzM7q730hlJC44pS49gBcKEsNkLNl+yDlG3auC2m+l6R0fwCYYK/3d8iV3HpHLCq0Tx+3ZAjIIVhrfdL1mThnWGmcwxZZMj35eOnncI7HZ2FWKGmdNgQvg15pY8E7Vt5s3/Z1bn8WGtIHYdlL4JLw+rAfFx8Ma0eulTk1J55pSkDceUuceEsDkhwqxDlP0386X5ehDIDq1HmN1bE7PVL9um10NipqcfUCN2HZO6CS9HkQExyeAKw0zeqXTeusUxZe4xv12fN29+/M2VfzMDOAhjrc/5Nm2+nvAVymYNQamp/w9KqWDPNjj2zX8/iNw2K3LEj13v1pE1K4ldB6UueLXkrhMAkcrSKQxzSdPDanOZ8IO3c8V1kuu8UOC+IB7rDEYTwiaATQgblekQnh3EXh2TYxPiM3dnTcAGX/oRa7797NftiNlaqrE7IHBSulYaeFgNiJbD1wM3wuab1erFA2xA3YjdDEjVhJeH1YAIZeQiiXrYfLNavcwDbCX/jWPKgAURuxmRnmXY/uGCn7w7BED4Lvqp5D/wx8SuTN2sJiVPXDB27MvBpRQA5uTHrr6T2M2G9ASvuVkNQOjMvm7+vfdkdl93trQdRbaQ6gNsAM6nPH3XyJoV+wSZkJrg5WY1IGRmX3fzf8zk+brzSfvDanMZf+5+8SZeEgCv8WN376trVvQLMiMdwfvp4S2ipCAAwmH2df2pblauCK6XHnXzytfR4pcFwBRiN5tSEbw5qewSAOEw5+uaFQb2dc/j2nS3yjzAxmoDQOxmWSqCl7N3gXAof6IbxG5GL5NYSLDOYB5Yc5RZbeABNmQZsZtt9gfvp17exToD0Dq1/iHJbf6PPJw2D++lM+IyE7tjT90rQBYRu7A+eFVOfUgAtCR4OG39NwTzc3m6WzX5ymPB2bxAlhC7MOwOXs7eBVrjT3Nz79nHw2k1uHT2bi2czYssIXZRZXfwcvYu0DxzEsMH/ljUqp8JFubS2bu1mLN5zzzLUXRwH7GLmawOXpXLcZUw0IzpY8d4OK02F8/erWXixYdZbYDTiF3MZm/wBusMskUANMYcO2auCSZ26+Lq2bu1mNUGwEV+7A4Qu5jN3uBlnQFoWHDs2Ps/z0kMDcjadLcqWG14jtUGuGU6dncLMIu1wcs6A9AYdfnhqWPHUDfXz96txZzNWxkrCuACYhcLsTN4WWcAGhKcsfs2pnWN0qeyG7tVXDsMFxC7qMXO4GWdAahbELucsdsU71W3L5uoR2XsOKsNSDViF/WwMnhZZwDqQ+w2T0+UM3P2bi2sNiDFjr468tQdAtRgX/CyzgDUhdhtjffKuOA1p3/+Z1xIgbQ5qj21Tfr6RgSowb7gZZ0BqImrgluX5YfV5sKFFEiZIHZH1vQSu6iLdcHLOgOwsCB2uSq4JVm6SrgRXEiBlCB20TC7gpd1BmBBxG44snSVcKPGjv0lqw2wGbGLptgVvKwzAPMidsPDOsP8vMkXWW2ArY75sXsDsYtmWBW8Kqc+JADOEzygRuyGgnWG2sxqw+TI9wWwyLHpyW5RgCZYtsOrdgiAc3AaQ7hYZ6iPWW3wJl4SwALELlpmT/B+5mViF5iF2A0f6wz1MXu83MIGCxC7CIU1wZvTQvACMxC74WOdoTHlUz+U8RceFiAhxC5CY03wasldJwAC6vLDxG4EWGdo3JmnD3BUGZJA7CJUdgRv//BGUVIQAKIufUJyb+Mp+SiwztAcjipDzIhdhM6O4C15rDMARu8zktv8N4Lwsc7QPHNU2egx9nkRC2IXkbAieJVSrDMA3a9I/tq/FmkfE4SPdYbWlEZ+wD4vokbsIjLJBy+3qwFTsfvee4IvEQ3WGVo3/tz9UhkrChABYheRSj54uV0NmJrsEruRYZ0hHGaP9/TPv8A+L8I2TOwiaokHb04x3UW2KfOAWu8zguiwzhAe9nkRMmIXsUg8eDmODFkWnLV7+WFBtFhnCBf7vAhJNXaHBIhYssH76eEtHEeGrAqOH+Os3cjpiTLrDBHgfF60iNhFrBKe8HobBcii7lck97YHBNHTJycF0Rg79mXxJl4SoEHELmKXaPAqpT4kQNa0j3EiQ4z0KYI3Kt7kS3L6F38mQAO09io3ELuIW3LB2z/cIxxHhgxSVz5E7MZElyqiJyqC6JhjysaeOiBAHfzY9W4dWXPhoAAxSy54yxxHhuxRlx/mIbUY6dGyIHoTLz7MQ2yoZTp2Vw4IkIAEVxrUFgGyJNjbvV8QH32C48jiYh5i41IKzIPYReISC14lXCeMDKnu7SI+Fc1xZDE7/fM/4yE2zEbswgrJBO/UdcKc0IDMYG83fsRu/KYeYvvfuYkNVX7s6juJXdggmeAtV4hdZIZae4S93QR4nM6QiMrYcRl76l4BlKfvGlmzYp8AFkgkeHNadgiQBWZvd/1Dgvgx4U3O5CuPyZnn2FfPMj929766ZkW/AJZIJHi1ym0QIAOC2GWVIXbcrpa8cT94J19+TJA9xC5sFH/wsr+LjDCrDOYN8eM4MjuMFr/MyQ0ZQ+zCVvEHL/u7yAJWGRLF7Wr2OPWTz3JyQ0YQu7BZ7MHL/i6ygFWGBHEcmVXMiQ2nfnIX0es4Yhe2iz142d+F61hlSBaxax+OK3MbsYs0iDd42d9FBrDKkCyOI7MTx5W5idhFWsQbvOzvwnGKVYbkjfPAmq3McWVjTx0QuIHYRZrEvNKgtgjgquBBtW8IkqNLFdETFYG9Jl58mDN6HUDsIm1iDV4l6joBHMUqQ/I4jiwdzBm9RG96+bE7QOwibeIL3v7hHmF/F67yp7s8qJY8HlhLDy6mSKfp2N0tQMrEF7wlYhfuYrprB4I3XczFFERvehC7SLMYVxq8LQK4aNXPmO5agOuE08lEb+nUDwV2I3aRdrEFr1Ls78JNuXU8qGYDfYaH1dJq9Od/xhXEFtNKHSR2kXZxPrTGSgPcY3Z3/QkvkqdPc/5uWk3dxvZZotdOR6UitwqQcvEEb/+wid0eARzD7q49NOfvphrRa6Wj2lPbRtb0jgiQcvEE7yQXTsBBnMxgDfZ33UD0WoXYhVNiCd6cki0COIbprj3Y33UH0WsFYhfOiSV4tcptEMAx7O7ag+PI3EL0JorYhZOiD14unICDglWG7lcEdiB43VON3smR7wtic8yP3RuIXbgo+uDlwgk4SF3yhMAOulRhf9dRJnrNkWVcThGLY9OT3aIADophpYELJ+AY87DaG/5FYIlx9nddZy6nGH/hYUFkiF04L/LgVUrY34VT2N21C+sM2XDm6QNy5rn7BaEjdpEJMUx41RYBHMI6g100E97MGPeDl+gNFbGLzIg2ePuHC8KFE3AME167MOHNFhO9Y08dELSsSOwiS6IN3jIXTsAxJnY7zgjsQOxm08SLD8vJH/5B8FAbmmImu1uJXWRJtMGrFcELp6ieZwT2YJ0huypjx+Xkf/uEeBMvCRrCGgMyKdLgVUpdJ4BD1EU/FdiDCW+2eZMvyamf3MUFFfUjdpFZUT+0xoQXTlFLXhVYZJIJb9aZ6D35w09wbFltxC4yLbrg5YE1uKiXlQZrVLToCYIXUzi2bEHDxC6yLrrg5YE1uIb9XavoibIAM5kTHMyKA3u95yB2AYkyeHlgDa7p5HQGm/DAGuZSPvVDovc11dgdEiDjIgtebliDa1T3KwJ78MAa5mP2ek/819/J+l4vsQvMwIQXQDrxwBpqMHu9o8e+nMXzeoldYJZogrd/uEeUFAQAosADa6jT5CuPZe28Xq0971ZiFzhXNMFb4jgyANHhgTU0orrikIFTHKZjd+UhAXCOiFYaPIIX7plcLLADD6yhGeYUhxP/8juuTnursTsgAM4TSfAqJdywBufo4UsEligRvGiOo9NeYheoIaIJryoI4JrRFf6Ud5EgeUx40SqHpr3ELlCHqE5pYKUBTtLDlwqSp8fZ4UXrHJj2+rGr7yR2gdrCD97+YWIXztIv/qogYRXtl4oWICzVae/Ey49JmihP3zWyZsU+AVBT+MFbrhQEcNWLvyJIFic0IApm2jtW/HJqbmnzY3fvq2tW9AuAuoQfvFw4AYfpF34leENy2N9FlMzVxGbNwVxYYWv4ErtA40IPXqUUJzTAafrJ/06QIE5oQAzMhRU2hi+xCzQniofWegRwGFPeZDHhRZxsCt+J5/9++NWh3xoQAA1TEqb+4R5V1sMCuK77Fcm///MiHWcE8ar8coRrhZGY9p63S+eqD0j70rdInMaevlcmXnjIvHtMcrltsvObRQFQt3CD99PDW5TShwXIALXqZ5J7Dw9Ix638o1cESFqu40I/fN8vHT3vkFznhRIVM1UeLX452C2egegFGhRu8H7m5R1KcgcFyAj1pv93JHf1fazxxMSc0FD55QkBbNLmT3s7VlwXTH3Dil9dHpXxFx/2p7oPi66MzvUSohdoQMjB+8o+Jeo2AbJhRHtqa/5j/26jyqn9gsjpsZJUjp8UwFb5xaslv6gg7b1vD6bAbYsLdf+xJnJLp38oky9/O5jozhO6MxG9QJ1CDV71mVfNOsMWAdwXxK7c3TtkvpJ/8jd3Eb3R814dF++FmhEAWEPlu4MIVvnFQQCrtu5zvt9Erq6MSdkP3SYfihuWit4mN31rSADMK+zgPSpcK4wM8GO3rxq7VUH0qtwXRWlWHCJiYtdEL4BzEL1ADeEdS9Y/bD7IE7twnlbe7tmxa1TWfXVAadnqv2BEEAld8gTAeXolrx6Vr72Pj8HAPMIL3hKxC/cFsfvZlQPzfX9p3d8OEb0RmuQ4MmAeRC+wgPCCV1X4bVw4rVbsVhG90WHCCyxoKnr/7r1bBMA5wgterfisEs6qN3ariN6IeFoALKhXcrlH5cHttwiAs0ILXqVkgwAO0lrf0UjsVlWj10+0oqBl5gxeAHVRomU/0Qu8JrwJr6iCAI7xY3evfG5F09epmeitKE30hqHCdBdoANELzBBi8PLQGtwyHbv90qorvlokekNA8AKNInqBaeEEb/8wsQunhBa7VURvy3hgDWjKVPQ+cP3tAmRYOMFbEk5ogDNCj90qorc1JY4kA5qk/F/ZviAHt+8RIKNCWmnwmPDCCZHFbhXR2zTNSgPQCiWe7CF6kVXhBK+SggApF3nsVhG9zWGlAWgV0YvMCiV4lSiOJEOqxRa7VUQvgGQQvciksE5pYIcXqRV77FYRvY1hhxcIi4nefqIXWRJW8LLDi1RKLHariN66scMLhIxJLzKk9eDlSDKkVOKxW0X01odrhYGwsd6AzGg9eDmSDCnkx+4BK2K3ykTvRGefaBkSnI/pLhAVoheZEMJKA0eSIV2mY3eX2KZvYKQ82bmV6D2fZroLRInohfNaD16OJEOKWBu7VUTv3DyOJAMiRvTCaS0HL0eSIS2sj90qovd8rDQAcZg6veGB931FAMeEcUoDO7ywXmpit6oavaIHBQBipXYTvXBNGMHLDi/sZialo7nbJW1M9L7lq1u1Jwck65jwAjEjeuGW1oL3D4YLAtjMj109qrbKvt4RSanKuvt2ZT56K+zwAvEjeuGO1oK3jQfWYDEHYreK6AWQDBO92x+U/VtYX0SqtRa8ulIQwEYOxW4V0QsgITtlacejRC/SrLXgVaoggG0cjN0qE73iyT0CAHFS0kf0Is1aCl6lhCPJYBctRV1WO12M3aryuvtuF3MtMgDEiehFirV4SoPiBz3sMRW7W+VPeoviuPJbv9qfpejVJR5aA6xA9CKlWtzh5aE1WCJDsVuVtegFYIlq9B789YIAKdHiDi/BCwtkMHariF4AiTDR63lEL1Kj+eDtH+bCCSQvw7FblYnozYdxRw6AkK0hepEWzX8UKXGlMBJG7J7levQqehewFdGLVGj+wwhn8CJJxO55WG8AkBCiF9ZrPng5gxdJIXbnRfQCSAjRC6u18huFBQHiRuzWRPQCSAjRC2s1HbxKqdUCxInYrRvRCyAhRC+s1MqEl4fWEKcRYrcxJnq1p3eLCzryAiA1iF5Yp5Xg5VgyxGVEe8RuMyrrvjrgTPQCSBOiF1ZpLnj7h5nuIi5TsXt375CgKU5Eb14JgNQhemGN5oK3xHQXsSB2Q5L66M1xEC+QUiZ6H5evvY9uQKKa+yiiKkx4ETViN2RB9JZlp2g1Iimjckx4gRTr9X+X5lGiF0lqLni1KggQIV3xdhO74atced8hpWVr6qKXlQYg7YheJKrZ3ydkwovIaOXH7udXHhJEorTub4fSGL2qnbUGIOWIXiSmqY8gSskGASIQxO5nVw4IIpXW6AWQelPRe//2HQLEqMmRiWLCi9ARu/FKXfS2cxYv4IheUfKgPLj9FgFi0uQOL9cKI1zEbjKq0atFimI7VhoAlyi/JfYTvYhLk6c0ELwIj9b6DmI3OSZ6K0pbH72KB9cA1xC9iE3jwculEwiRH7t75XMr9gmSdcVXi9ZHLysNgIuIXsSimQlvQYAQTMduv8AOlkevYqMBcNVU9D5w/e0CRKTxDyEljiRD64hdS9kcvYvaBICzlP+R4QtycPseASLQePDqSkGAFhC7lrM1erleGHCdEk/2EL2IQuMfQZQqCNAkYjclLIze4OIJrhgGXEf0IhJNBC8rDWgOsZsytkYvANcRvQhdwx89/PnKagEaROymlG3R28UeL5ARRC9C1cS4hFvW0BhiN+Usil7O4gUyhehFaJp4aI1jyVA/YtcR09Hr//wfkgSpTs7iBTKG6EUomtnhLQhQB2LXMX70lic7k41ejiYDsojoRcsaC15uWUOd/Ng9QOw6qG9gJMnoVW1MeIGMInrRkkYnvAUBapiO3V0CNyUZvXnFSQ1Adpno7ZcHtn9BgAY19pGDW9ZQA7GbEUlG7+J2AZBpd8gD7/uKAA1oLHhVheDFvIjdjKlGr8ghiZHiaDIAonYTvWhEY8GrVUGAOWhRh4jdDDLR+5b7dmpPDkhMVBd7vAAMohf1a3QZjgkvzmd+W/u07BZkVmXdfbviil7VyYQXQBXRi/rw0Bpa48euHlVbZV/viCDTYote8+Aa5/ECOMtE7/YHZf8WhnKYV0PBq5TiWmG8htjFLHFFr+rmwTUA59gpSzseJXoxH873QXOIXczDRK94co9ESHFSA4DZlPQRvZhPgw+tsdIAIXZRU3ndfbeLuWkvIgQvgDkRvZhHg8eSEbyZp6Woy2onsYtaym/9an9k0cseL4D5EL2YQ/3By7XCmIrdrfInvUUB6hBl9LLHC2Be1eg9+OsFAaSR4D3DkWSZRuyiSVFFr1raIQAwLxO9nkf0IlB/8LaxzpBZxC5aFEX0Bufx5pQAwALWEL0wOKUBCyN2EZLQo9fs8XLNMIDaiF40ELy6UhBkC7GLkIUdvaw1AKgT0Ztx9QevUgVBdhC7iEiY0Ztb3ikAUCeiN8NYacD5iF1ELLToNWsNnMkLoH5Eb0Y1ErwFgfuIXcTERK/nVe6QFrHWAKBBRG8G1R28SqnVArcRu4iZt+5r+7Snd0sLWGsA0ASiN2NYaUDViNZqJ7GLuFXWfXWgpehlrQFAc4jeDGnglAZWGhw2oj1/snt375AACWg1ellrANCkqej92vs2CpzWwCkN3LTmKGIXVmgleoO1Bi6hANCcNf7vFBG9jmtkpYHgdQ+xC6sE0VuWnaLVSEN/YF5JroddXgBN6yV63VZf8PYPE7vuIXZhpcqV9x1SWrY2Gr2sNQBoEdHrsPqC9wzTXdfoireb2IWtSuv+dqjR6DUPrvHwGoAWEb2Oqi9423hgzSVa+bH7+ZWHBLBYU9HLlBdA66ai9/7tOwTO4FiyjAli97MrBwRIgUajl4fXAISkV5Q8KA9uv0XghPqCV1cKgtQjdpFG1ejVIsWaLzYPr63oEgAIgRIt+4leN9QXvEqxw5tyxC7SzERvRem6ojfXu0gAICREryPqXWkgeFNMa30HsYvUu+Krxbqi19y8xnXDAMJD9DqgzgkvwZtWfuzulc+t2CeAC+qM3twKprwAQjUVvQ9cf7sglerc4SV402g6dvsFcEkd0as68xxRBiBsyv/I+gU5uH2PIHXqCl6l1GpBqhC7cFod0Zu7kCkvgNAp8WQP0Zs+HEvmIGIXmVAjeoOLKNjlBRA+ojeFeGjNMcQuMqVG9OYuXCwAEAGiN2XY4XUIsYtMWiB6VXtOchdwLi+ASBC9KVLvKQ0FgdWIXWTaAtGbW7mY29cARIXoTQl2eB1A7AJyNnr935EaOufbuX0NQLSI3hSoHbx/MFwQWIvYBWbwo7c82Xle9AZT3nY+vwcQGaLXcnwESDHt6XuIXWCWvoGRuaI3f/ESAYAIEb0Wqx28bezv2sif7B6Qu1dw4wswlzmil2PKAMTARG+/PLD9CwKrMOFNoSB2P7dilwCY3xzRm1/VzQNsAOJwhzzwvq8IrFE7eFWFI8ksQuwCDahGr8ih4OvmAbaLOJsXQBzUbqLXHrWD1+MMXlsQu0ATTPS+5b6d2pMD5qu53q5gvQEAokf02qKOCa8ieC2gRR0idoHmVdbdt6savflLl7LaACAmRK8N6tnhJXiTZnYQT8tuAdCSs9GbV5zaACBGJnq3Pyj7t9BUCaljwkvwJsqPXT2qtsq+3hEB0LJq9KqlHVw7DCBOO2Vpx6NEbzJqB68meBND7AKRMNErWu81F1KozjYBgFgo6SN6k1EzeJWS5YL4EbtApMpv/Wq//yvg3twb2OcFECOiNxF17PDy0FrsiF0gFiZ6VZvayz4vgFgRvbHj4gnbaCnqstpJ7ALxCKJ3Sfve3IWLBABiY6J3WcfjcvDXC4LIcUqDTaZid6v8SW9RAMTGRG9uxaK9Oa4eBhCvNeJ5jxK90eOhNVsQu0CiqtHLQ2wAYkb0xoBjyWxA7AJWKPd9rV+tWrxX2tn2AhArojdirDQkjdgFrOK94/7+3OuX7OXkBgAxI3ojxBgjScQuYKUgei9aRPQCiFs1etfI4S2C8CwcvH8wXBBEg9gFrOa961B/riu/V8zPVgCIj4neR2Ski+gNERPeJBC7QCp473+oX9rVnUL0AogX0RuyhYN3Efu7oSN2gXT54D/s83/i3ipEL4B4Eb0hWjh4SwRvqIhdIJ1u/NYA0QsgAa9F79c+ImjewsHL8xphGtZa7SR2gZQiegEkYyp6ZaSP6G1ejR3eChPecAxrT22Tu3uHBEB6mejN6av85h0WAIjPGskrorcFCwevx0pDCIhdwCU7vzXk/8q5zX/vmABAfHqJ3uZxSkO0iF3ARUH05oheAHEjeptUY4dXFQTNInYBl+38ZpHoBZCA16L3739DUB8mvNHQuuLdSuwCjguid/Iq/2f8YQGA+ExF7+TkDia99eGUhvBprfzY/fzKQwLAfTsHR+TD39rm/8zfJwAQn16/0x6UthO3EL21LRy8WgqCRkzF7mdXDgiAbPnwt+4QT7iKGECclP8rzn6itzZWGsJD7AJZ95F/7BdduUHY6wUQH6K3DgsGr1KyXFAXYhdA4MOPHOJhNgAxey16D+4QnK/GhFdxDm8dtOi9xC6As84+zCYDAgDxmIpeGdtD9J6PlYYWBbH7Ryv6BQBmCh5m+8fd7PUCiJHyf83ZQ/Sej+BtAbELoCaz1xtcR8yKA4BYEL1z4JSGJhG7AOpWvZltasWBaS+AqBG9szDhbQKxC6BhZq/XrDiId6cQvQCiR/TOQPA2iNgF0JIb/2mfP+1dK6w4AIge0Tut1k1rBcFZxC6AUJhp743/uJYH2gDEgOgVJrx1I3YBhI4H2gDEI/PRO3/w9jN0qCJ2AUQmeKDNnNmr9wnTXgDRyXT0qnm/p3+4R5X1sGQcsQsgNgfft1E89aD/3hoBgGhof9y5V0rqLrnpHzLzSfb8E94zkvlb1rTnT1yIXQBxMdNednsBRMtMevsl731B/v43lGTE/MGbmX8Ec9NaD8jdK+4QAIjbysl+yeXeKFO7vYQvgAio26U08ZWsRO/8wduV3QlvELufW7FbACAJWwfNSQ7HpLJ8rf8r0q3CQ20AIqF2ZSV65w/eUjaDl9gFYI2b/k7kgtLA9C1tB4RpL4DQZSN6OZZsBmIXgHWmpr1FWTG5izUHANGYjt5vfECJ7hcXEbzTtKiDxC4Aa7HmACBSfvSOlx6VA4O9LkYvD60ZWo7KablVAMB2Zs3hxm8NSG7x9GkOHB8JICxqiyzpeMTF6J0/eL1KQbLAj109qrbJvt4RAYC02Hlo+jSH/FXs9wIIjZI+F6M32ysNxC6ANDt3v3ct4QsgFA5Gb3aDl9gF4Irzwlf730D4AmjBzOg9vEXSboEdXuXusWRajhG7AJxzNnxLW8XzthG+AFpiondpx3+Rka41aY/ehSa8bgavid0KsQvAYSZ8P/JPg4QvgBCs8X8deSTt0ZutlYZq7P5xb1EAwHWEL4BwpD56sxO8xC6ArDovfHm4DUDDUh292TiHl9gFgBnhy6kOAJqS2uidP3i1FMQFxC4AnGvO48yCCyyIXwC1pDJ63V5pIHYBYH7nhG/+qhlXFhO+ABaSuuh1N3iJXQCoTzV8zZXFleVrg/DV+rAQvgDml6rodTN4iV0AaM5NfydB+Ho92ySnZ15bTPwCmC010Ttv8ColyyWNiF0AaJ0J353fGjq758u6A4C5vRa9X/uI2GresxjUZ141v521RdKE2AWA6JgJzsttW0TldvkfPW6e/laXzvQB0LxjUtE3ivQcDT5htoxLKw3DWqsbiF0AiMjsY82Y+gJ4zRrJq0dERvpsnPS6MuEd1p4/2b27d0gAAPFh6gvgXMP+pPc9tk16XZjwErsAkJTq1PfGd/pT38kLZp3wwOQXyJ5eGye9C014j/pfbBS7EbsAYBsz9R3pKohUPiSeus3/Fv99pr5Axlg16Z0/eD/96jH/ewtiL2IXAGx37srDtUL8Alky7P9sv0PKyw8kHb1pDV6tK94N8vmVhwQAkA7EL5BF2v9Zvjvp6E1j8GqtvFvlsysHBACQTsQvkCWJR2/agpfYBQDXEL9AFiQavWkKXmIXAFx3Nn7VDv/tgyJnPw4RwED6TUWvWnxAdsa7lbrQKQ1WHSfjx+5uYhcAMsQcadQ+Yk4Luk4q8iE/gLdMfw/xC6SXlpzsFVm8N87oTUXwatF75Y9W9AsAIJuqR515Ff8dM/nV5sseIX6BNIo9eq0PXmIXAHCemasPItf6X1bPjSeAgXSINXqtDl5iFwBQ03nT3+DSpML09xLAgL1ii15rg5fYBQA0hd1fIE1iid65f/L3a1Hl4cSCl9gFAITm3PWHKwlgwDqRR+/cP9n/YLig2vUxSQCxCwCIjO4XOTTYI+W2jQQwYJVIo9eq4CV2AQCxmhnAkvOnwPpa/yPjxukTIAwiGIhPZNFrTfASuwAAK1RXINrUBvHUdcJDcECcIoleK4KX2AUAWKt6CkSlNDUFPncNwiCCgXBNRW9J3SU3/UMoz5QlHrzELgAgdWZPgbUucBYwEDa9T9o775QP/qeWo3fun5Sf8IO3Lfrg1Z7/f+TuFXcIAABpNnsXOOdPgVmFAEKgB/zovbXV6J3nWLLhjaqsj0qEtPb/D3xuxW4BAMBFc0XwuZNggxAGamo9euf+ifbp4S1K6cMSEWIXAJBJMyPYrENUTPzq1ewEA7W0Fr2xBy+xCwDALNXb4SpeQXR+I9NgYC5+Q+blVvnQu7So/kb+wHiDl9gFAKBO51ySoXvOnhAh0kMII7O0HJXTk++RW7YMNxK9sQWvP38+LH90wTYBAADNmx3C80+EDWIY7mkieuMJXv9vTI+qbbKvd0QAAEA0qqsRZT+E8+bINFkjwbnB59weZxDCSLcGozf64CV2AQBIlpkKf92fCuv2wtk94WBNIrhEoyCvHZ9WRRDDflPRu012DdZszGiDl9gFAMB+c02Glbpsak3CxPA502GDIIYl9IBcUNotWwcXfNXcP2A/4wevtBi8xC4AAOk3ezqcy62eEcQ9c6xLGAQx4qLF87bJR/5pcKEXtc35rV7F/ICWFv7Sx4hdAAAcMLUfaT6eD02/nW/mhFirQrAmUV2ZCE6VmHNKHPzZBWiN8n+87fC/HFzoRW0SNhO7FWIXAIDMuOnvzP8OLfiaw1tMNhek3DYVw7MnxYQxmqZW13rF3MHbnh+SShMXWVRj9497iwIAAFA1tWNZnH6bW/XINRO/M8O4onolp/0wnn64bu4H7aqI46xRennNl8z7HZ95dVjMD7h6EbsAACAus+M4+DZVXadY7hfO8nMD2UyR1XxdQySnmdb75MPfumOhl8y70qBF36NE7ZG6/kLELgAAiNFru8XmrVjXH1Ndq5D2nmDf2EyQvVzP9MRYgimyieKpFYt6Qvns340gKX6y6kO1XrTgvyB/yvu4/0WfLPyXIXYBAIC75pomV2O5zZ8km5WL6lT5vGAOFOr7CxHODdNyUD78jzfUetmCD63pNj9ky94ef9J7m5z/L0Fr80RcRd1K7AIAAGc1M02ebWY0G9VwDr5PTb3/WiBPT5uDb3wtoM95TV2T5/m4Eta/lHzuznpeWN//4U8MF6TN2+W//Fr/H/CIeHJcct7X5Y8uHBQAAAAk5+yqxrSZMW1Ug9qoTqSrzk6mq6+dYxo9M8SnXtRKbDfivGHrjPcPSX7yVtlR+5a1uf5EAAAAQGNmR/dZ0/vSc6muhcznvNAO9nWL0lH6er2hCwAAAAAAAAAAAAAAAAAAAAAAAAAAAAAAAAAAAADT/n9aOnKUXMilYwAAAABJRU5ErkJggg==;" parent="1" vertex="1">
          <mxGeometry x="414" y="192" width="28" height="28" as="geometry" />
        </mxCell>
        <mxCell id="okpZpmTV6SpFpqVT5AK8-8" value="Apache&amp;nbsp;&lt;span style=&quot;background-color: transparent; color: light-dark(rgb(0, 0, 0), rgb(255, 255, 255));&quot;&gt;Airflow&lt;/span&gt;" style="text;html=1;align=center;verticalAlign=middle;whiteSpace=wrap;rounded=0;fontSize=15;" parent="1" vertex="1">
          <mxGeometry x="304" y="192" width="110" height="28" as="geometry" />
        </mxCell>
        <mxCell id="okpZpmTV6SpFpqVT5AK8-9" value="" style="shape=flexArrow;endArrow=classic;html=1;rounded=0;endWidth=13.668639053254438;endSize=8.792307692307691;width=6.9230769230769225;" parent="1" edge="1">
          <mxGeometry width="50" height="50" relative="1" as="geometry">
            <mxPoint x="160" y="240.04" as="sourcePoint" />
            <mxPoint x="240" y="240" as="targetPoint" />
          </mxGeometry>
        </mxCell>
        <mxCell id="okpZpmTV6SpFpqVT5AK8-11" value="" style="shape=image;verticalLabelPosition=bottom;labelBackgroundColor=default;verticalAlign=top;aspect=fixed;imageAspect=0;image=data:image/png,iVBORw0KGgoAAAANSUhEUgAAAMwAAAD3CAMAAABmQUuuAAAA2FBMVEXkS03///8aGhrNREX7z9CWMjIAAADMP0D9+PjJLS7QRUbhSkySMTHXc3TjRkjsiYnDQEGqODniOz342NjaR0nbhYXKMjP67e0KCgqvr69vb2/81dYTExOKiorpbW8xMTFAQEDVV1hQUFC5ubni4uL6ycru7u7Ozs6jo6NJSUlZWVnmV1njP0HLOTqMjIza2trTZWaZmZl7e3slJSXzu7vnYGLfkZG2PD3rvr5paWk3NzegoKAtLS3xqqvsj5DpcnTqfn/vnp/85eXlq6vhm5vXcXLTX2DtlpcLhxpoAAAKNklEQVR4nO3d6VriOhgA4BY4pQNOnQPIJovKKovIoiPuojPe/x2dbtCkTdJ0Tzj9fvlAaPOSpV8CVEGkCzn38vo2FSIOpVOjrA8yBJpCtZdOqTRTlKgtKiYXREOB2b2rkMgdJuZ8IEeIUSkxSQxMLoDGDfMRI8XA5HK+NWRM7W4WI2WPyUWCGcTaLBbGr4aE2ZTipViY89Ax8VsOGJ8aPCYBi4XJlUPFlBOwAJiBHw0OIwsxj30bJjfYhYc5jXdOdmL8aDCY8yQ6GYzJDTynaRjMNIlOZsN416AxScxkToznNA2NSYbiwHjVIDG5hBrGgfGYdCIx78mMGBTGU5qGwsiJTMsYjBcNCpNYL0NiPGhQmO+kehkaQ590ojAdtjD0SScCIydFwWGok04EppbYkMFgqDUITCLJPxFDm3QiMAklmSQMpYaPlqFMOnnBUGm4wdAknfxgKDQcYdw1PGFc0zS+MC4azjDkpJMzDFnDG4aYQrOFEe5cMaSkkzHM1M1CTNMYw8wGQTSsYTbuGLyGNcwHBQabdDKGUd5dZwBdg05sGMMIUyoMRsMahmYGwGpYwyhUg0YLHjDuOQBewxqGup+hNMxhlFfqpnEkncxhBIG6ZRxJJ3sYD01jTzrZwwgK/aixJTYsYt6om8amYRCjJmg+NSxivEzPUNLJJIZmjYbSsIlR7rxoZLYxqsZLT5PZxgiKsKGfBXKMY7zNaTnWMcKsM6DnsI4RFOU0R8s5Zx2jjZxX2tY5Zx6jcmZvH4NzCpCWdLKO0ThK53ujglxEqoZ9jKANnln+8uf9x8tmMMBffwY7LjBaFPL5+Xyez+ezuMj/5AYjVLAKDjFCsXBEGLfG4QwjFI8JQ2wc/jCExuEQo07Sx4TBdTU+MZjG4RWDbBxuMagrKL8YROOEg6n8/jeKyLqc1j5Jh4IpnJz8E0Wc/Ov6LoaOKUYi0TW/XM8dNuZXNO2ih/vZC8eEAbpaGJhsdBjXQaNHIUSMEJnlxG0+M6MSIqbyz0k04Tr+92FcQUO6aGZ/RREVL28o5xkAHMVjwqiNc0wYQTkqzGmKYTNSDKuRYliNFMNqpBhWI8WwGimG1ThiTC33+XV/f3/m/X4glZAjMGZzWa3Otbj0epTf4W/M/A6E2VTn+y9yeMX8jmAX0H3THI+Rb6vWnq1HTCGSHc2Tgl9MLTvP+sZEs9fso6MZGDkLfVWIDQz1dqYNcwt/7ckjphINxvuMpmM+q9kgmGgmAB/TmYapzbPBMMKv8DHeO5mB+QqMYSQ0TNYeHGN21SPCbOy9jGeMY8jwjLl3fLeWY8xZimExUgyrkWJYjRTDavwPMEU+Aoch/F6I4ShUUJj87a1jIcBHVBCYn+Jnvspn66Awori5nevbs3lOwqEBMaIolx8+v+7PfvIRWbMrVdAYzmL3xxjoxWPA7Hf8CseBMbfJiseBES/z1qjhHvM5PyJMuWoNGu4xtRTDaKQYViPFsBophtVIMdgYLhpPy5v2atV+Gjd6iyGuXH+kl7tZjhujvu+zOcIbZtW2xRJ4ctHuSrbIXK/GI/sde3vNFlyoOYILjIATNKyH2+iHfWPslZUeD0/1ryWplbFHqy5J19AhnupS3VEmA1WuAZ5hgTz5NgyMva4X+2d69ioeQmoDBxhl7IcwjiM9W5VWMcAz3cPDQPl6M0rMCFlHAwO86z1E4+05Vl8DMRlpFTsmg6ukWhurlgs8WS13mAkgjPX6uDANQi0la04jkNVjHcYffLRWPWbMI6GW9cOrl6SGUdVjJCazH+0xYYaEWrausK+2l8ygMRmpFyemR6hm/TCASX0RrLSzoNFTQ8doAXQpEwP1H+iKWG8dOo943UKWAqq4xWDqkygwT+PxuAEMEBPTBK4xrW5vtOhrseg1ls3r/dsN98X6RcMo1B8DD0u4JtTfkbAxelw5MBOwsa4xLwP7onWxhR42Z2FEf9Tm7Zgw1zSYG7DWh74HY55wGO1ESWAeR+hseQL0xUPfs2FWOExGWsaFuXIM7fp182kEmy6AQhiM2arIaU9arOPBbJ1JppYuSxc3wGIFBGMwmRYBs+zGg2ljriBqIzX3zSND2SMGI+Ex9eZjPBjC5VDa54lDKswQf7jHmLpZn5TOmJp+UAwYUWKgwe0Io4b8YAhrs/2ES4fpM4ARt0TNkKuWUR8kLc+0hbPfCQCYkGPDqNMzdn2vn5puapbtmPoNaqMkaozYb2e0lB9xav3C7vM6Iz2hLzoRY9QYLbdrc5UCJTjP2pPPFOnM2olBboLEgdFjuBj1xktoJZaxvQyLmTgxQ9R0EBvGiLbjDW+is2ZocdZ2YvpQuh06puvEOHP+lWNXEqq1hQEXduZ+oQ2D2C4JjlnoMWoiVoyT+mTZ6wM75ENoJa1n9gsEZggdbb8PaMMg9ksCY+T9HgVw0P2yMtMyNige1bh4XNtKmacGtwCtHQ/waOZekx0jNu2a4C2D2Okztk2sabdlhK2U2XtWhOuqUW6Jwcj2rdDgmIkTI93ozxD3kA+9h5RbG+WGGIwj9wuOQSzBzL5P2gQENpERC1LoYPvtQifG3qrBMYhrsbmPfEPEHD7TIO3iaguf/ZyIwIhrqFsExzjff7OXoTogUMn14QjEdNiarlEYuCeHMDU75pR9NdfEtRnwmRjhcwBgKw2FgV8aHGPvJdLzEP0EGC0J+rhyjPm0sA4WQ2Kg1WwIGYDUskK9RBw+qxypeSWybdRSFwv4GP2Jc6mgFtuCH6A3gBNZmD74aHDMxXPXjMerVcNKYYa95cTIluv1/enq2r5ZdzVyHqXffjY+H9CLaX922/B3ARrr7iFa1lNj6+H1yn5UzxhiDPu9xnK1nUyu9Niuxj38dxp64/ZWKzjZtscjbDHPkX7dhNVIMaxGimE1UgyrkWJYjRTDahw95k/SlfIbNox235n8ZdKV8hu2n2npP0Gr7txfx2Tcwz+g0235s6Rr5S+Me7NZGFH/hXD1Iel6+QrjBoCChTF+hVr9TLpi3qP2F2wYHWPeq7H692EncxS18pf5s3MBwIjlH/pj+Xn1B09RNe9lVoQw4sMP1D0QOAnrxhPmHU7Leccd23gJ4B4nhxvpfs2rc/sNHTgI6PYm1l2B5YfPs1sj/uYLXIT9ts7KK+JO2jte76T9jcDUeMV8IDCy99uCMxGzDQIjTpOulr8o5VCYdz6bprRDYV5mSdfLVygiCsPnPwZQ3pEYkctuNtugMac8amYyGsNjP1NORTRGvOOvaUplHCbHXdMoHRGH4a9ptIbBYXgbNdqIwWLEb74unIpMwohTnjpaaSASMTytambfIhnD0Yw2exPdMOKGE82sI7pjxAEXmkO7kDFiecb+LFB6tepLxIi1O8YbRyltgOqSMepCrcRw4yilTg2srBtGrL2zylFK0wFcV1eMesV5nzE4dpTS3cZeUwqM2jqbt1JppjAiUhRlVpp+lJ31pMKoIZ+/fL/dMbAJVZx2Tj8GNWQl/wPp/O0ZGYMaFQAAAABJRU5ErkJggg==;" parent="1" vertex="1">
          <mxGeometry x="181.42" y="175" width="37.16" height="45" as="geometry" />
        </mxCell>
        <mxCell id="okpZpmTV6SpFpqVT5AK8-15" value="" style="shape=image;verticalLabelPosition=bottom;labelBackgroundColor=default;verticalAlign=top;aspect=fixed;imageAspect=0;image=data:image/png,iVBORw0KGgoAAAANSUhEUgAAAgAAAAIACAYAAAD0eNT6AAAABHNCSVQICAgIfAhkiAAAAAlwSFlzAAAOxAAADsQBlSsOGwAAABl0RVh0U29mdHdhcmUAd3d3Lmlua3NjYXBlLm9yZ5vuPBoAACAASURBVHic7H15oCRVdf53q9/sDPvmCq4guKNxF1RAVhWTGVkEt8hioglCIEZN2p1lAJNgVH5mc4kGYxaTgBFkBtnciGLExCVgWAaGRWBYhpn3us7vj/fmva665557by3dVV3n++O91+eec+/pr2+d73R11WsDhULRCBzQXzvVWzTYabHZstMg7W1verRtClpp0mQHmMG2lCYrTYJtQbTcGOxARAmM2Y6AKRBWgmgxgBVz020HIFmYnRIQtiPn6gQAm0F4ZMj4IAEzAAYGtHHO6xEAmwHcbwibiGiTMbgvhdlEwCMw9EAC2phS7z5DdF+K9Ne9xYP7XrHlx/f1+/20Sr4UCkU5mHEnoFBMMl539r+sfHSw9HFIsGtC5nFE6W5I8BiQ2R0wO4FoZ4B2ArALwAg0zf+wMG8lt6zPe5JrlqGZiLWKPgujZLkysz0A4D4AG0C4m4y5G6A7DcxdaUp3I6EN6QAbkl7vjnX9I+9xPx+FQlEFtAFQKArigP7aqcUrtjyhR+aJSM0eqaE9DPBEpHgigCcS8ESAlrPBZP1h66Yg/gvDZcV/wYdNb/hROfFfeMQ/0bzpUQO6lZCsJ5PeCpjbiGh9ArqFEvN/y7Dkpkv7h23kM1IoFCHQBkChEHBAf+3UNsunnzRIe08F0qcS8DQCPTWBeSqB9gSwKBOQ0UKnYlrOxcRf9pl1dGaxMFMJ8c88y+rEn5ud87kXoJsIuNkAN5HBTSalm2emBj+/ur/qVsD4uiOFotPQBkChwKzQr1gyeGJqzL4w2IeQ7muM2QdEzwCwvGLhgl/8HWsgTvxlr1aLf+YBM/UWGPwSoBsN4abUmJ/2YG6k3vTP1vVXP8RPrFB0C9oAKDqHA/prp5Yspb2SZLCfIbMfwewH0PMBLJv1GKtwudcAOiT+fh9nE+XjkHATAdcYQ9cnlF7/4KJl/3l9/8hHWGeFYoKhDYBionFAf+3Uim3oOUTpC0xq9iNDzyfgWQAWFxMu22dkwiUnlfUUP/e3xZ0Vf2cq5Ho6TmNMAyC2LiU/PnFwOAPgJzD0rQTJN5Y9sOyqS//8sM18AgrF5EAbAMVEYdXFF/cevGXH5yeD5AAg3R/GvBLAytnRiRMu3jNS/J1ZOZ+Kv0HIPGofhw+D6IrUmG8khi799kdX3+wJUChaCW0AFK1Gv99Pvrds/+cbkx5ACfYH4ZUgbMv5tlW4FobrFn+3z8JoJzn8Hgx9obdo5ivr+sfq7YmKiYE2AIrWYdXFF/cevWWXlwyIVgH4TQCPU+Ga9ZG9bGVrivhb87M+Y+dwAKK1ZMwXNi1e+g963YCi7dAGQNEKvO7sq1cOzOZDAHMUDA6j2f90N4dJFy7ZZ9Zxom/3g59DZ2J1cXivMfhMMo0L1527+k55YoWimdAGQNFY9Pv95LvbvOK1CSXvBOhQAEsBFS7bUTwHgfaL/8KDBnK4GcAXDXD+VZ9Y/VN5EYWiWdAGQNE4HHH+tx5H1Hs7KH0HCHsMjzVLuPw+zgZg/MKVfaQc+s7DMHlnVzLApQOYj177idXXyQsqFM2ANgCKZoDIHL5m7WEwyYkAHQ5Qb7zC5QjMLFv23b8gXO6ksp62vtszycLlSHDW6NBhp7Ep107UyaEzq61/kvlHJOn7rv7E0T/3LK5QjBXaACjGCyJzxJorjyBDfwJgvzlj5lfuT2lg3qjCVUC4rBn8PGcedY5Dtw+AGYD+amqQ/IleI6BoKrQBUIwF/X4/+cE2+7+RgD/G7D/mmUOpojtnbqdwLQyPVbjmzF3ncMGHTW/4kczhQyD6xKP3bTz3+otOmvYkpVCMFNoAKEaOw9dc8UbAfAjAM+3RSoqu4FNcuKz5WZ+6hWvWZwTCJfg0nUPZZ9ZxxHdNGPzYIHn71Wetvl5OTKEYHbQBUIwMh513+dNN2vtTGBzCe6hwNU64uPmz6YjjeVPH75qYMcb8xfKZzX/0zTUnPCwnqVDUD20AFLVjVf/GxZu2ueuDBJyJ/NfnzqPtwrXwYAKFi5+tRg7d5ong8OdJkrz9qk+86RoxV4WiZmgDoKgVR5x3xXNAyecBenZ7hcvv0xHhyqcj+lTG4bxB4NCdVNbTpsmeycqbeeR4/o6nwxlnCPT+a88+5lzA+BJXKGqBNgCK2nDEeVeeANCnQbR8JMLF+tmBTblgraXCNfuoAxw6s3I+FT/PmUcEEJl/7fUGb7n6rOPuc6amUNQEbQAUlWPV+dcu20RbPgfQsfUKV7GiK43baalwNZXDheG6OXT7LIyW4vCXiTG/dfXZR9/gTFGhqAHaACgqxes+eflu6WDqnwF6ccOLLh/UKuFa8GHTG37UWQ5nfVrA4SZD5m3XnHvM34upKhQVIhl3AorJweEXXPXkdDB1nV/85zD+oiuYmiBc7RV/z8LWeDEOncNDjvXfNeEI5Gdzc7iMDP3dy8740u+6VlIoqkZv3AkoJgOHnXfV0xMM1gLYo27hqrDoOqZU4Ro/h25Q9ofg6CO6PIfM03HP5n+iBmQOe8JLf2vZrdd+7XLXqgpFVdCPABSlcejZax/fmzLXAnjC5N+nvvDAPTU/R6xwiW1Eozn0+zgbgM5wyARmHpq/Wbxi93eu679qxpWBQlEW+hGAohSOuvDynXpT5jLMib+McRfdEOHyTRv+ztYabqFwxcKXfX4Nga3oqPAs7BGWQyG+HEvyGgSAkL518yO3f2nVqov1LK2iNmgDoCiMA/prp2Y2T30VwN7jL7oqXHUIV1Mu+lsID2syvRyGdHvhJ4Mkj+Ickll9257TfwWQnqlV1AJtABSFsc1Kcx4Br2pG0c35d064uEUFc53C5QwrxqGQkD2JyCG/eMyJkDHcNXHCi0//u0/w2SgU5aCnlxSFcOT5V7weMBcUFa6GF91cWBuES24Q2n/Ff0jX5+PQdmgDhwZ4+RNe+luP3Hbt167lM1MoikFPLSmicdS51+w6nUz/F0C7tr3oduHb/TLPspUcyj6zjhPPIZExb//Oucf9jStDhSIW+hGAIhpbkulPAqhd/HMVUh7HOITLjRDNmnWcdOESTMEc+sXfO1OjOXQuOwxjiC56yXu/8FKXu0IRCz0DoIjCYWuufGViaB1o9sIk8b1bo4tuiHARP5OcWLRwtZdDv4+zieoMh0xgCIcZc4bDW6cpef715x17Dx+kUIRDzwAogtHvU9IzdGH7xd+5rDxHxjwC4RIt/ne93jMLJeDLPr+GwFZ0VHgWdXMYAl92UeIPAE9YZNLPo9/X2q0oDd1EimBcv+23jybQs4CmF11p9rAc7L/48Zio8Cz8DZJvqZBeJuMS0UQVFK6cj4dDvWsCAoeHvmjjU97PBysU4dAGQBEGIkOUfrBc0a1CuMZWdMcqXAFUDJl9PDeTQyEhexKRQ35xthEdA4eeha1xbmpj0H/RaZ9/OT+JQhEGbQAUQTjygisOAmFvFS4BKlwowyHxCbGOspft0CQOK7prIgHM5w7o//VSfjKFwo+pcSegaAcoTU5pmXDdZlL8Nwx+BsJGMunGWXOygwHtkAJ7GdC+ILNzPr6YcDmHM451Cheq57Bi4XIjnEP9kqStMMBej26cOhPAh/hJFQoZeheAwovXn3flE2YovQnOhrF80WXqn3s2vjIOYOgyk+KrhPSKb7zv0F+5VhvGa8/6xr5IcRAZ8yZD9GJ30eWTp+wPNxp/tXpZ4Vp4oBzyJmf2DIdusxW/2aD33OvOO/Z/7IkVChl6BkDhxUyangTTVPHHgyBcODXoferfPvCa212ruPAff3jIjQBuBPDJA8++7BnJID0NoBMALFLh8i4rz5Ext4hD1/wl4Ms+v4bAVh5LUgw+C9ABgCmXpKJz0DMACi8OX7PufwF6sj0yVuEagOhTtCT90H+895Bfu1YogsM++u97TJve+QZ4o7cU13DRH8uhPTBv9Otw8QZAFC7mxeOnbjqHORZbyCGldNz3Ljjh7/hFFAoe2gAoRBy65vJ9EvRutEfGKlw/Swy9+ZIzD/4BF1UVDv7oJUfCmL8EsAubVe1X/E++cI3mrgm5EW0rhwvDBBj87Im3LN33q19dPXA6KxQ56F0AChGGpg63rf539tyfDo/YonvxYrPshXWLPwB88wOH/Wtvip4P4Do7vVEIl2Rst3A5ErInETnkF2+K+HsWtsYLi//sg71ueeKjxzqdFQoG2gAoRBiDI9iBsQiX+dSLH73mmK+f+fIH+Zmrx6VnHnZbbyW9ioB/nM+sklvVoMLlg5dD2yGGQ3+jWo7D0XxJUsb4xwf01+p1XYpg6EcACicO/8RVO2DRzF3IXCxarugWFS4DOufSPzz4TG/SNeGA/tqpqUWbv2qI3hDyzrZu4WI0xD3byIXLmdiQcHWdw4UHVXJogLd95/wT/oZfXKHIQs8AKNyYmn4pKhT/wu+4iP720jMP+kM52Xqxrv+qmYeXbTwWRNeIjq3/ZroQ4XKYKhR/j0PDOXQuK8+RMRfjkID3AaRv7BRB0AZA4QQl5gVDj8ZSdA3M9WbFzEkw47/F6br3rt5kBr03AriDdWj87X5yyDiFKz+RyKFo8c/vPbNQAr7s82sIbEVHzeHpLzn1C6/0JKBQANAGQCHAkHn+7F9jE66HZpL0mEvfc9jmgHRHgm/2X3uXMfQWOBgZn3CFwJfdWIULW/eZl8PCZ5jCepmMS8S7f5FD5gDgp/ZwGHB2JCW83eOkUADQBkAhgl44TuEimI9cdsbBvygYXhu++f7DLzOELyxYmiBcxU9bN0W4inAYQMWQ2cdzMzkUErInIYAMrXru7//19h5nhUIbAAWPw85ZuztAjwEQdla0euH6+baP/vqTASuPBYNk+gwCHvQL1xxUuCSHCjiUm6yO3TWxbIkxq/0Biq5DGwAFC5PQcwCMr+ga8/Gv9ldv8Wc6Hnzr/a/fYIBP+4XLduiWcDmHM451cug/w1KOwyZ+SRLBvC0gStFxaAOgYEHG7Dm2omtw693bb9/4f2s6PUMXECBcn6DCVdXZAffSfg6Zp+OerXIOBZOcWFkOX/SSU//2cXKgouvQBkDBIiHsOfx4lEWX0vTz15/0gumANMeKdf3D7wTw7/zo5AiX26ca4RLPITSaQ+ey8hwZc20cmoHrn3gpFHPQBkDBglLaY/7v7AhnzIyXLboJ9Rr/7n8rjEm/aFvHLVxySKxwCRIlWAPe2Yte9gjLoRAfQktR+LJHbnwcHFJKh3kmUHQc2gAoeBizJ1B10Q0qyTdf+kcH/jTEsQmYntnmMgBDZyuaIFw+WS0hXMK70oWmJey0vlf8QzqVkBMZFb/7FzlkOrdxcWgM9l+16uKeZyJFh6ENgMIB2sMpXIWLbs6fqYwGWOePbA7W9V/1EGDmvpiou8IlJGRPUkD8A6gYMvt4nnQO5922+9XjHn6Wz03RXWgDoLBBZADsyo85Qioruub7/gSbBQJ9b+hBbowNcM0TFdi8K/5Dur4g4RIeyk1W+zl0DmccZbcFB0PJywNmVHQU2gAoLBz655eupPx3AAz9yqPSokvpzwLTbA6Ifs5V5SYJ18i/mY51rP8LfhyB/Gwj59ANyv4QHMPODszD4HmeAEWHoQ2AwsLUI4uG/ovYaIvuYAo3+zNsGIy5SYWrYuGyZvRzyDwd92yVcyiY5MSiORRbMYtDeq48qaLL0AZAYWG6Z+YagNEXXdOjB0JybBKMMfcPP26WcDmX9WOswsU8qo1DOSSMw/Ami48KaJBEL3tk7qXZRy8EVLigDYDCQmLM9uMSrm03bnwoMM3GYJDOPLj17zqFKxY+yciv4ZOomKjwLBzCFTF/OZbkNUbCYZ13TRgsvemxj+o/BFKw0AZAYYFAO3o9alr7USyb8ns1Cz1MLQbqF66mXK0+EuHKD4Scga/4DEqdHAoJ2ZMU4HD4oTGDJ3sWUXQU2gAoLBhKlgMYS9EdLN9mW3+GzUKS0ErnoAqX1014KBhzLVTLOCQ+IdaxHIcEg+x/9VQotkIbAIUFIkyNreimM7sEJdkgDCjdlX33PwYOPQtb4+MTLtuhWxw6h4ccq7lrwqSGv6VX0XloA6CwkJh0EWcfRdEd0ODpASk2CgSz1/Cj4V+cN/eny6i3+zkzEXzGzaEblP0hOIadYXEvPcShoZ09kyk6Cm0AFBYo8z8AhqzMny5j8aKb7OPPsFkwwDNm//ILF6MhmfHMo8qFSzA1Ubgc8fVy6FzWDzmxaA7FViyCwxTwXNOj6Cq0AVBYoNTkzgCMUrjolSE5NgqEV7RDuMLf2VrDYxAuLr4ch3KIL/t8gMBWdFR4FvYIy+EQDMwSz6KKjkIbAIWFJMn+F8ARC9dLD+ivXepNsiF4Tf/fnw7QE2WvSr4kyRM9ecKV9y7HkryGmD1zAPDb3MPhmO6aMITWHE+K0UIbAIUN2toAjOUrVZcvWbL58BqXrRTUG6xaeODwcT5w+Ec0UZMhXNyigrniRrRODoWE7ElEDvnFA6gAmXSxb1pFN6ENgMICkTHAGItuao735dgYkHnz7G/HsPc8vQqXr0Fo/xX/IV2fj0PbIYZDhYKDNgAKFmMVLoMjDvrIN58WkOZY8eoPff1QA+ytwhXn0CTx78ZdEwoFD20AFBZSDBYejEe4er1kcLqQYiNgYP7IXXSbLlxuNEe4xs2hYArmsJozLO6l/RxqX6BwQRsAhRtjFC4y5u2HfOzSZ/uTHA8O/NDXfxOA47vW23C7Hz9HI4WrFg6dy8pzZMzVcCieQ1DxV9QIbQAUPMYvXFOpSf4MREbIciw4oH/xNgRzPj+qwlW/cJWTNV/2+TUEtqKjwrOwR1gOhXgVf4UP2gAoAuETLjmkmHDR/gd/4punBaw0UvR6yy4EwNz6N5a7Jlgvt+fohStuPKyXybhENFFi9kyDxE/t4bBpd02kAfMoOgltABQVwVfOigoXffygj3/zZYXTqhiv+dDX34EUb+HG/MJV/N1/m4UrgIohs69rbCaHQkL2JCKH/OIxZ1D8HCoUs9AGQBGAsRbdRYYG/3LgR/7tGQGJ1opXf+TrrwbMX3BjKlz84tUKV3EOPQtb47EcEp8Q6yh72Q4q/oq6oA2AwoNGCNdOSdL7j4M//h97e5KtDa/+yNdfbVLzLwCsf6rSfuFyDmcc6xQu1MxhN273U/FXxEEbAIWARgnXEwylVx340UtezE9aH17zoX99k0nNJQC2sUebLlxuUPaH4Fi/cDFPxz1b5RwKpgo59M5UK4cKhQ1tABQONE+4CNg5Meaqgz52yZmjuDvggP7aqQM/9PWzAHwZAPOFKm0QLn6O9ghXWQ6dy8pzZMzVcCieQxghhwrFVmgDoPCiYV+pOgUyZx30sUuvqPO6gFd9+N/265kHryOYMwEwzcYovpnON23NwoUA4RIt/vm9ZxZKwJd9fg2Breio8Czq5lChcIP53neFYgFBwjXsP/TT5+X2DCq6BxiT/OdBH7vks5ieOuey/sHrY/J04TX9S/YxvfQDRHQ0jDEucS9fdH2S0ADhst+Y2jOFdCohJzICCG3KhZML4XVzyC0qmPXdvyIS2gAoItGoorsUhN/D1MzJB370kn8whM9vv9dD3/rq6tUDewY3DuivXTqVPPI6gN5CGBxCNHdmrKKi2xThEhKyJykgXDH6o3dN8Iuz7/4r4lChyEMbAIUTLSq6SwxwHAwdd//PVtx/4Ef+fR0MXWOo91PTm7lpgOm7d9wy8+Bt26K3cuN2K6eTzbv0TLIXgGcYwv4pHn45Acv4nPNptle4iE/I9mqYcDXvromQ0xU+Dm2HGA4RyaFCwUEbAAWLFhfd7QG8AWTeQEhBgwQGS3BfbwlWPExIk2n0kMwvl+YnEJ9K24XLOZxxbJJwNeHi08xwEIfNumtC/xGgwgW9CFBhw6oYdRfdKoRr3PdYt0G4fI5hZwfcS1crXHrXBB9fjkOFYgHaACg8GEXRFaaYiKJbHYdun2qES2zFGs2hc1l5joy5IRwK8d4mV6GIgDYACgEdKrqjfMcVwqEjQGArOirvKXIoWsoKVzn4skduvCkcOsdD+sEAQvXdv8IHbQAUhdDWojt64fJlF94g8W+KPRzWfqtaFcJV/N1/mzkMoGLI7OO5QCOq6Dy0AVA4MJlFV15UMLdIuISE7EkaL1xt55BfnG1ER8mhQgFtABQsmOuGteiKkzfviv+Aoq8c8vH+4Yyj7GY7xHCIOjhUKOagDYDCj9YJV7miW7dw6V0TzGwj59ANyv4QHMMaVffSfg6Zp+OeTcVfEQltABQyRl50ffmocLkw0cIVxaFgkhOL5lBsxZrGoUKRgzYACjcaWnQFh+YVXV8/IQ5wPpMuXHJIGIfhTRYfFbDPRC97hOVQiFf5VowC2gAoeIyy6DZNuFzzl4Av+/waPomKiQrPognC5cuuZg4n9a4JhYKBNgAKEZ0UroD62ZSr1SdeuEbAoZCQPUkBDgOoGDL7eC7OoUKRhzYACicmQ7i4RQVzJ4WLX7wpwlU3h8QnxDqW41Deqyr+ilFDGwAFi8kRrnEX3TYIl+3QLQ6dw0OO7b74VKHgoA2AwoHJF666i67e7sfMNnIO3aDsD8ExrFF1L+3nkHk67tlU/BUVQRsARTgqLbq+tZr1larjuVVNmKIDwhXSczghJxbNodiKjZVDOUT7AIUEbQAUYYgSrmqKrphM64Ur/J2tNTypwmVFB+wDKQWvNWx+kUPR4p+/vED7stMWQOGGNgAKP5omXKKlbNEtVzBVuELhbqLE7Jl9xvdnHg67fNeEQjEHbQAUEWiIcNVadHP+VRXd1ggXt6hgHqVwleRQSMieROSQXzyAiiGzb6+q+CvqhzYAChkNF65WFN1WCZfcILT/iv+Qrs/Hoe3QCg4Vihy0AVC4ocLlXtwyqXCV5VDvmmBmq4pDhYKBNgAKHiMtuvUK19iKbjCHbnReuHx9lzOf3HCFjap7aT+HzJZwzxbNoXNZhYKFNgAKG+nWP6oQrkkvulUIFz9Hdzh0LivPkTFXw6HYzo6VQznEmb2Kv0KANgAKL+oWruYWXRUuocVhZ4uFL/v8GgJb0VHhWdgjLIdCfHkd9mWnSq+IhzYACgfCizJvnYSiK80eloP9Fz8eExWeRbHX0OkRQGhTLpxcCA87O+LlMPIdudNccSMaxmHKjys6D20AFAwWCkYzi67/bfj4i24zhSuAiiGzj+dmcigkZE8icsgvHnMGpUkXnyoUeWgDoHBiPEVXhUuFKzseyyHxCbGOspft0CQOYy4+VSg4aAOgYDG+omsv06SiW79wOYczjnUKF2rmUG/3Y2YbJYcKxRy0AVBYsD4x1KI792dZ4XKDsj8Ex7CzA+6l/RzKbyDr5lAwKYe+ZRWKKGgDoJChRTc/e0xYzsDPEcuh2Io1mkPnsvIcGXOLOHTNXwK+7PNraE+gkKANgMKNNhbdQsIlhzRCuLyl3x5hORTimy9cPmvDOAygbKTXnygUOUyNOwFF87Bleumfr1jy8OdgxrP+A5bFl0hkovYCY8Z4EiL0DjMwX5z9OzPgjx2lcAkN0kJ42Bkmr/hHNodOc8VnUFT8FXVAGwCFhXX9Vz0K4NFx56GoF694398/TJR739o04Yo4wyQ4eMSfXzzmLFSjLz5VKBzQjwAUig6j0cLlEX/iE2IdvR9vlPwIyhHIzxbJYZ13TSi6DW0AFApFQ4XLjWBdG8GdJ8zTcc9WOYeCSXVf4YE2AApF19FY4RI+96/wowF3LuMWf+ey8hwZs3YBCje0AVAouoyWCVes+Hs+QBAs/ubBe2ahBHzZ59cQ2FIonNAGQKFQVIY6hSv8MrdA8S/8mX5YL5NxiWiixOz1c39FhdAGQKHoKgacsfi7/zqFayE87LR+rPgHnAgZMvsahGZyqFDkoQ2AQqGYQ8OFS2/3g4q/okpoA6BQKNBk4QrWNa/42w4x4u//aKAch3XeNaFQcNAGQKHoPJorXJT9ITiGnR1wL+0Xf+bpuGernEPBJCemvYHCCW0AFIpOo+HCFSH+4jmERou/c1l5joxZ4ND6ek+FYhbaACgUnUX2KsDGfUmSvEpm3PMBgmDxz1/nO2hf9siNx7zH13f+Ch+0AVAoFA74ZLVm4ar9C3783Yy/lyn+7l/kMPjjk7IcKroMbQAUCkVjhEtIyJ6kgPgHaPiQ2dcgNFP8hYQUigz02wBLYFX/4sWPLNnx8YNF2KlH2C41ZhGl2MYgXQaYpSbFNmTMooWI3I3XEZ/NpbEB7AR8fPisaaEU2NvNnfPELZBakxfkKLX+KDaTnZC8nGu01Oe2YcEDYF9D8Z9Z1ylcs8MBwiWKP794zOf+bb7dL6Q3CAXdeuoyTPXeU81sI4bBJhia/VZTMhth6F4YugcJ3YWdtrvDmH7nr47QBsCD15199cotvennGEqfC+AphugJgHkCiJ7wsDG7AzBJCqSYraQGAGj2++lnf209EgnD31tP2YeQCsbCuwXme++jCgYTn0lIAgFkPHXFrsq5Z+1IcKs5vuiaQA6t+dkkyTZl5gkQLiNwPOcjvxKzPA87xAuXEXwWjAbxwlXnN9MFC9cIvuDHEcjPNnIO3aDsj/IwS5fDbDmrmsnGgGFOCbPHVmqADQ9uoTtPuxXATSD8GMB/waT/id22u7FLjYE2AEM4oL926TYr8GKi9AUE83wYPH8GW56WEM1+VELAfHE1w7LW9ncLVbzjmvSiq8LVCOHS2/1ciVUv/pONxQCeAuApMDho1pQAGx58gDacdi1SsxagfzePOe+n40yybnS+ATj8gsufjEFyIGAOBNEhBKykzLu4LhRdD/QrVZ3ojnA5l/WjKuFq/O1+ckgYh+HHuzWs4l8FtgPhUBg6FMA5dOdpN8Pgq4D5ktltzY/HnVzV6F4DQGSOPG/dywg4mkCHYAZPmRsY+jnvDMaYGW++cFVTdAWHCRCumotuw4QrFr7s82sIbEVHhWdhj7AcCvHlpdOX3bg5i0KgQwAAIABJREFUVBTAk0A4A6Az6M7TfgyTfhpm8xfNrn/x0LgTqwKdaQAOPXvt45MEx+G8de9IgaeNX7jkkEYI19iLrgpXHcLVlKvVF8LDmkwvhyEHTUhPXXEjWieHQkKKSkEA8GyQ+TRo6Vm04b2fASXnm93X3DXuzMpgohuAQ//skiXJlmVHA3grYF4JzH2Wr+8WwuYfe9HN+Tek6I5OuLhFBfNECpePQ37xACqGzL692lwOiU9IUSksfrdDSmcCg3fTHb//GcyYj5knXPDrcWRWFhPZAKz61NptNm3CO2gLTgfw+Fnr1hexu+8W6haurhRdR0L2JKWFS96revEp79AtDp3DitJwvbbz9uWAeS+m8FZa//sfwWMe+ZQxF02PLr/ymKgG4KgLL99pelPv3Y9sMu8GaEenowqX5KDC1QLhQs0c6l0TzGwj59ANyv5QVA7utXVxTTvC4ALcufxtdOfvnWh2/9Pv1ppahZiIBuDAsy7bbunUovdPP0rvIoMV7oNC3y140XnhcqNJwsU8HfdslXMomKoSrk5cfOrz4Z1V/OsGt7E4ri3bs0HmGrrj99bg1zv8sdm3v6WW9CpEu/8VMJE54rwrT1i6aNHPAPoDAlYIzipcE190qxCukkW39Rw6l5XnyJir4VBsZ8fKoQxf9vk1BLaioxRlQCgh/lvjewDOxI73XUO3vudpFSdYOVrbABy5Zt0Ljzj/ymsB+lsQ7SZ7j7tgVCdcbp9JL7odEi4hXvYoJwrNEK4ADkVLWQ5D4N6LYvbMPuO3uYdDveivBnCvKdMQuHztA/sF6OG7dNt7XlNBcrWhdR8BHPpn395lajo9n4DjAJjmC5ccEitc3S260uxhOdh/8eMxUeFZhOcX1A8GENqU60/ChYu4w9WeKfIYc5orbkTr5FBISFEKrtezsPAP/7EDEnyD7njP75vH/NmniudYH1p1BuDwC9Ye2JtOf0TAmwGYdgiXL7sSwtWIoluFcDWz6NbNYQAVQ2Yfz83kUEjInkTkkF+cPZ7HwKFnYWs8lkPiE1KUAvd6Em8PFn8rfgqEC2n9u/+UaFWvWJ71oRVnAA7or126ciX6lJo/wHzTosJVf9FV4VLhyo7XJlxeDm2HJnHYiLsmFBFwibfHj7MzrzEz+B7csfvjiU48ukm3Cjb+DMCR51+x7zYrzXcI5kwEiz/m3YSHglGLrmvxJhXd+jl0Dmcc6xQuvtAIs41cuNwI51Bv93OBsj8UpUEoJ/65+DDx34o34o7FXyHqN+aNd6MbgCPPv/IdRMn1AJ6TGdB3C3y8f3jIUYuuC8FFt/VX/Ps4FExyYh3i0LmsH1VxqAgE91oyDYHL19k4RMW/EXfc+1dE/UZobyOSsEBkjjhvbZ+IPgdgSW5MhcuB7hTd5giX2Io1mkPnsvIcGXOLOHTNXwK+7PNrCGxFRyliwIg0wVEHOUHP2eYfhsYP+c6uezzW3/O5JjQBjTkVsRUHn/sfKxaff+UXAfMGa7D1wuVc1o82Ft1CHMohtQuXvEpmXORQtPjnr7PsN0O4RsxhAKFNuf5kIVzFvzy419DFqyDcmYcF47P74m1Yf/ddAP7QMdlIMPYOZBivO/vqxy5JlqwD4BR/fbcQHxWeRROEy5ddzRzqXRMQOaxEuMpyyC0qmFvEoZCQIhqMIAS/68/Fz7sUiM8MZ/zOoNt/52gmcGRoTAPw+jXf3iedmvkeAS+wR/XdwviL7uQKl5CQPUkBDgOoGDL7eJ50DvnF2eN5DBx6FrbGYzkkPiFFFBhBFsXbE8+Ld1i8vG8MQH9F60/Zj5lkJGhEA3DYeVc9PTXp5QAeZ4+WFS7bVTRr0XXnIqTSZuEKLroqXHy8fzjjKLvZDjEc8oVbmC2Sw0ZcwKsQwL1+TEPg8nU2DgXiM3vC6bsMZL5Gd7x7F8ahdoy9ATjinCuflmCwloDH2KNVCNekF90qhKtc0W0/h87hIUe9+NQFyv4QHPVLklwI5lDhACOyBEd95AQ5Z5t/GBo/5JsZDorfA+ngS+O4KHCsDcDrzl/7VPRoLYDHsg41C1fzi64KV1OEyzvTxAsXP0d3OHQuK8+RMZfkUOEA99p5RFqyzb8WMfH5/RkdfxBuu+vdzGCtGFsDcNiab+0xIHMZ2NP+GIlwNb/oClNo0ZVRsXCJrdhYOZRDmiFcARyKFv/83lpRAr7s82sIbEVHKXxgDr5mXejnj986ZOgsuuOkfRin2jCWBuCoCy/fqWd63zLAnqxDJ4Sr5qLbRuGyosdddMctXCHwZdcADu2tZs8UctD4DpmQdBB3PIscMgcAP7WHQ73orwAYQRXF2xPvFW8h3rsBhfjs0FIMzF+O8jsDRt4A7PfZHyya3jJ1MQFPYR1ChEu06LuF1gpXo4puE4SreCNaJ4dCQvYkBTgMoGLI7OO57RwqbHCvGdMQuHydjUOB+Mw+iIy3CgABwIuxfqfTmKBaMPIG4LEPPfSnILyaHw0UrlqLbs6/IQVjdMLFLSqYJ7Lo+jjkF++KcBGfkO1VmkN5r7b/4lMV/zgwIktw8MgJcs42/zA0fsg3MxwZbw1Zz+lDdOtJT2OCK8dIG4Ajzrvydwg4hR8tJlxdKbqOhOxJtOjy8fPDAUXXy6Ht0C0OncMZxzo5tAq5NI54DhvxJUmKIXCvl0ekJdv8ixATn9+TBeKDNgstBXAuM1A5RtYAHLbmylcCdD4/qsKlwlVF0a1CuPSuCRco+0Nw9BFdnkPm6bhnq5xDwSQnFs6hYgjMZmnrhX6i75DN4PW0/sSDmckqxUgagMPOWbt7YuhrABazDjUL12QUXQ8mXrgEkwpXfvaYsJyhpHA1/uJTH4fOZeU5MmYV/2rAiKQo3p54r3gL8d7XX4gPKliMbYAL6v7q4JE0AL2p5HMAdmYHtei6EuuQcDmXlefImCdduOSQUhx6xskznvcUORQt/vnrlE5f9siN+9iKiVLkwdUMpiHgmgQuniJ887bMgRsZbx1/UfH74Pb172AGK0PtDcAR5617JxEdzg42vuh2SLiEeNmjXEFrRtFtg3D5sivBobDPFrZpWJPp5TDkoPEdMk6f4sezyCFzrNbDoYIVSYKDO5eNmIcBvvl5M8OR8dZQRDwNHUiED9Nd79qGCa4EtTYAR5575ZMAnMePtqHoSrOH5WD/xY/HRIVnEcFh4aKb829d0VXh8r6wersf6udQ4RRDSaQl2/zrUqB5IMYWGh+y95yNg2XfFY9On8w4V4LaGoB+nxJK8NcAVtqjWnTHL1zconnzpBddH4f84k0RLs/C1ngsh8QnxDqW41Deq+3n0DmsmAezQSb9Qr+M2dU4EJDgdLr11GXMoqVRWwPw/W2/fSpA+9sjxYSrKUV3coRr0otuFcJlOzSJQ71rgplt5By6QdkfChaMIIri7Yn3ircQ761PQnzQ5nA1Dh5fwm7AQ7/NOJVGLQ3AoWevfbwh6rODKlx8vH8449jtoqvC1Qjhav3Fpz4OBZOcmIp/EDiimYaAaxK4eIrwzdsyr2dkvKUPMeLP+bG+Z9Av3r2EGSiFWhqA3iJzAQD7wgUtuk5o0Q0wKYe+Zf2oSrgafwGvHBLGYfjxzkep+PNgRI7geBFdNmIeBvjmbZnh0Pg5uzUUEe885e+MfzyWPfJWxqEUKm8AXrdm3UEg/JY10PqiW4VwTXrRrUK4ShTdFnIYC1/2+TV8EhUTFZ6FPcJyKMSXl05fdjVzqBf9OeAQQ6f4eWzzx3yB+MyBGtl8WDUrIj6q0ck8PI0IhnEsjEobgH6fktTgbGugYUW3ne8W2lB0pdnDcrD/4sdjosKzGD2HTbn+JFy4iDtc7ZlCDhrfU3H6FG9E6+RQSEgBgC3yE3GhX2C8dKGfK9es29Nwy9tfwzgXRqUNwPXbXHkcgOdlrc0ruiE5ZEdqFi4tuhA5bIRwcYsK5hZxKCRkTyJyyC8eQMWQ2bdXm8sh8QkpOJETxdsT7xVvIT5IvB3xIXvN2TgUfK4AMmdITPIuJqgwKmsAVvVvXJwafDhrVeGqv+jyHHal6DoSsicpLVzyXm3/xacBwuXl0HboFofO4Q6De00YkeOEj4unCN+8LfM6R8Zb+yhG/Dm/wHhrk9Pr6KZ37MEEF0JlDcCmbe8+zgB7LliqKLqSsd3CFVZ0VbjaIFx8kRFmi+RQ75pgZhs5h25Q9ocCACtyBMfx6rIR8zDAN2/LDIfGz9mtoYj4+Av9cibWt4eptLJbAqtpAIgMCKdlbfUW3fYLl3M446hFV5iiIcIl1pbaORRMVQlX6y/gdS7rh5yYij8Lhxg6xc9jm+e3QHzm9YtsPiw9iIgveqEfEMCVeSf94MRFjEM0KmkADj//20cC2HfeoO8WnOhO0a1CuEoW3dZz6FxWniNjroZDt9e4OZThyz6/hsBWdFQ3wWwGvdCP8WVs4Vzthl2mX8s4RqOqjwDOmP+rE0XX5zPpRXdChEu0+Pex7FFOFJohXOPmMATuvShmz+wzfpt7ONSL/ubgEDSfyLviveItxAeJtyM+pNY5G4eYtfKmgIZo2GbMccxANEo3AIede8WLDOhlAFogXHKIM3vHhupu0ZVmD8vB/osfj4kKz8K/z3xLhfQyGZeIJqoZwkV8PczPFHmMOc2FjufxcCgk1FGEClqgyFGEb96WeW0j460NGSP+nF+M+MfG0xvof0/cjnGIQukGIEmSP5pLaOgnhyYIly+7EsLViKJbhXA1s+jWzWEAFUNmH8/N5FBIyJ5E5JBfnD2ex8ChZ2FrPJZD4hPqIBiRIgiC5omffxgqiEO2zHCkoFpDEfH1XOjnjycsxaKZoxjHKJRqAN5wwdo9ARxRXrhsV9HcyaKrwqXClR2vTbi8HNoOTeKwEXdNTDwcYugUL49tntgC8ZnXNVJQrWMvIn6Up/ythwTQoPTHAKUagOnUHA9QokV3FEXXXqZbHDqHM451ChdfdITZRi5cboRzOOkX8AqmYA673gEwG0Av9GN8GVulXJlX0S1vfywTFIxSDYAhHFd30e3Eu4WJL7pVCJfP0Ud0eQ7FWtMI4eLn6A6HzmXlOTLmkhxONDhBCxAuV7xXvIX4IPF2xAcVIVfjELNW3lSWKyu+B9DrmeBgFG4Ajrhg3UsA2kuFS5iiE0W3OcLl9mo6h85l5Tky5oZwKMR7a0UJ+LLPryGwFR3VDbgEjfMLEDle0NxrORuHyHjrmIoRf84v8LnWdYaExtQAmJn0eNljEoquz6chRbc2DuWQUsLlGQ8vugEcipaywlUOzRCuCjn09Skh6SDueBazZw4AfmoPh5296G8j4gSNs0UImmUfsmWGIwXVGoqIL3uhX1ST4mp0XPH0arr5rdszDkEo1ACs6l+8mIxZPRLhcs1fAhNXdB3x5UuWL7sSHFZSdInbavZMIZ1KYeHyNVFNF66yHHKL5s0+npvJoZBQd6EX+oXHj4arRUjoYMYpCIUagEe22fkIAnbiR8sKV0jRzfk3pGCocKE0h0JC9iQFOAygYsg86cLl45BfnD2ex8ChZ2FrPJZD4hPqJgiCGAaIt5NrT3xmODLeGoqIb8yFfgHxpvjHAAU/AkjexNt9wmW72mYtutziXRGu4KKrwsXH+4czjrKb7RDDoVXYpHHEc9iIC3hbAAOaKRy8ePkivdAvIr76C/388YTDin43QHQDsN9nf7AIEE45dLroViFc5Ypu+zl0Dg856l0TLlD2h+DoI7o8h2Ltr51DwVQVhy0BgR4tHDyTLuFmDBIpp6AFxFOEb95m1asI8WY3S+BzHd8Zku2x4+aXME5eRDcAu298cH8AzEUHk150VbhUuJjZxiJc/ByxHIo7utEcOpeV58iYS3LYJpDZUjg2pVwDECBSXkET4jNThQrinM0aihDUohc1zrsVjPc+VyF+eDgZHMg4exHdAJjEHMkm1eiCUUXRFabohHA5l/WjM8IlhzRDuAI4FC3++WWPcsLqyz6/hsBWdFRbQQYPFg6eGm4AAkRqfg/GCFr+zwLx1jEUEd/8C/1sm8VVchAT4EV0A0Ap5RYad9GtQrhqLrptFC4retxFd9zCFQJfdg3g0N5q9kwhB43vkAlJB3HHs8ghcwDwU3s4nMCL/hLgnsLBhB2DRGrexeXnEW+xgAnx1lBEfJsu9PNyRS+k/zt2ByZQRFQD8LpPXr4bDPa2koLLUrboljsYG1N0Ra+GClejim4ThMvXRI2HQyEhe5ICHAZQMWT28dx2DtsJgrm3eHC6Mzcjf0x5hI+LDxJvR3zI/nE2DjFr5U0BIp+x5bkqGC9z1UOa7M9MICKqAZiZTl4DwGQSqLXo5vwbUjBGJ1zcooJ5Iouuj0N+8a4IF/EJ2V6lOZT3avsvPp1M8QcAY2hD8ehkl+xjbpNwghYgchThO2yz3CPi23uhn+A7ZzMUfR3AVIxzYsyrMgWto0XXkZA9iRZdPn5+OKDoejm0HbrFoXM441gnh3xRF2aL5LARX5LUZgzwq+LB6c6z7/lcGyRCuNnhyPigF9i1XwrkmjEVjB8ZVya6AYi9BuAVrly6VXQnX7j0rglmtkYKl8/RR3R5DsX6VjuHgklOLJzDlmPR1MzNxaOTPfkNQuB5CxW0AvFWjY+ItzZeRHxjLvTzxj+dfnn8royjE8ENwJFr1u5MwNO16Mo+s46TLlyCSYUrP7s3zO1TUrgaf/Gpj0PnsvIcGXO3xR/Afd/71O8WvwbApE+e/3teh1xi5BFv8TUR4q2hiPiy/8e/Eaf8g+MNpgYvZwaciDkD8HKATLMLRhXCVU3RFRy06LZeuOSQMEkh5i93DqFReU+RQ9Hin79O6fRlj9x4PRy2Hwb4SckZZhsAryBxNu44jIwPFm/GNnkX+snxBIDMKxgHJ4KvAUgJL5NTUeHSr1QNsU6CcPmyC99n/Db3cKh3TaB+DicDBCrcANDNb10K0OPdfLo45PZPgO+wLUj4HfZg4WfstT1XT3wh4Z+zZ4eiGoDwMwCGXupOZxRFV5o9LAf7L348Jio8i/D8ihfdnH/rim5Z4eIWFcwtEi4hIXuSAhwGUDFk9u3VtnM4SUh+VDh0yQ7PBKEXLkiEzAvpFcS8fc4WJP5cPCLEn4mPEv9cfLT457jy+jri80OGnkP/8/aVTACLoAZg1fnXLgPhBfxoFcLVzIJRt3Bp0c1NInLIL07cozFw6FnYGo/lkPiEWEflUJiiS9oPIKX02sLBNPPsOEHK/+kQaclm7YWI+G5c6AeRK8IUFm96MRPEIqgBeDjd9EIAi6WUVLj8bu6Hk150qxAu26FJHOpdE8xsI+fQDcr+6Aru//HuG35aONokz8kaPCKVGXb5ucQ7PxQRP7IL/XK2+YeRz9UarpgrkwRfCBh0DUBC5mVbl2hS0a1fuJzDGUctusIUKlyohkOfo4/o8hyK9ap2DgWTnFhXxR8ArkG/n5aI32/hT0HMrGGPb94WLN6MLWAvOm3OYyYgXtxPoVwViA/iKn2lY2ILQWcAUpiX2Etp0dWi60ysQxw6l/WjYg7dXuPmUA4J4zD8eOejOif+MMB/FI2duwDwBbO8eQQp8xpEirf1GkeIN3usBop3u27vC+Rqq838Bv3gxEXMRBaCGgADekGzim5zhKu5RbcK4SpRdJvGoWv+EvBln1/DJ1ExUeFZ2CMsh0J8een0ZVczh5266G8BlOIbhYOXrnwRkP8qYCAjPN5aIYhUSL1yCWLXL/TzxtNy7PLQsxknC94G4MizLnsiAY+xFqpNuOSQ2oVLXiUz3uyiK80eloP9Fz8eExWeRcUcBhDalOtPwoWL+PqQnynkoPE9FaeP73geD4dCQp0AGfzPjz578i9KTMB8juwSwxhByw9FxuuFfmHx6eA3GEcL3gYgTZIXiQvlEil/uPnKWc3CpUUXIoeNEC5uUcHcIg6FhOxJRA75xQOoGDL79mpzOSQ+oe6A8KVyE6QH5yec/8W8Plk/l3jnhyLi9UK/8HgiIDVBDYD3IkAy5oVWAlp03ePMMl0puo6E7ElKC5fcILT/4tMA4fJyaDt0i0PncCdgUvx90Vj69Ynb4dHZ677cdV8QPs4WLN6MLbiAOsSQRUC8uJE88aLwe+Kr4MrgRYyDhZBrALKdxAQKV3VF116mW0V3/MLlLliO2SI51Nv9mNlGzqEblP3RUdC1pU7/b176WgCLMvsk89pECpJVgyLEm90AgeI90Rf65c0WV3vTzW/YnlkoA7EB6Pf7CYDnT75wOYeHHLXoutAkDsVjr3YOBVNVwqV3TTidVfznYEy50/9ER/D7JFTQ5mxBB4EgaKxvQLwo3p54r3gL8UFcOeKDuWJsPFcG6dL9mIEMxAbg+yv23weglc618wOtFa5JL7pVCFfJott6Dp3LynNkzNVw6PYaN4cyfNnn1xDYio7qEKZ7M+biosFzt/+9bvbBvBU8r4LNOi7KCFpEfJcu9HM2DnPGgI8B5GsAzGA/kGl40fX5THrRnRDhEi1+0ZA9yolCM4Rr3ByGwL0XxeyZfcZvcw+HXb7obwFfvv6ik+4pHL1k5WEg2m7BECpGc/aQ+uTcBwWFe95URvhj4ofs3jo6Tq7IeyGg2ABQap4njJYULhladMujVRyGdCo+/QhJB3FNVDOEi/h6kZ8pZDMV5rB4I1onh0JCXQRRkpxTcoqjh/7mxt22woLm2tyh4u8Rackm7i1PvCyAcvxouHqhI7F5iB8BkDHPcYx04N1C2aJbhXA1s+jWzWHw/kZuJ7aIQyEhexKRQ35x4h6NgUPPwtZ4LIfEJ9RNGPzzDZ868cai4XTrqTuCMPf5f55TzjZnt4YEX8vEbe7AeILjtQ+In3cpEJ8ZjowP4soRH8/VY+mXR+3KDM7D3QAQGUPENgBtFS4hIXuS0kVXMqpwuRZX4bIdZS/bIYZDqyhK44jnsBF3TXQEZoBzS03Qmz4eoGX2gCByIfvBJXJ6oV94fFGuksXPZZwWhl0Dh5y1bg8AO9jTa9EtW3Tbz6FzOOPYbeFyI5xDvWvCBcr+6DyI8K0ffvbk60pO8k7GyDkyQ5zIC/HsCx4Yrxf6hcenqeMs/iyc1wD0Enp2fjr9StW5STovXD5HH9FdEC5+ju5w6FxWniNjLslhd0BITL/UBOvf/QpQuu/wlK6lwgqH67UtKNzzpjLCHxM/ZPfu2QZz5fwYfxbOBoASep7ziTe26ApTdKLohnPo9qlGuMRWrNEcOpeV58iYG8KhEC97lBNWX/b5NQS2oqM6CYO/u+EvTrq61ByUnjb0gHNwDEWIVMDx6rTphX7h8RmuqNhHAEQY6hy06I5fuOSQWA7rKboBHIqWssJVDs0Qrgo5DOkHAwhtyvUnC+Eq/kN40CTTZ5SZgG4/ZS8AR84yLAiStXEiBIl9oQPFWy/0k3PNuFl+e9Otq5jrOmbhbAAM8Myts8qHW7mDceKKriO+fMnyZVeCw0qKLnE9kj1TSKdSWLh8TVTThassh9yiebOP52ZyKCTUbRh8+IcXvnt9uUmSMwBitGBOeEL2gEvk9EK/8PhSXDmbhB62DH+0kwXbAKzqX7wYwJMs4Qo49ppSMFS4UJpDISF7kgIcBlAxZJ504fJxyC9O3KMxcOhZ2BqP5ZD4hDoO89+9GfOnZWagO07eE8CbmZHMr4UHMYLG+QXGs4IWGE8RvnlbZq9Gxo+VKyHeGOfHAOw1ABuX7vy0HmhKhYtfvCvCFVx0Vbj4eP9wxlF2sx1iOOSLnDBbJIeNuIC3W0gNzCnXX3TidLlZen8M0OKs0SVIITYIghRgc77YocJfMN5bD1wbsAVcEfbhF3c0AIlJn1Gn+AuTNky4yhXdbgiX3jXhAmV/CI4+ostzKNbG2jkUTFVx2DEY4OM//PSJV5aZg2496WkAHT9kyfyy7CG2gP3ltOmFfuHxMVwZPMPh7LgLIMEz5udpZNFV4VLhYmYbi3Dxc8RyKO7oRnPoXFaeI2MuyWH38L1kYD5cepZe7+OgrRrACVKEyAS/k2Xsztc4IF7cQ5547x4V4gsLP0bPFbkbAP4iQDJ7u+dsQtEVpuiEcDmX9aMzwiWH1C5c8iqZcZFD0eKfv07p9GWP3LiPrZioDuN+EL3p+otOKnXqn9a/6+Ug/OYsvzGClrdThKAx8VGClouPFv+h+ELiH8sVY6vnQj9f/BPohuNXME6uuwBo7/EJV4mi20LhikUzim4bhMuXXc0c6sWnEDkUjtVwDrsHMjj5R5855Vel5qBVPRBdCJCZNWRG84YhO2NjX9jAeL3QLzy+6K2Qsw8TLH/k6Ywj0wAQGQB7BSUVARUuR0Triq4Kl3cf6F0TqJ/DDoLMOTf8xcl/X3qe9bucBOA5tn5EiIzzfvWAeIIgaJ74+YehuQ7ZMsORgtp2rhJiPwawrgE47Nx1uxGBPV2QWaohBWN0wsUtKpgnsuj6OOQX74pwEZ8Q61iOQ3mvtv/iUxX/PAjmKzfsfsf7Ss/zqxMfA9DHwgWJsQUf0A4x5DPz28S944kXhd8TH7L3m84VYW9uJqsBSM3gScazOZpUdB0J2ZNo0eXj54erEC7boVscOoeHHPXiUxeCOewe1j08tfmt6PfT0jMtmvoUiLZfMESIjF7oFx4/slshc3YXV8aENQDJgJ5ExjgXbV7RHb9wNb/oqnDpXRPMbJVzKJjkxMI57B5+giVLjvrlJ0/eXHYiuu2UVSA6asjCefG2gP3ktEUJmusAKBBfSPxdx9iouIpoyGK4opT5WJ9pACgxe7omambR9WAEwtX8oitM0Qnhci7rR1XC1bCLT1t5AW/3cDMRHXLDJ992f9mJ6JbffSww+Iu5Ry4v3hZcWEIFLTBe3BOh4l8gPmRPN4mrsCbpSdws1kWAhvBkbrJWvlvohHDVXHQbL1xyiC/7fIDAVnRUeBb2CMuhEF+ndDaDw67B/Hc61XvlDZ855fayMxH1EySDvwWws1skHIIUJGhMPCFC0HICucDzAAAgAElEQVTx8w9Dcx2yZYYjnuvWOuatrQ3kSvSdx0q6ddWOeQ+rASAz+x0AGVuXhUuIlz3KFbRmFN02CJcvu/B9xm9zD4d61wTq57BroO/3Bnjlj//8nbdVMt36DacBODBAJBZspT7DFkTWZ5vfLwXiM/sxUlCtg2gCudo8bZ0FYG4DxJ7MbMFoq3A5xwsX3Zx/64puWeHiFhXMLRIuISF7kgIcBlAxZPbt1bZz2Dms3bR58Wuuv+ike6qYjG5/10tB9NEoQWJfyEBBKnq/+rxLgfjMcGS8NRQRH8wVYxsHV8bW9mwDQGQAenzWJCSSM7VZuLTo5iYROeQXJ+7RGDj0LGyNx3JIfEKso3IoTKHanwXhy9P37HjIz/7qHQ9WMt3N79odlH4VgP1lP5xI6X/0C48f6bv+PFcF44msMwCZiwCPPG/dTjNDm0WFiwtte9GtQrhshyZxqHdNMLONnEM3KPtDAcwQ8IEbPnPSOYB9E3YR0I2rFmNR+jUAj82NcN4RL6JL0ArGi/vAM6/YOHjiQ2pu1Vw5n2tAvPhcPfHzw0b+CCClLbvPhzZOuJzDGUctusIUKlyohkOfo4/o8hzKta9uDgWTpyir+OdAuA0m2f+GT598dmXiTzDYbuf/B+Clwws5xTvoQGDiCRHin4uffxi41rAtMxwaP2e3hiLiy3IVLN4MV6KvED88TLRn3jNzBmAGvd0TkBZdR/zEF93Wc+hc1o+KOXR7jZtDOSSMw4B9IlpV/AHAAFdMz/SO/cnn3rmh0olvO6UPQycsGAQx5OwhNv2PfvJaGVNDuDLYI++dOQOQpNitzcLV3KJbhXCFN1nWcNM4dM1fAr7s82v4JComKjwLe4TlUIgvL52+7EpwKOyzhW2q4g9goyHzez/c7c6DqhZ/uu3kt8LQB+cewSlI7IsXKEh6oR/jy9iax9XuyCH7j4CIHsPMKubo8yklXPIqmfFmF11p9rAc7L/48Zio8Cwq5jCA0KZcfxIuXMT1SPZMIQeN76k4fXKvSkM4FBLqIv5txgze9ZNP/86tVU9Mt5/0ehD+HwAjiiFnD7HV9V/qQsQwZq1hW8gx0EiuCsbLXO1Ivzh0iXnapfP/VTLbABizezZxXzmrWbi06ELksBHCxS0qmFvEoZCQPYnIIb94cH1BroVqGYfEJ9Q13IwUv/ujz558SR2T0+2nHAiirwCYChe0CJHRC/3C4p3PNSA+ukkasoc1SQZm8a4A5pvPzEcAlNKu4iStKrq8cHWl6DoSsicpLVxyg6B3TfAO3eLQOdwF3EvAB3sD88zaxP+2k18Nwj8DtNQp3kGCRradECH+ufj5h4FrDdsyw6Hxc3ZrKCK+7Rf6+eJNmvkYIH8GYHs3McO/2lB07WW06NqOdQoXv8GF2SI51Nv9mNlGzqEblP3RNdwDQ5/qzSQXXH/RSQ/UtQjdesqhAH0NSJcxo0F7xmkb+2nsAvEhNVZqHGLWyphawlVqMh/z568B2Ja9E6VxwqVF14XgoqtfkuREDIfemRrNoXNZPzyFp7Pib7ABwJp0+fJP/3jNCQ/XuRTdetIbYdIvw/pHP3DszUCRcL5uAfHivvDEe3VGiA86yF01I9TXdTy1iCsD4QwA0h0AkzU1ULi8MzW66FYhXCWLbus5dC4rz5ExV8Oh22u0HMbCl31+DYGt6KjJhLkewEXLljz8hesueO+mulejW0/5bZj007BqOCeGc/YQm17oFx4/9nf9gWsN20hqAIxZGbSmby2nz2QV3ZHeY10Vh97Sb4+wHArxssckCNe4OWQiIpooMXtmn/FTezjsxkV/P4Ghr/Rmkq9cf9FJ/zuKBYlgcNvJZ8GkZzCjgWLosDfyrIEw78Q9V098IeGfs28dMrTL8Eiue8R27uW16Prhy64BHHLHTT4+pFPx6UdIOmijcJXlkFtUMBdqRMfDoZDQRICAR43BVSBzCSXmkhs+deLPR7r+ncevwO0r/hqGVtmDoYLg2hsF46MFzVVDIuODxN+1zzvMVWoyGr/QABAZnH3Ztnxs24tuFcLVzKJbN4cBVAyZfTw3k0MhIXsSkUN+ceIejYFDz8LWeCyHxCfUVqSAuYmAGxLCDwjpVQ8vmv7BL//8PZv9odWDbjnxKZgx/wTQs3IjEQcptzdcr1eooBWMF8XQEx+yn13xQY2Dwz4JXBlsP2yZbwAO+NC6FVg693jiiq5kVOFyLT7hwrUFwMNzI/eF3XliPBympTjkD3phtlQet0d9HC5MGDl1uE8DQAZbDJmHYYiIcI8xuBcp7kGC20xKNw96yc1YtuxndV/EFwq67cTDAfMFADtkBwJFnrM760pAvChInnjvMS3EB4m3a4+H+rrq0KRw5TgD0Fs8WBK2KNgnFStcs8MhRddf1jomXKHDGcc6OYwWrkgOC158ehsBNxrQTUTJTcakNyWG7qBBcnc6Y+767p+/eSM/qULRDNAPTlyE3ZL3A/RBZP5ni+uADhW0wCaBs0ULmqs2RMYXFv9xc1UwvjauiG8Alkz1FqWDdCikCcKlt/u5QNkfgqOP6PIcijWhdg4BA9xDwDUAXQMkP0wXzfzwe594y72ujBWKpoNue+fTAfNlgJ6fG4koFqGCFhjvrDcB8XKRcM87cc/VE19I+OfsYU0S3wBsSWcWb32g91gzs9UgXE54DpZYDsVWrNEcOpd9FKB1MPi3NMXa75533H9X9VWqCsU4QdRPcPsdvw3gfAArcoNcRJgtStBcRaFAfCFBc9WdCEFUrly+/DUAi5JkEQ0GUtH1TA7Pk58k4ZJDYjkU2BKsAQ2S6GWPsBwK8XUqrpU94SEy9M8JmX94CIPLs5/PvrnGTBSK0YBuOfmZuP2OvwTwG7mRoDrltI39NHaB+BC9ccUHiaHDPvlcbUsEY+YuZ5pvAAYzM4uMMcIE9gLdFS5fdiU4FDbRwh4JmN9VM4ZnCulUfL2e08fXRLk67wyHAwCXEuiL09s8/K/X9096xJGwQtFa0J3Hr8D0ij+Aofch/1/99DR2eHxr3vUP2UfPVYLbVi0FvroJGGoAEuotJjMQc1XhcgTZwiVMW4xDISF7kgIcBlAxZPbxXJrDDUT4G0wln/nOWcf8is9CoWg3Zk/333kCBvQJGMp9V7vrIA4VtALvJK2HBQSxkKC56npE/Fi5Khgv8uyJL8PVlvsWA8g2AGkyWGQY9+YIF794U4TLs7A1Hssh8QmxjuU4lJusmjn8CZl0zfT9D//d9RedNM1noFC0H3T7KQfi9jvPAeh5bDEIKvAO+zjOGoTUwWDxbvhzzfxZB1dCfBVczSxbtNU03wCYlAiJ63sAmiBctkODhAt61wQzWziH14HMx65dc/QlejGfYpJBt550CIz5Y1D6Et4h4p0cayoYHy1orloQGR8kaK7aqlwFx2fXXbL1r4X/BNhD9gpAFS7nuD1lWfF3g7I/BEcf0eU5FPd9AQ6J8FOA+tede+w/zAr/Ma7FFYrWgqifYP0dh4PMBwD8RliRHrKH2Fp/GjsyPriQKleWOZ2xzwAkaTqdmp5zHhUu3hTSczjh2RCxHIqt2Fg5tLCeiN533YpffBH9fgoc5w1QKNoG2vDbu2HL1Ntw24YTYcyTnAeY/pe68PjWvOsfsjeOq2T+QtP5BoB6ZoA0P5drYnm8rcIVC1/2+TUEtqKjwrOwR1gOhfhyLGXWmAbo04NN9EH9T3yKSQRRfwq33XEwTHICpukoGCye3f+h72Th9rUXc2Xht0ULmutdT2R8YUEbN1cF4z1aORauyNgNwEy6aLqHge3sWGIShaspV/wvhAdw6Hqth2cSGiR3gow54AAUOLzKYPDOa845/meubBSKNoJoVQ+37voymJnVuP3O1TBml+xxEVqkI0Si6MVv0cI/ZA95c9ik5zr/sIlcCfGFhR9hXC1K7Y8AFg82DwbJlBXQTOHiFhXM5YTLkVY94i8kZE8icsgvHtxEI9dCFeaQHgHw4WuX/+Lc2dP9CkX7QRt+ezfMLH41QEfgdhyCZLAjkL+PqkSRdtmiBM118BeILyRorjpesaC5bJ3iyiUGjDFN5+vwwjUAWDozwEwmoLnCJTcIersf7zBqDg3MNYPEvFnv5Ve0GUT9KWy4c2+keB5S83LAvBLTtPdcg+uK4m3BHThXgyLXsh4WjBfF0BMfUjeDuYqIV67c8Qlmtj6abwCmZ6Y3Df8PqrYKl7sTc8wWKf56ux8zm/1EB4BZ8+j9Gz+o9/Mr2gBaf+JyYNnOSGceh4SejBRPRmKeAqJ9sf6uZwJmqX2Mh747g6M2hgp/5FrBguSJ9wqSEB8kSOPmylUkJ5yrmd58TZ5vAO55zM4P7nzvPXy4R5SaJFxyA1a3+AumYA59jj6ix87h+sTgTVeffczVnkRHBrr33dtisPTJoPTJIOwB0C4AdoVJtgXRDt4JFNUinf+RA7fhYj41Cnp3thhbv2TH0PYgLAKwMwjLgenZs/iEud8E9/ESUXgDjiOnbezvZAPXGrZ1lqsC8ePgqmfmzwBkPrR67ce/sYmApXws/+RihcvtNXbhEkOc2TsOFN482Rwa4JpkambVVR8//g5nijWD7jx9BZC+GMa8DITnAXgOgCeNK59uI7RIBxbORhTpyPjgdwKhzzUgXnyunvhCwj9nL/pcgZr2Rdu5csSX5Wows4fZ9/JbgOF/BDSLjRhuAEYpXKLFMz8CziyUgC/7/BoCW9FR4VnUzaEMQ+az969I3nNj/5gtJaaJBhEM7n7vc5GawwEcBtALALOo5EuuKAVXoxxauFxdbIH4xhfptnPlelOhXDlthbni9mRE/Faeh84AZBoAAh4EsKt/8hqEy+ngIt1hDij8TbnifyE8gEPXaz88U4joFeYw105kn/KHrzn36H7A6pWB7jz9SSB6KzbgLQD2GOXaCglC4QnxZYt0wXjPG5jwIh0ZX0WRLhI/EVxFxCtX4fHDXPWm7GsAAMAAG7PPbTzCFXz8ABjBN9O5FrbiY8RfSMieROSQX5y4R9VzuJmI3nbducd+2ZdeFaBbT12GxeY3QebtAB0AY913pRgrQotsQOESi6wn3ltkhfigIus6kEJ9XTVHuQqyRXHlKowd5mqw6NGtf+bOAJiNC8lOtHC5g0I6tArEn/iEWEfZy3YYDYf0IBGOvO7cY68U06sAdOfpu8LQ6SCcCMJ2da+niAV3HAUIl8sWXaRdezgyvnCRdh2koUW6LFcF45Wr8HhxT3rim8VVir2+/tDWB9lrAIjudy8wNBKgW3ULl3sjO2aLFP/RfMGPB4293c/cb2AOvfbco78jplcStP60nWHM7wJ0Kgjb1rmWoihCC09g4WxEkY6MDy4Aoc81ID66SRqyFxL+OXvR5wrUtC/azpVLZ2rjaqMxC4O5BgB3SSdVKftDcPSpW3nhko/1usVfMHmK0ARweC8ldNC1Zx3zQ0+ChUEbfm83pIvOgElPBrC8rnUUZeA6GEILl2vzFohvfJFuO1euWhIRH1BjnDblKjzef4Yk8x0s2QbA4K6qhMvt1XTxdy4rz5ExN4RDIV72cIwabDSEQ+oSfyIY3PXe40HmfBjayf7XqopmoFDhcdvEYyK0SBeIDzmmx1Ok3baJ4CoiXs8mhceHcfXA8IP8RwDsGQBi/pKSEoVLtJQVrnLwZY/cuCDz0VHhWYTn5+1TQqbD/L56BEiOvOacN/3AHxEPuvPUZ2FD8lkAL6ljfkVVCC2yAYVLLLKeeO8mFuKDiqzr4An1db3RUK6CbFFcud4NKVeMTTgDANqQf9e1wGWA8Lga4+GZnA5VCFeunQh5QTJp+RYWZFzoNuvmMICKIbOPZ5bDLWmavP47a970bWdqBUG3nroMU70zAXofMPzPqBXNQug7Dodv6SLt2reR8YWLtOvADC3SZbkqGK9chceLe9IT3x6u3GcAEjIbUu6sa3uFS554BOIvJGRPInLIL07co2o5JBBO+s6aN13uSy0WtP73n4Gk9zWAnlH13IoqEVp4AouR83gJiC9apIMKtMPeyOfqiS8k/HN25So8vrDwYzxcGaEBMD26C2SyIZXcqmbnNQLhci9umeoT/5DeYKuj7GY7xHDIHyzCbAsPP3ztucf8jZhaAdCG048C0V8DpLf1NRau4ya08Lg2bIH4QkXadUzUUaS7zpWrgClXrK0UVxENWd6WIvNv2pPhB1uweEMmLEi4mnqrmhCUmbKs+LtB2R+CY2O/JOnvrz3n6A+JqUWCqD9FG957Foj+EdB7+psLV+EpU6QLxmc2b5kiHRlvFZOI+M5xxfmV4SowvpNcFYyf5crdAHzrjw68F8DDMcLlcRiXcLmDosRfMMmJRYm/x2FcHP63wfJ3AsaXYDDo7jMeiw0PXg0yZ1Y1p6IOMBuuaOGZdykQnxmOjLeGIuLJVaQD4pWr8HiRK098NFdDti5zZcydw56ZBmDWxdwSI1xur3GLvxwiLOtcwzaXFH8EcCha/PPLHs7R+yjpve6ac17/oGeBYNCdpz8Jg8GVAF5U1ZyKqsEVngDhcsV7i6wQH1RkHfHBRZaxlTrlX5argvGd4Cr/sGB8Zk+W4SoyvjFcmfXDw1YDAOBXzReuEPiyC3uObk+fNWB+7vjLx4d0Kr4+JSQdLOxRY+jk685a/Ut/RBjojtP2AegqAE+tak5F1XAVHs6vTJEOiC9apC33iHjnu7PA59qId/0RXHeeq4h4lqvA+KZxlaSZjwDyXwcMUPp/zMzZRcYuXLl2giVYSsu3sCDjzg0oJmRPUoDDACqGzD6enRxedM3Zx17sTC0SdMdpL4TBpQB2qmpORZVwHSsRwss+LBAfVGQdtpAa4DxYCj7XeVNXuHIVLeWKtZXiyqUOJbl6eEZuAAjm/wyfOfzC5cnHaywlXO6gEYk/8QnZXqU5lJusEhz+cvHy3mm+1EJBd773NQD+BcCKquZUVIk6Ck/BeLHAe+K9BV6IDyrwDrtyFR6v/9EvPL4oV/4m6VHzvHX3D1utBiAx+JW0r2Xhsh1GJFzuoJAXsTLxdw5nHOvkkN8QwmwLD1MyeMu6/uqH8hFFQOtPfQFg/hkq/g1FaJGtpPC47d7jM6YYRcS35l3/kF25Co9XruxBws35EasBSIl+xf4Hdr3dzwnK/hAcfR1CeQ7FfSBwaAjnX3vOMdd6EgwCbTj1yaDk3wBsU8V8iirBHScBIu+yjbxIu46BiPiAY8NpG/u7/sC1hm2d5apAvJdnIb7pXBlY13XZZwBmejfR1CAwuaFFxiRczqAo8Rfg2Uyx4u/2GiuHv3x0xTZ/4kwtArT+tJ2R4lIY7FbFfIoqEVp4AouRc9974istshHx+l/q5LUyJuUqOL413w9BVgNg3QXwzf5r7wJw30JMo4XLmZI4pRAgyHx0VN5T5FC0+OcPe56ucPM71/ePfKTMFABA6/vLkeDrMHh62bkUVYLAHqS13YMtxAcV6bx9zhZcpMsImoOrIs8141IXV474wlyRchUT36bbRsn8b97K3QYIGPx8eKLGCpdnDTF7ZrPx+8Aj/i3/kiRj8E/Xnnv0N53pxcA89Hnot/k1DFUUnvzDgvGZYy4y3trkZYp0RHznuOL8ynAVGN9JrgrEz7sUiCcENgCE/ykvXLaraI4ULmdQJq16xF9IyJ6kAIcBVAyZfQ2CyOHmmTSt5L/y0R2nvQuGfrOKuRRVgCkGhHEVHvaYC4q3hiLiR/Yf/XI25So8PpqrIVsXuRJ9hXgCgIH/GgAAMIZ+RmmAtovCJTcI7b/i38uOR/z5xUfLIT753XOP+4UnQy/oztOfCdCasvMoqoKjaIX6OjdlTOHhhiPjg4ssYws4Hpy21l+8FrDWsK3TXEXGt5erGWx60PofP2wDkKb0M4C9F2BhxgaLf/kr/n3i7xwecmz8XRMP0PTUOWKKAaA7T18B4GIAy8rOpagCoYUnoJhEC/+QvdIiGxGvF6+FxytX4fGtudBvyJ4d/oV5wfXTeU+2AaBe8j9mEE7kiIXLM2VZ8XeDsj8ER1+HUJ5DcV+EcXjudRes/rWcZwAMXQjCM0rPoyiJsoXHtSELxBcq0q4938Qi3XauODGMiFeuwuPHfoZk/sGPuVnYawB23PLQLwHMsAuMX7icppCewwk5sWjxd3uNm0MAwD2Ll0/9qTPFQNCGPzgYhLeWnUdRFq7CU6ZIF4zPbM4yRToyXi/0C49n62oZrgLju8QVwVF8A+LnXQrEZ4aHHhjzIyaIbwC+2l+9BchfMVihcDnGy8Anu/k1BJmPjgrPwh5hORTiy7G0dQ1zYdn/+Ec39hcD6Z+VTkdRAkwxaEzhiYi3hiLi9UK/8Hi90C88vixXMU1GnivRV4iXnmuKG5hgx10AsxgKqFi4AlSsKVf8L4QHiD+3Z/IzOR24TeD0cPjkXhX2idIjiwf0KVcWwdh545kg7FV6HkVBOIpWqcJTMD6oyDrig4ssY2vMV6yGxOe5KhDfGa7yf5blKjJ+Erky0+FnAADAGHNDZuYA0a5XuHhTneIvJGRPIoo/v3gAFUNmX4MQyKExf7nuvGPvceYYAFp/5hNBppLbBxVF4Co8nF9A4XAeA574zDDnK8RbQxGFr2lfsRoSb3EVER/ElSNeuQqPD+aKsTWbq7vNPlfdwQzyFwECQEr04/n7AEThItZnYbQi4XKa6hN/4hNiHWUv22FMHFKSJBe68wxEMv1ngNEv+Rk5XMdCoHA6N2GB+KAi67CFHOPOg6Hgc503dYUrV1EK5cpV0ZQr21SWq4Lx4Vyxp/8BoQHomakbUpouJVzuZB2zRYq/3u7HzCZySFdc/Ymjf+5aKQR012kvR4rXl5lDUQRNLDwF4kOa9+AiHRGvXIXHN/L2QM+8Rblq5HP1xEc3SfSfjgndHwF88wOvvRWEe93T+oVLfj3rFn/B5BF2yv4QHH0dQnnxr5RDMp92rRSMgXl/6TkUESCwm6i5pxt5uzUUEa8X+oXHN/ZCPyG+EFdztrJcxeaacSvBlegrxEeLPwBKnN/yKl0ECAD/xU87bvF3LivPkTHz47Hi7/YarfgH4O7NDzz49digzIp3/cFzYei1ZeZQxMBVtMoUnoLxRQrPcJEO8mVsrbogK89VgfjOcJX/s0C8tSeVK9aWJt9hBgB4GgCi2QsBWeFyR3k8ooWLifbnIK/ms4bNL4q/aCnLIRPhKRyG6OLrLzrJ+k9QcYuk74f8LyIVlYEpHI1415/3FeKtoYjCpRevMb6OeOUqPH5yL/Tj7YRfmGd9awMzCEC4BgAAEoMfOYXLoVDe1yXv7xGuYZMouwxB/NQe8a/9dj9uUcHM+uRelQAOTWK+EpCRE7T+tL1BeGOZORQhcO3/QOHkilaob94WVGQdtpDjWirwMWtZJuUqyKYX+oXHj/0aksC1hm0EwBjn6X/AcwZgBoPvB3MGoM4r/usUfyEhexJR/PnF2SZqpBzSLVeffcw1/IqBSOh0+D8yUpSCq/CUEbSC8ZljqkyRjoxn93NMkc7bA+M7yVXBeCdXAfFFubLcI59rUa4IxbmadykQnxmO5Hp4iOA8/Q94Cvr+6X/+N4CNVmLssvWJv2dhazxW/IlPiHWUvWyHGPHnDxRhtmAOzb8AJuAJOrJa318OmNVF4xU+MAdzYwpPRDxbpAPjG3vxmnJlPywQX4irOVvR5woUf67zbiW4En2F+KB94YjPD6WD4mcA+v1+CuA/xydcW/8sK/5uOF9jy7H+2/3EPVOCQ0ro312rBqH34FEAVpaaQ+GAq2iVKTwF46ssPDHxrbogK89VgfjOcJX/s0C8tSfLcBURPxlc3Ydn7n4jEzAP/yldou87150bqEu4crPHhOUM/ByU/eFG2273yy758JJlW650rRwEohNKxSscYDZNI971RxROayiyyLJ7ObDINoKriPggrhzxylV4vN42OvvLYK0xXx0wQfMQLwKcncp83wgXQNQlXM4prQGHl5xYtPi7vezNRsIjLl728MX7YNau67/t0aLRdPcZj8Vg8JqSSSgycO37QOF0brgC8UFF1mELLrKMLaBeOG3KVXi8XugXHt/WC/2c89JljoTm4W0AUpr+fs9wblV8M50bPtlFblyQ+eio8CzC8/P2KSHTIa6JIgAw9G3/rAJm0uNg0Cs1h2IITSw8BeKDNm5okY6Ir+U/t7nsylWh+KJcTdxz9cQXEv45ewhX6SJvA+D9CGBd/6hfAbhLXC6g62rKFf8L4QHi7Wooh2fi9pJz0bzZ1yCU5zBBehW/eiAM/WapeMUcCOxm0VOzYfEiV574aK6GbMpVeHwhruZsRZ8rUPy5zruV4Er0FeILiX8UVzebZ13xv8xABqG3dX0/u1z9wsWCIZyf2iPuE3u7n/XgkfuXL3b+H2gf6O4zVgLYr2i8YitcRatM4SkYX3/h4W2dungtz1VkfKe4yg+V5SoifqK5Mt53/0BgA0Cg64b+tnKyFx96VEy4BJ/i4h/SG2x1lN1shxjx5zeDMFskh0Ov0Q9v7K/e4srCi0F6AAI+JlJIYDZKI971RxROayiyyLL7N7DINoKriHiWq8B45So8Xi/088T7P/8HAot7QuYaMrlF6xUuhw/ZJjGf3LDzhRt29IxXIP7iHqiWwx+5sggDvapcfJfhep0ChdO5yQrEBxUOhy24yDK2gP3ttClX4fF6oV94fOuvtwlYC5gBZq5wLJRB0BmAh7fd9F2AtoxQuELDcgZ+jljxd3s1XfzzQ6ZkA4BXl4zvKFyFp4ygFYzPbLgyRToynt27MUXa3s3KVaigleXKE58ZLvBci3KlZ0gYXzb+22bf637NTGohqAG47r2rN9HWd5OFhEsOEfTSuYZtFsRfXiUzLoq/aPHPH0JLUXDZG0M/Ljzfbe/bCcCzSiXVOTAHY1ThydkaVXgC4xt78ZrAtXIVHl/ouc7Zij5XoPhznXcrwZXoK8QHceWID+aKsaX0L8wAixPOEt4AACAASURBVJj/7V7if8n7ZDVMnN2eHmvtX/DDbRinh8Mn106EbIBMWsz49KJf8tkEYGrzS6D/+z8CrqIVc+DnH8bGj7nwdOritTxXkfGd4io/VJariPjOcQUgTf6VGWQRXOAJuGZkwpUxC+JPrDXnU4/4B1AxZPY1CLVw+MB1F6wOOg3Ewzy7eGzXwGyORpxujCic1lBkkWX3bGCRbQRXEfEsV4Hx3fs62hq4CoiP4ipnazVX9EPznG/fzASyCL7CO5miq2k6/1XwtQgXSyA/tSN+ftg9Pu/F7TFnPtxDYn0WRslyFWeL4NCzsPceUA+0AfDC9doECqdzYxWIDyocDltwkWVsAXvaaVOuwuPHfvFa4FrDts5yVSC+Kq6MCT79D0ScAfjW+1+/ATBDolKbcFnjxcTfOZxxlN1shxjxdx9IjtkiORQvnDS4xZVVIPYqGT/hcBWeMoJWMD5zzJQp0pHx7H6NKdJ5e2B8J7kqED/vUiA+M1zguRblSs8mMb6OeJartJ4GAAAM0msWEsrmkcvMDg4VrpxzyNTWcEgHMFm3+9lpkbnblVkg9iwZP6FgDsaowpOzNarwBMY39uI1gesuciX6CvGFnuucrehzBYo/13m3pnLliA/mirHxXP0K+1x7AzPgRFQDQDBrywuXc/KQBETnWPF3e9kvDnGPhCcjp1o/h4mhwg0A/d8f7gBg+6LxkwtX0Yo58PMPY+Pze69AfPWFJ8zWujMkea4i4zvFVX6oLFcR8Z3jivMjAOZiY4KUdB5x/+VtylyGmYX5i93u5wsi5i/HhBFR4VnYI6z4C/FRr0AkQjlMU3NP4UWWzDyucOzEwlU4PH6cXewOPfFW4YiILyz8iBAzxq5chccrV+HxUVxxezImfsjeVK5SXOxY2ImoMwBXfODI2wH8j9vDJ6uuJ2bH8zx5xL+rt/tlzFv/SB/kHQNA6S6FYycOTHceXXjKFOmh+EKFZy6+cOGhyCKtXIWvlTcx/Inxea4KxneCq/zDslwViK+Xq/81z776esZJRJH7vC8H6hSuOPFf8Ckr/vziARo+ZPY1CKMSf4CQbOadg7BzidgJQhMKT/7PAvFWgY8pPJxfmSIdGN8lrghCgQ94rs766InPDEe+VtZQ5L5oPVcR8UFcOeLDufoSs7gX0Q2AQfKt5l3x75V1/vj0OBD3yPlUuAIkzFYzh8akxRsAk2xbOHYiwBxgUYUnZ2tU4QmM1wv9wuPLchUqnBxXoq8QH/RcHfFFnyuo+L6Yd5tUrhhbzMduJv70P1CkAdi0aS2AGTGhDO9xwmX7uGXbMzzk6Ptc3n6hiHvknITbaMJsIZuiJIeGUPxbACldWji29XAU+KgDP/8wNj6/3wrEj6TwNIGr/J9luYqM7xRX+aFYrjg/5Yq1BXMFwJj/MvtecyM/KCO6Abj87NUPAPjOQlI5RAmXYPIIO2V/CI6+DqG8+DM67J6tcvHnTalJfE/cDZMsKhzbajAbQU83yrlm3CaBq8B4/Y9+4fH6H/3C44O5GkKa/r3s4Eax//Vu8E9+4XLASww8xA+/ph5iGn+7nxxSisMyMGnc3SGth6PwhAgfF+8tHEJ8UOFwxAcXWcZW6tRsgHC54ieeq7ypLFcF4zvBVf5hWa4KxI+Eq5xDD1/0OblQqAEgpP8I4X5Dn+wiNy7IfHRUeBb2CCv+Qnx56fVlV5bDgkiT/P98nmA0ofDk/ywQbxX4mMLD+cUU6f/f3rnH21VV9/439knCI1Eq1Ad4tYqgJockrUmvNoAFS4v4RJGISvnU2/q43t5qr1W5eqsp1AoqRfH68dF6Fan0o/HRohUVAyHnJBEkoMIJj/BULCThJRBykpyzxv3j7Jyz91pzzjXmXHutudZe4/v5QPYaa/7WnGuctecYY5659wnUW30l0Mfw1VCskHj4OnOqbb7y0It8ZdF7+SrD1bRk0z2ShiaCEoD1a153N4Dr+4x97y3LwA3ONd53XvDXj/sh34dTaavSh+EN5jXxpGy1mniE+tpu9HPog3zVtRX1le9Y+5oV8JWzrUMvuleLPvS5AKuvfPRhVX9PU7pE3jhL8J975QTfmTvo/ado4Mq5+SH/uF9Ox5nzQT5sPbYJ3ueNnz701acnngB9JRNPHXyVfhmgz7y/1FdWWyFfmdoV8ZVQP9S+sjKJPbu/5SNIE5wAjHSStQAqC1wzpwXOyQ3+2QZsOooU/Mv81IQCGH/4utzoHmtfs2HwlVCvG/3k+tquJjl+VrX3VR78HVq55TcBwlmCE4B1a15/GxhbZ4dSYuASx7UWftzPPR5lDsvEIwl8Jn3uxOHQiyYOi148yRpsutFPrteNfnJ9q1ZIqvKVACq2/A8USAAAgIGvzvybF7gcppx75/7/ORrmObF48HfOY4WDv7XbfNwDU8QTj3AyiDLxpE956o3Po88kHai3+kqgD/VVprnnvYb6ihHuq9kmAfq+056+br2vPPQiX1n0xTb6GaB7MXHEjwLFsxRKAEam6CsM7DOezDjK1cZ8nvv/Z6dmH/fzJW/06T4c3lL6MLzBnBNPjr5WE49QX9ulWYc+yFddW+i9AuH3OtusgK+cbR160XNh0Qf7itVXPvpBVv1z8i/R6rXTxS5SMAFY9w+v3c6cXO5uFRa48lTpls7g77TkX9/3R1W7v5PQSmwTvM8bP33oq09PPAH6SiaeOvgq/TJAn5ngi/jKQ986X5naFfGVUD/UvvIiwUjy5aIXAQomAADQIfy/jLFg4JqTC4K/ycfpK0n8nReDrW1S6YQG/xpgmDh0udE91r5mw+Arob6yb6lLXVd9Jdd7+6rHVntfhcDfL/LZ/14KJwDcecp/ALhvzpB5ERa4Kvm4HxvbzJ3lTFPn1SQ/8NwHCoPzYeuwTDySwGfS504cDr1o4rDoxZOswaYb/eR63egn17dqNSntK099GUv+vRD906AuVTgBWL/mxCkmzOxGHEDgmjktcFZu8M828An+5gfJcTXP4F/6pyYK/3aoaUgnHuGbOcrEkz7lO/GY2vlM0oF6q69y9H2nA+411FdDsULi4evW+8pDb/SVUD/wjX5G7sOO+d8f1MUKJwAAQJR8Brx/M2Be4LKTE9d6Gpb/cT/n81N68HeYBuXDocHwBnNOPDl674mnx1a7iUegL9VXDn3QvXZtofcKhN/rbLMCvnK2dehFvrLog33F6isffdlV/34In6cT1w/sa14HkgCsX3PavWDq+3vEdl+ancL9/7PTio/75SUIBX04NNgmeJ83fvowUN/3syky8XjqW7U0mz5V1Fce+tb5ytSuiK+E+qH2VWH2IJn6wiAvOJAEAABG5tHHrdF5wMHf3koY/B16d4tiP9S80af7yHGml2r4MPygdbnRPda+Zuorkd7LVymb+kqu9/ZVj632vhoYl9DSa7YP8oIDSwDWrXntLwBaB5QVuATBX6B3Nc19DtLtJT987v0nr2OHN6xvjl55qQ9fTbBMPJLAZ9LnThwOvWjisOjFk6zBphv95PpGrZCkfRWgb42v0i+L+spTX9WSf9/lO58Z9CUHlgAAQIfxiXICF5uf7fSVTM+VtdO0OS9B6DfWJfg7BjSESCce4Zs5ysSTPuU78Zja+UzSgXqrr3L0facD7jXUV7pCYmhr0auv5PpqNvoZoB/S0rFfDPqqA00Arvz7U68A6IZZw0ACF5vnPUMz+6Fp4u09a5rYHVczR2iHqbzgz+YBDRmGN5hz4snRe088PbbaTTwCfam+cuiD7rVrC71XIPxeZ5sV8JWzrUMv8pVFL/aVwaa+kutjVP2zTF9YxlUHmgAAxCB8CIAwcAkumRv8sw18gr/5oXRczTP4l/kHfsQ+bDS2Cd7njZ8+DNT3/cyKTDye+lYtzaZPFfWVh751vjK1K+IroX6ofVUKP8Po5sLf+29iwAkAcPU5r7ucE6xzteH+/zka5jm4ePA3xGH71QYe/B0m98DkPmw0hh+uLjca2hps6iu53stXKZv6Sq739lWPrfa+KpFO5++Iyul04AkAAFCH/7flKfEO/vZW2R8Mm46sF9CP+9UXy8STF7hs+tyJw6EXTRwWvXiSNdj0W+rk+katkKR9FaBvja/SL4v6ylMfdcl/lp9h8di/l3XxUhKAq8897acgfDNtZ8MrM4Lg77TkX7/MH2Pe6JE67wjz3qrmI514hG/mKBNP+pTvxGNq5zNJB+hnmwTo+04H3Guor3TzmqGtRa++kuujbfQzUGL1D5SUAAAAM38IPX8qeO7nKAiMJv/3nu+7oOW8o03uc5FOJ4wPg2tYeR07wrj1zeLpw8ZheIM5J54cvffE02Or3cQj0Bf1lbOtQx90r11b6L0C4fc626yuvrLoxb4y2PRjo3J9Par+/d3ehMVjl5XZRWkJwIa/f8M2Jv50n1E/7td33if4OwaUvUjj4r9tgvd546cPA/V9P6ciE4+nvlVLs+lTRX3loW+dr0ztfHwVqLf6SqCP4as6Vf376eBDREjK7aJEdo0c8BEAd8w8CwJHSmKXM/ibE4S5s+UF/5yOM+d9g/9AfVgrDD9QXW40tDXY1FdyvZevUjb1lVyf6yuHPqavRGOtlKtodGOp1T9QcgKwZc2rn0AHb4PkV+4V/IEfi9B8Ncmbp++Slo4ND7TofZk+LXkec31YJ0wTjyBw2fS5E4dDL5o4LHrxJGuw6UY/ub5RKyRpXwXoW+Or9MuivvLU1zP4J0jofVV0VGoCAABXn3PaVQz+F2cj/bifbWA9wT8vS4j+0Hpgm3hM7eo68aRP+U48pnbCe61F1Z9u69BnTnn4SjevGdpa9Oorub6OS/6z8D/TsvEtVfRUegIAAAuSzl8D2GE8WfuP+7kljm6tfWTNBYM/8nxYFwxvMOfEk6P3nnh6bLWbeAR6573m6HPv1aEX3atFH3qv4PDnYrbZsPrKYNONfnJ9Pav+/TwGWvCRqjqrJAFY97HXP0igd8ISyp3B32nJD4zFf6x5o5MFZ3vLPKvg+qb3Q+2wBEOvN376MFDfN2kVmXg89a1amk2f8vWVqV0RXwn1rfRVoN7qK4E+1FeZ5p73KvZVJBjn0uj6+6vqrpIEAACu/uhp3wHjojlLXuAyvTEM5x1tMs+Ju0VtdvzPyYc0+DPCJ57ZJgH6vtOeeuPEI9TrRj+5vrab19RX2cMAfZCvurbQewU87jUqN2DP5Keq7LCyBAAAdj3w4PsAbBIHLsMzm9dmzsw5bfqNdQn+jgFlLyLxYVRME48gcNn0uROHQy+aZC168cRjsOlGP7m+USskaV8F6Fvjq/TLAH3mmSziK5s+KnvQ4bNo5ZZ9+U0HR6UJwJYvvmMfMO8MMB50uz/75mDTUYTgn9Nx5rxv8JfkBvsb1u4R7sM28ZjaFZl4BPoYE89QbMjy8HXmVNt85aEX+cqiV1/J9XX4Hn8pjHNoyaabqu620gQAADZ89NRfgfm/wRVFCwR/88TvuJpn8K/m4355DfMe4pgPueHN6Jx4cvS5E49DHzTxdG1FJx7fsfY1K+ArZ1uHXnSvFr3oQbf4Wn0l1+tGP7m+GUv++/kZ9kx+IkbHlScAALDhY6svI8b7s2eKB3/ns1p68HeY3APzDv72VqY3TlXYgqHPGz99GKjv87enPjNplTVJp01t85WpXRFfCfWt9FWg3uorgT7UV5nmnvcq9lUteBzUeUvVS//7iZIAAMCGj53+SQAXzlliB3+3RPb45LVyBH8PvTP4R8Pww9PlRkNbg019Jdc7fZWj9/ZVj019JdcH+aprC71XwONeawTTu2h0bGus7qMlAAAw9g9veC+ILjH9kIzB30rEj/sZHnTzM5wT/Ev/I0llYZp4BIHLps+dOBx60SRr0YsnHoNNN/rJ9a1aIVFfeekzz2QRX9n0teJCWjp+ScwBRE0AAOKH5id/wcAV9p+V6eGytrC0SaUTkjdl3zNZTvB3DCh7kdoG/7RJELhseuvEI9CHTjyZ5h76odiQ5eHr1vvKQy/ylUWvvpLrm7TRrw/aBHrk7NijiJwAABNrVu/dt2DvGxgY228TxPAesykI2IX12/EveFidwd/c+XT+VQtgeDM6J54cfe7E49AHTTxdm2jicEw8vmPta1bAV862Dr1okrXog33F6isfvW70k+ubuOQ/wy9B806j0Ym9sQcSPQEAgGvWnPnokx5f9McA/i0Vrvv+SVN28C++4z8v+FtP9zQs+keSBo0tGPq88dOHgfq+n4OnPjNpFZl4PPSt85WpXRFfCfWt9FWg3uqrHH3f6YB7DfVV8zb69bIDSXJyld/256IWCQAAXP6ZV+wZOeCppxPo4hmLO/ib37CW84gR/O1w//8cDfMe6MjBnxE+8cw2CdBnJh4PvXHiEepL25ClvsqafAJvEV/12NRXcn3QvXZtofcKeNxrLXkElLyclm2+JfZA9jMv9gB6Wb/mxCmA33rc2V9/BETvdgV/5/u0cPC3dpuPe2Dewd/eKi/4D/KXANI3oqWtdaA+E4/ptKdePPEYbILnzGor7KtAvfpKrs9538p95alXX8n1omeytuwCOq+i0Y03xB5IL7VZAZiDePy8M94DpncAMPyOxC/4+5IXdtN9OMK8t0o+iuwZzjkfjk8W7jPxWKoDl5492vbaMs099EOxIcvD1633lYfe6CuhXj82Ktc3dqPfLA+DcAodM7Yx9kDS1DABmGH8vNVfTMDHAXzPnNX/43512fE/JxcEf9Pznr6StcGg3hi+E0+OPnficeiDJp6uTTRxOCYe37H2NSvgK2dbh140yVr0wb5i9ZWPPurHRj36apSvagrhLvD0sTS6cSy/cfXUNgEAgE3nnfHTefuSlQT6ESB4BlPGugR/x4CyF3EGf3PnxvaFfgNgELdu85oloZDoW+crU7sivhLqW+mrAP1skwBf950OuNdQXzV7o18XuhbJ1B/Q0p/cHHskNmqdAADA+gve/MAz7sArGMmHAewBMPDgbz3fZw4P/mwekLGhu1W2AZuOBvkeYQxo4vHUZyYeD71x4hHqK9vol7Kpr+R6b1/12NroK2dbhz7oXru20HsFPO61ztA38ej0CbT0mu2xR+Ki9gkAAKxdu3p643lvOjdB5xgwfpRtUSz4D8fH/coI/oIg32ercuKx6MUTj8HWqG9eS/sqQN8aX6VfFvWVp75VvkqfKuorm762TILpPRgdX02rNu+OPZg8GpEA7Gfzeatv33j+GScTYTVAO2asZQd/hynnueT+/zka5j3gsYK/YRyFJp4cfd9p34kjfcpDr5vX8sc6a1JfifW60U+ub/5GPwB0LQgraen4p4maMfhGJQD7GT/vjLXJXloM4v+Lnk8KlPNxv7wEwXzeN/jbW0UI/rZxGG0+E49DHzRxdG2iicMx8RjbCvSh99rXpCxfWfTBvmL1lY9e/z6EXN/8Jf/HAPwvbD18FY1unIg9GB9q9T0APmy+cPVDAP7nqvd+7ZOY1/kwAWcCWCDV54VdpM47wry3Sj6K7Blj8C8dwRvUmezk6HOSKadekqxZJx5JO4tdP4Mt13tN8C32lVeSlLJ7J0k99qDA37VX9lzUEMI0mL8Env5w3X/Xb6ORKwC9bLrgLfdsOv9Nf57sHTmSwZ8A8JuZM6YHrvcfy4NmeCOZn/Gc4F/lH/gp7T0jqCRmmwiqk7S+77SnPnPKQ68b/eR63egn1xf1lTj4GnzlbOvQBwX/rj70XoGmB/8EwFpMYZSO2fSOpgZ/YAgSgP1svnD1rzd//M3vX3Dw5DOYk9VE+DEMUbzM4D/XpmjwN3fOpqNSg7/Jlp54BEmCSV/JxGOwNWpDVtpXAfrW+Cr9sqivPPWt8lX6VFFf2fS1YwcYH0OHj6RjNq6m5RtvjT2gojT2VwA21q956ySAtQDWHnf2145MEpwO0OkAVsy0KC/4z5wWPMi5wT/bwCf4+39dUpoEAGXHlHnpk8VLA7/juqJgZrGXsgwt0JfqK4c+OPBDfVWKr0zPpGdfrfFVjSDsBuN76HQuxfxFl9PRl++JPaRBMnQJQC/j573lTgDnAzj/+Pdccvi+BfQnHaY/ZuB4AM+ebSgO/nZycoOehmV/3G/QbyjbYIpUHAH6RkzSTfeVLTOV+sozoTMeqq9ybc7Jpum+qgW3gWgdGJdj6uArafmPdsUeUFkMdQLQy9in/vQ+ABd3/8Ox7//XI6aRvKSTYBkDS8BYAsKRAA6yP+fmB5b7/2en9I/7Fa/9Xb0PZuIJ0OdOWg69OJOr4yTddF8J9V5JVsoew1e1vNccfVDg79orey4qZw+AuwC6CYwJdPh67OlspheN7Yw9sKpoTQKQZuPH3/SfAL7d/W+WF7/70qePzEuePUX8NOLOoUR4CggHEZKFnGQ/ZZAYXhnJfea7+p6Vd6PE2g33yTuMbXk9umnKxGPRN6bq77FX76ttAH/b/EzlPM9BbVP998nSv3JyXbNgW6MbpddMsk1t7QSmnBP9EGB/Bhzjz1ze0399zaW+TixNfZ6rgbAP6DwOxiQIDwN4GB3eCXTuweKx+5vyef2yaG0CYOOaT795O4DG7uocOAOpZAVt07bg4G8Khh76xlf9gr5mSSbouV8/29KhoihDjiYAiplaV7IWuy7NyvXGj6wpitImNAFQHAQsgzey6vfsy3jYdF8pitI2NAFQDJg+BghUt4ztqR/4qoGjr8xh7CX/or5SFKWtaAKgCKjxMraobeyqv8deK18pitJmNAFQcmjSMrY0+De96hf01WsT+0pRlDahCYBiIXYla7HrRj+5vt6fwVYUJTKaAChCml71e/ZlPAzQ195XiqK0FU0AFAF13LwWe9XAZm+4rxRFaQ2aACg5NGUZu+lVf9cey1eKorQOTQAUC01axpZW/UJ9Lap+QV+9tiK+UhSllWgCoNgpvZK12HWjn1xfxFeKorQaTQAUM42s+j37Mh5WteQf21eaDChK29EEQMky+we7GrR5TTf6yfUa/BVFgSYAipU6LmM3verv2mvnK0VR2ogmAIoB09/sbtIytjT4N73qz+mrz2QUv5LveMNDuXpnzpDzrMTylchmsSdlPVcmevxXnq8up9ENb/EYlNISNAFQcihayVrsutFPri9vhWQ+gKdYr6G+kuvr7atFlgsoLUcTAMVBHat+z76MhwH6oEk6tq+KVrIefbXeV4H6gVX9gr4UJYUmAIqF4OVGt752qwY2exmTdAN8VWol67hu7Z6L2L4qXPVb9IoyhyYAipCCE09jlmaLVrJdu/pKrldfyfUa/JUBogmAkkPRiccUDD30jV+aLVoJ5/TVZ2q7r4quGjj6yhw2yVeKYkYTAMVBGZOsUO9VnaXs3tVZj33oq/6UXX0l1zfWV2S5ttJ2NAFQDHQ/mhSt6vfsy3gYoA+apE0TvKe+0VW/sK9eW2t9VbTqF/TVa9PFACUHTQAUM8HLjXVcNbDZy5ikK/LV0Fb9FruuJsn1+k2PihBNAJQcik48w1j1d+0Dn6SH0VdFK1morwpX/aYva1IUTQAUJ0UnHukkHVi1zx42verP6avP1HZfFV01cPSVORxWXynKDJoAKBbSk0fR6sxg96rOUnbv6qzHPvRVf8quvpLrh9pXitKPJgCKgDpWsh59GYNhgD54ko7tq6KVrLCvXltrfVW06hf01WsT+0pRsmgCoORQdLlROkkXXTWw2cuYpD31ob4a2qrfYtfVJLleq35lAGgCoFgoOvGYJniPttGr/q69kkm66b6KXfV79mU8HEZfKYobTQAUA9PIfnlI0Uk6sGqfPWx61Z/TV5+p7b6KvWpgszfJV4qSjyYASj66NCvX60Y/ub4xKyQ99tr7SlHkaAKgOIhdyXr01ail2TpW/cK+em2t9VXRql/QV69N7CtF8UMTAMWCz3KjdJKOvWqQc93cYGix1/JeY1eyFrv6Sq7Xql8pGU0AlCzGLw6TVmcebRtf9cNjkm67r4pW/Z59GQ+H0VeKEo4mAIoA6SQduLQ6exioj1H1l1IJO/rKHLbdV0VXDWz2JvlKUYqhCYDioOgkK9B7V2c99qDqrGtvRNWfsquv5PrKq/6uvRJfKcpg0ARAsVBV1e/RV6OWZutY9Qv76rW11lexq37XNRRlMGgCoBhIYPwegDS13NDluK54abUp9xq76rfY1VdyvVb9SkQ0AVByaPrSbNFKFh6TdNt9VbTq9+zLeDiMvlKUctAEQHGgS7ODr4QdfWUO2+6roqsGNnuTfKUo5aEJgGJBl2ZlbWNXsj129ZVcX3tfKUr5aAKg5KMb/eT66FW/sK9eW2t9Fbvqd11DUcpHEwDFTYwNXZUsrUoDUsn32veyjlW/xa6+kuu16ldqiiYAiplGLc0WrWThMUmbgqFPX033VdGq37Mv4+Ew+kpRqkcTAMWA6WOAQHuWZotWwo6+Modt91XRVQObvUm+UpQ4aAKgCGj70mzsSrbHrr6S692+ugeEK8HJjWDcAhrZjnmdRzA9lYDoAEzTb4H4uQBeCPB/BfilABbm9w/PREdR4qEJgJJD25dmh7HqF/TVaxseX90DxsXodL5Gi9fdZrlwL9fMXuW6FfNx4MEvA9FZAF4H8EHG/sW+UpT4aAKgWIhd9TuuW7tl6Ni+il31G+z18tVWED6KF/7214nWTlsu4IRWbtkH4IcAfsg/X/U0jIy8F4R3AVg005VW/Urz6MQegNIUGMUm6R69KKCl7V2bOKAVCf4GvfcydpW+sugLVf1FfGXxf/W+2gXw2djOy2nxVZeGBv80tHzTDjpm7AMgPB/gSzT4K01FVwAUAaUvzcr0tVo1cPSVOWy7r4quGtjsTl9dC+I30uL1d1suWBhaMnYfgLP4xmO/B6J/BvAkDfxKk9AVACWH1CTrrIRzAlJudecISEGrBpgJSKGrBgxHQLOsUGQO1Ve5em9fpar+rK++BP7t48sM/r3Q0o3fwAhWAnxHFf0pyqDQBECxqI3nugAAEXRJREFUYFqaDVzaFQUki14ckAy2QjvXfe81fVjUVwH61vgq/bJXT+dj8VVvo9G1ew3i0qDF47eB5h8H4OdV9qsoRdAEQHEz0Eo2p2rutRsrWY+AZAyGwoAkrvpT+lpV/UJfD5evPktLrjybyCguHRpdfz/mzz8JhFtj9K8ovmgCoNjJDUgmW5VVv60aDdQ7A1KOvva+MtiGY6PfDIS1WPyHf2UQVwq9YP0DmBo5BcADsceiKHloAqCYGfjSrFAfWvUbA5rnqkHIvc4eNs1XpnY+vgrUW30lXDUwt70d8w78C6I1ieEClUPLN9wFwlkw35Ci1AZNAJQs08CAl2bz9ZlTnlV/6KoBwyOgGSpZ56pBm3yVo8/1lUPv9lUCprfQ0Zc/arhINGh04+Ug+nzscSiKC00AFAOmQipwaVaiFwckg61Rm9fSvgrQt8ZX6Zc2Pb5Ao1deazoRnWl8CMCO2MNQFBuaACg5+FayHku7xkrWIyAZg6EwINVr81q+XuQr36q/8b56HNT5W8PJWkDLxh8G6JzY41AUG5oAKA7qUPUbgpxu9JPrh2mjX9pG+DwtXvegoUF9WDjvSwDuiz0MRTGhCYBioejSbE5112fzCWimdh6rBj4rFJnDgHvte9k0XwXqrb4SrhqI2nKCqeQiQ4NaQc9dPwmC7gVQaokmAIoB0+zvtTRrtmdOeehru3ktJ3irr2R6b1/RVbR0w68MDevHNP0LzDelKFHRBEDJQrxv7iBgaTZj8wlIBlujNq+lfRWgb42v0i899MRfNzSsJbRs/E6AfhpxBJV+K6LSHDQBULJQZ8/MC1t15rG0a6xkPQKSMRgKA1J9N6+Z7SJf+Vb9Q+or4h8bTtQYvjJa18ST0fpWao0mAIqB6clqq35DkNONfnL9MG/0M+kZ99ILN9xlaFBjkvURO98TsW+lxuifA1YMdB7qD0qmydhml07wDr0oGFrs9flztHL9UPlKoA/11Zz5JouwvkwnExiJVm89HKtjpd7oCoCSJeGdg13GFupru3nNsEIxiGXsofSVQx/kK+MKyW0Gcb1Zds2vAeyK0jeT/l0CxYgmAEqWDnW/vcx7aVbY1mBry+Y19ZW/PpskbTc0rjXdv1B4f5TOGTuj9KvUHv0VgJLlsSd+hYUHTgMYmTM6lmtFwcxir+UydI5eVLVb9MGBH+qrOcNjFlHdeTxOt8m9cfpV6o6uACgZaHTtXgA9n7EeRCVrWNrVjX5yffs2+jnaclM/1hZnNz53bo/Sr1J7NAFQzDC27X9hOpk95RlkjBN8kWVsob42y9hV+ipQb/VVjr7vdMC95vtqkUHcBGKMex8enPfLCP0qDUATAMVCcoPfJG1oZwtIoasGjPBKePbQY4XCGtAk+q59KH3l0Afdq6Tq77M9yXCiAdAhlXfJuJVOXD9Veb9KI9AEQDHToS39Bu9JOmtr1ea1tK98K+E2+Sp9KkdP/BzDyVrD2045AMSHV94xYUt+I6Wt6CZAxQzTT+cmYWngt9h185pcXyjwe/bVVF8xvcBywfqy99GjwL2baiuC+frK+1Qag64AKEboOZfcBfDdfpO0YWlXN/rJ9ZVW/WlfBeqj+CpZxhOjCwwn6gvTijgd06Y4/SpNQBMAxcWVxZaxTe2KBDShvgnL2GlbYV8F6GebBOj7Tgfca6ivZvZFHAw+9PcNghrDJ0bo9BHcfMQNEfpVGoImAIqdhH8wd+ARJGq7ec2RUGQCmkTftRsDmlAf01fOtg590L36Vv05iQ7xKQZhLWFGB8CfVN4x4SpavXa68n6VxqAJgGJn977LAez2q+4Cqu5ZU2DVPntYddWfDmi+lXCbfJU+VdBXzGcygwyN68fW408EcET1HfN3q+9TaRKaAChWaHTt40ByRb/Vt5IVBqRaLGN76Eup+h0rFH0m9RWA38HEsScYLlRDkj+L0OkUOlOXRehXaRCaAChuuHNJz4GpgWcla6tGA/S5AcmhFwUki94ckGQ23egn1+f6ij5gaFAr+OaXPAeMN1bfMdbT4msfrLxfpVFoAqC42b33MhAecFZ3aVuhgOaxatC4ZWxTO+G91qLq9/hZGat+j+dC5Cs+mbce+xLDRevD9LwPAphffcd8cfV9Kk1DEwDFCY2u3YuEv5o5oRv95PqivhraFRLDz8rrOyMAJLiou8mudvAvjlsB8J9H6PphPMbfitCv0jBq+cZR6gZdBEL360R9Jmlp1S/UR6n60wHNt+pvk6/Sp3x9ZWrnCP4z/D5uWvWXeY2qhq9bMR8d/hxizLFEl9Cqzbsr71dpHJoAKLnQkZfeA8Y3daPfIKp+xwpFn0l9JYbofJ5Y9btyQQUcdOBHAVT/XQWEaUx1PlV5v0oj0QRAkdGZOhdA6o+KCCf5oftztDk23egn1/su+Zs5EEzf4htf/HRfYRnwjceuBuNv4nSOb9PyDXdF6VtpHJoAKCLod9ZuBfOXZo48gkyMP0fb99I3IKZPed5r41dIPHxtrPrL8JWII0Hzvse3HBv1LwXyL47/QxAuBqJ8R0GCJDk3Qr9KQ9EEQJHDCz4M8KOGE/ALaDn63IDm0GcCmmCsvZWsqBL2SXQE+tB77WtS16rf4OvBVP0mVmIaV/H1xz91EBfzhSeO/yN0ku8CODBG/yBcSss23xilb6WRaAKgiKGjLtkBwgX9Vlsw9Ky6+w4D9TGqfq+Apr4acNVv6mIFFiQb+MaXLB7cRQXdThz3dnDyfQCxViAmMU0fidS30lA0AVD8OGjBBWD8euagrsvYHvqiVb8ooPmukLTJV6XwQtDItXzTcWeV1cF++LoVh/DEqq+C+QsAYv6Fwk/QsvE7I/avNJBmfJe2Uiv47jeegoT/A73PjzGYAfJKVtg2bQtexjadKlLJeugL+ypQX3tflQDhCnToL2nx+G2DvCwzCBOr3gjQPwI4fJDXDuBuPJos0Y/+Kb5oAqAEwXes/hwI75w5kAYDg91ZyebonYmD47riSlQavGPfa44+KPB37ZX5qlSmAFwKnj6Plv7k5iIX4m+cPoIlvz4VoP8DoA4fPUyQdF5Gy8aujj0QpXloAqAEwff/6ULs2nsDkBxtOGtSWA6bUvXDI6CZgqFPX033VeSq3wVhM5i+Bpr+IY1uvl0i4etWzMfBB/wBpvEaEL0Z8Sv+ORgfo6UbPxh7GEoz0QRACYbvOu3FSDrjAOb1WE0tDYdFl7ED9LnB0KEfeCXs6CtzOKy+is4vAfwchFsBvg+Mx0D0BIBFSHAYiJ4D5heAsALAwrhDNXIdJidX0cot+2IPRGkmmgAoheA7Vn8A4POav4wdu+pP2YfaV8oA2IURetGg9zYo7UI/BaAUgp73jfOB5CvZM4xiAa1HH7yMXSSgccHgz2Z73r3ONgnU195XygBggN6lwV8piiYASnEePuztAK6cM9iWsdMBQRDk2KNtry3T3EOv3+iXP9ZZk4+vlIHAdA4dM579C52K4on+CkAZCPyr0w/F3mQzgOfPGTMvehVuW3AlazpVxyV/U5IUqI/iK1Pgt7VVBsilGN14JpE6WimOrgAoA4GetfYhIHk1gB0AApex0y8D9KGVrHEZ27MSLhT8m+YrUzuNSaXC+DEmJ/9Mg78yKHQFQBkovO30JaBkHcDPMJy1qQynPap2a0AS6htT9ffYa+8rZcD8DJOTJ9DKLb+JPRBleNAEQBk4fOfpL0AyvQ7AM3usppaW03VcxrZV/YF6a+Ig0DsThxy9Lvk3D8IWdPadTIuvfTD2UJThQhMApRT4jtOOBvNVAD/T0qLvH8NBjl1ayVrs+o1+cr1W/TEZwwFTr6KjrzH8FU5FKYbuAVBKgZ73rW3A1AkAUn+gpOd3xaKAZvm9vDigFQn+Br33kn+R4O/rK4u+UNWvwT8e9ENMTr5cg79SFpoAKKVBR112O6anXgxgbMZiC4ZFlvw99brRT643Jg4a/CtiLQ540mtp5ZYnYg9EGV70VwBK6fDE6QuwYOrzIH5r/ZexTYHfpy9T4PfR99hr7yulBBjgj2N00weJkMQejDLcaAKgVAbfduq7QfhHAJ1ilWxO27TNGLt8qv5AvTVxEOidiUOOvhJfKSXwGDqds2jJ2L/FHojSDjQBUCqFb3/Ny8H0FQBPT50xtRYGM4tdN/rJ9Vr1x+YWTONUWr7x1tgDUdqD7gFQKoWOuuwHGOHlAH4wYzH9Xtl381qR4G/Qey/5Fwn+Pfqg4O/rK4NNg39cmL6MA6ZerMFfqRpdAVCiwAzCttf8FQjnAzig50zfP4aDHHsZqwaOvjKHsZf8y/KVMnAIO5HQO2jp+HdiD0VpJ5oAKFHhba/5PYC+CvAx1S1jmwK/T1+mwO+j77Hrkn9b+S546m209JrtsQeitBdNAJTo8HVvn49D7v8bMP8tgIN6zpham23izWvDWPUL+uq1iX2llMADIH4/jW76cuyBKIomAEpt4Fte/VyM4LNgPsXSwmDSjX5ivVb9MUlA/DXsGXkvvWhsZ+zBKAqgCYBSQ/jWV54BogsAHNG1mFoVrPo92hZe8jclDgF6rfqbCeMnGOn8D1oydn3soShKL5oAKLWE//PVB+Nx/DWQvB/Ak1NndaOfj143+sXilyD+CJZsulj/hK9SRzQBUGoN3/y6wzCy930A3gPgAN3op0v+DeABgD6JhfM+Tc9dPxl7MIpiQxMApRHwtlOeh4TOBbAawEjPGVNrg6npVb+gr16bLvnH4CEQfQJTB3+Glv9oV+zBKEoemgAojYJvP/koTI98AOCzACwwtDAc6kY/pVTuA9FF2L37c7Ryy29iD0ZRpGgCoDQSvvM1T8e+qf8O8HsAHBJ/yV83+rUP3gbufBaL5n1Bl/qVJqIJgNJo+OY/Ogyd+W8H0ztB/Oy5E4FV/+xh7CV/3ehXUxIQ1gG4EEs2/kA39ylNRhMAZShgXtPBts0vA3feDU5eicyzXceqv2vXJf8msB3gr4DxT7R00x2xB6Mog0ATAGXo4Jtf8XwgeSeIzwTwVN3opwTSrfb5i9i9599p5ZZ9sQekKINEEwBlaGE+fQTbHj0RSXIWQK8HsLB7pqdR5gUMJ812rfqHla1gWgvGV2nZ+J2xB6MoZaEJgNIK+I6TDsG+zmlAciZALwUwohv9lB5uB/CvSJJLadnmW2IPRlGqQBMApXXwxMmHgqZfBcKrALwCsysDsy1MKsNL3ejXcPZX+t/F0vHrdUOf0jY0AVBaDU+csAgj808B86kAnwzgsFQL40td8m8kTwDYANB3Mb3vMlp+zb2xB6QoMdEEQFG6MK/p4Jarfw9MJ4HoJIBfiv1fNlSbqt91DcXAnQD/GOh8DwvnXaGf11eUOTQBUBQLfMMJv4UFIyeB+GQwXgbiIw2tbGqt+mNA+DUYV4DoCkwlP6blm3bEHpKi1BVNABRFCG89/nDw/OMAPgmE4wBeDNv3DehGv6q4D8A4mDaCMa6/y1cUOZoAKEogfOvLnomp5EQQrQL4JQAvBTBPN/qVBGEajF+AaAzAOIjGacnYfbGHpShNRRMARRkQfN2K+Vj45GXg6ePAtALgFQCWpFpZxLrkb+A+gLeAO1tA2AKa3kijmx+KPShFGRY0AVCUEuGJE56BJFmGEfpdcLIMwDIALwQwv9tCl/yBXSDcAvBWMF0PwhZg/g00uv7x2ANTlGFGEwBFqRieGF0AHDaKJDkGHbwAwNFgPhqgowFeFHt8JfIIGLeggwkk3X+nRm7Bsg136+/tFaV6NAFQlBrBW48/HFN4Pig5CoRng+lZIBwB8LMA/BcAT449RiuEnWDcC+Z7QHQ3mO5GJ7kbwD2Y7txDy8Yfjj1ERVHm0ARAURoET5ywCMnks8DznwbiQwE+FMChID4M6MwcMw4BsAgdzAdjIWa+yyD9714AuwxdTAN4FMDjAHaD8Rg6eAwJngDxLhA9AMZOEHYiwQ6gsx0j2IntIzvpxPVTlThBUZSB8P8BsyvDdVphMVcAAAAASUVORK5CYII=;" parent="1" vertex="1">
          <mxGeometry x="338" y="247.5" width="42" height="42" as="geometry" />
        </mxCell>
        <mxCell id="okpZpmTV6SpFpqVT5AK8-18" value="REQUEST" style="text;html=1;align=center;verticalAlign=middle;resizable=0;points=[];autosize=1;strokeColor=none;fillColor=none;" parent="1" vertex="1">
          <mxGeometry x="160" y="286.5" width="80" height="30" as="geometry" />
        </mxCell>
        <mxCell id="okpZpmTV6SpFpqVT5AK8-19" value="" style="shape=flexArrow;endArrow=classic;html=1;rounded=0;endWidth=10.384615384615385;endSize=8.671153846153846;width=7.115384615384615;" parent="1" edge="1">
          <mxGeometry width="50" height="50" relative="1" as="geometry">
            <mxPoint x="240" y="280" as="sourcePoint" />
            <mxPoint x="160" y="280" as="targetPoint" />
          </mxGeometry>
        </mxCell>
        <mxCell id="okpZpmTV6SpFpqVT5AK8-22" value="&lt;font style=&quot;font-size: 15px;&quot;&gt;СЛОЙ ОБРАБОТКИ ДАННЫХ&lt;/font&gt;" style="text;html=1;align=center;verticalAlign=middle;whiteSpace=wrap;rounded=0;" parent="1" vertex="1">
          <mxGeometry x="261.5" y="340" width="195" height="40" as="geometry" />
        </mxCell>
        <mxCell id="okpZpmTV6SpFpqVT5AK8-23" value="" style="rounded=0;whiteSpace=wrap;html=1;" parent="1" vertex="1">
          <mxGeometry x="540" y="196.5" width="70" height="117" as="geometry" />
        </mxCell>
        <mxCell id="okpZpmTV6SpFpqVT5AK8-24" value="" style="shape=image;verticalLabelPosition=bottom;labelBackgroundColor=default;verticalAlign=top;aspect=fixed;imageAspect=0;image=data:image/png,iVBORw0KGgoAAAANSUhEUgAAAgAAAAIACAYAAAD0eNT6AAAABHNCSVQICAgIfAhkiAAAAAlwSFlzAAAOxAAADsQBlSsOGwAAABl0RVh0U29mdHdhcmUAd3d3Lmlua3NjYXBlLm9yZ5vuPBoAACAASURBVHic7J13mJTV2f8/M7O9994bHZaO0quKBUPsSSxJXqPR/BJNTGJeE5P4JqYZI7GmGhsYIyBFivReF9gGLNvZ3nuZ3Zn5/TFARBFmzvNMP5/rmgvL3uccYPd5vueuGiQSiURia8KARCAeCL/wCQNCv+AT/CnbIMD7M+t5XfiaIaAH0AO9wADQf+Ez8Kn/1nzh0wLUf+qfG4F2NX+jEtdB4+gDSCQSiYsTBGQDWZhf8klAHJCM+YWfCAQ47HTXZgizIKgCyj71Kb/wa4PjjiaxJVIASCQSybXxBUbw3xd99qc+8Q48lz3o5b+ioBA4ceFT6cAzSVRACgCJRCK5nHBgDDD5wmc0MBazCJD8ly6gADgOFAHFwFFg0JGHkliOFAASicSTiQNmANOBacAEINKhJ3Jt+oADwB5gF3AEKQicFikAJBLPJBSIxvyyu/jxv/D/wvj8s8Hvwv//bNLZxV8HMT/8LyahdQKtOFeCmTcwBfPLfsaFT6pDT+T+9AOHgd2YBcHhC/9N4gRIAeCeBGN2V4Zc4+s6MD/Qu21+Iok9iQAyMceqL/6aweUvey87ncUItF34tH7qn9uAJuD8hU/thV8HVNzbC7MLfz4wD5gFBKq4vsR6BoG9wLoLnyrHHsezkQLAufHCnEmcDMRe+EQBMZhdl9GY45X+mG9tvog/4C6WDXVhFgUdmB/YLVf4tRlz+dB5pHhwJGHAVMyu6zH894Uf4chDKaQZqLnwqb7wOQucwZyVPnQN+0xgKXAjMJvLy+kkzsdJYD1mMXAcMDn2OJ6FFACOR4v5djb+wq8ZmB9iGZjdk5+t/3U2OjA/rKu4/MFdCZQgS4jUwhfIxfyyv/jSz8GzfoaHMIuAM5hFwUVhEID5pb8Uc6a+xDWpxSwGVgM7AINjj+P+eNLDwxkIxJxkNB7zw3w8MA5zHbG70gWcwywGLn7OYX54dznwXM6OFrP7+sYLnymAj0NPJJHYj1rgXeAtzBUGEhsgBYBtCcF8U1uEOf44BVlK9Gnq+W/50MVSoiLUjQO7EpHAAszfL7cACY49jkTiFBRjFgJvYg49SlRCCgB1CcD88L4JmAOMQv4ZW4seswg4duFzFHPzkWvFfl2VLOAe4FbMAlHr2ONIJE7LELAJ+AewARkiUIx8OSknDbgZ841tHuZyKYm6DACnMAuCQ5hrjKsdeiJlJAL3Yn7xT3bwWSQSV6QceBmzGOh08FlcFikAxEgDvgLcjTmGL7E/VZiFwN4LnzOOPc418cYsEr+BOaavc+xxJM5EWFgYEREReHt7ExQUREBAAL6+voSGhqLVXu4U0mg0hIWFodfr6e3tvfTr4OAgfX19l34dGBigo6ODvr4+B/2u7EI35tDACqDUsUdxPaQAsJwI4E7gq8BM5J+ds9EI7MMsBvYA+TiHizAReBT4JuYyTokH4O3tTXJyMgkJCcTHx1/6JCQkEBMTQ3h4OBEREURERBAeHv65l7ya9PX10dLSQkNDA83NzbS0tFz696amJsrLyykvL6eurs5mZ7ADRmAj8BKw3cFncRnkS+zqaICFmB/gtyCzsF2JLsyCYDewBXMIwZ5cD/w/YDnOX8opEcDf35/MzEyysrLIzMy87JOamoqXl716LalDf3//JTFQVlZGeXk5paWlFBQUUFNT4+jjWcNx4OeY8wQkV0EKgCsTjDlG+x3MQ0Akrk8TZjGwAXOtsa1a1M4CfoRZMErcgODgYMaPH09ubi4TJkxgxIgRZGVlkZDgOUUaLS0tnDx58rLP2bNnGR4edvTRrsYp4FfAf5ANhq6IFACXk4X51vYA126jK3FdDJiTCTcBmzGPNjUqWE8D3A78FJio+HQSh5GYmHjpRZ+bm8vEiRPJyMiwqYveVRkYGCA/P599+/axe/du9u3bR1tbm6OPdSUOAs8Cnzj6IM6GFABmcoBngPuQyVmeSBPmMMEG4GPMw24s5UbgOcwlfBIXwsfHhylTpnD99dcza9YsrrvuOmJiYhx9LJfFaDRSVFTE7t272bNnD3v37qWhwakage4DfgbsdPRBnAVPFwAjML/470W++CVmBoCtwBrM/cm/6EozFXgBc795p+fTiWjR0dHEx8cTGxtLVFQUgYGBBAUFERoaSkBAAP7+/pfswsLC0GjMjwmTyURHRwcAnZ2dGI1Genp66OnpoaOj47JPc3MzTU1N1NbW0tTURFNTE0ajEieLcsLDw5k5c+alz9SpU/Hzk1W7tqSoqIgNGzawbt06Dh065PDvgQt8BHwfKHP0QRyNpwqAVMyxoXtwoRe/j48PsbGxJCUlERMTQ1JSEsHBwYSFhREaGkpwcPClT0jIfyMYOp3usn8fGBigv988kdNoNNLZ2YnBYKCrq4vOzs5LD/Wenp5LWcMXf21oaKC722Pm/wxjHmG6BlgL1GHO6v818DWc7OcnKCiI8ePHM27cuM8lpgUGOnYInsFgoKGhgYqKCioqKqisrKSyspKysjKKi4tpbm5WfU+dTkdubi6LFi1i0aJFzJs3z+US89yJ1tZWduzYwYYNG1i7di1dXQ7tBD6IWcD/GvM4a4/EqR5gdiAQ+DFm9ed/ja91CImJiWRlZZGdnX3Zrxdvbs7A4OAgdXV11NbWUlVVRW1tLTU1NVRXV1NRUUFZWRm9vW73M2XE3IhoDE4wUjYwMJAZM2Ywffp0cnNzyc3NJTMz02Vj1W1tbZw5c4bTp09TUFDAiRMnOHXqFJ2d1vV4iY6O5rbbbuOGG25g0aJFhIeH2+jEEiUMDAywY8cO3n//fVavXk1PjzVRN1WpxZy0+x4emCjoKQJAA9wB/B7z7d/heHl5MWrUKCZNmnTpk5ubS1CQe8wFamhooLS0lNLSUs6dO0dRURGFhYVUVFQ4ixvQpQgLC2Pu3LnMmTOHWbNmMWnSJLe/zZpMJsrLy8nLy+Pw4cMcOnSI48ePMzBw+aiIyMhIbr75Zu68805uuOEGvL1l1aUrMTAwwPr163n77bfZtGmToyoLjmJOAD/kiM0dhScIgFzgdWC6Iw8RHBzMrFmzmDdvHnPmzCE3N9cj44+9vb0UFxeTn59PYWEhhYWFFBQU0NgoZ3x8lrFjx7J06VKWLl3KzJkz3f6Fbwl6vZ68vDwOHDhAe3s7M2fOZPHixeh0LhPJk1yFuro63n33Xd5++20KCgrsvb0Rc0fB/wXcun3iRdxZAHgDTwK/xAENfHx8fJg3bx4LFixg3rx5TJ48WT7Ar0JLSwv5+fnk5+dz5MgRDh48SGVlpaOPZXemTJnCfffdx/Lly0lNdQpnlUTiEI4cOcKKFSv44IMP0Ov19ty6AnPLbrevFnBXATAe+CcwyZ6bBgQEsHDhQu68805uvfVWwsLC7Lm929HR0cGxY8fYv38/x48fZ9++fbS326p/j+PIycnhvvvu49577yUnJ8fRx5FInIr6+npef/113njjDXt6Ck3AXzHnizksQcHWuJsA8MHc8OGHgF2u24GBgXz5y1/mzjvvZNGiRR7p1rcXBoOB4uJiDh06xMGDB9m1axcVFRWOPpYQPj4+LFu2jIcffpiFCxdeKrWTSCRXZnBwkFWrVrFixQry8vLstW0Z8HXM80XcDnd66qQC72OnWP/kyZO5//77+epXv0pERIQ9tpRcgfr6evbt28e2bdvYsmULVVVVjj7SVUlLS+Nb3/oWX//612XTGYlVdPUNAuCl0xLg69mJjjt37uQXv/gFu3fvtsd2RuAVzNUC/fbY0F64iwBYiLmMw6ZP1MjISB588EG+/vWvM3r0aFtuJRGkpKSEHTt2sHPnTnbt2kVTU5OjjwSYE/p++MMfcu+998pcEA9EP2Sgvq2Ltu5+2rv7aOnso6Onn/bufrr6Bugd0NPbr6d3QE/PgJ6eCy/7gaFh9EPXHmoZ4OeDr7eOAF8fAv288fH2IsDPmwBfH0ICfIkKDSQiOICIEH+iQgMJD/YnKiSQ4ABfW//WbcrOnTt59tln2bt3rz22O415ImyRPTazB64uAHSY+6//FLBZAXRqaiqPPvoojzzyCKGhobbaRmIDiouLWb9+Pdu2bWPXrl12LzGaOHEiTzzxBF/5yldctkZfcm30QwZqWzupb+2mvrWLutauS/9c39ZNS6dz9sXw9fYiOSaU5OgwkmNCSYoOIzkmjKToUGLDg9C6SGhq+/bt/PznP2ffvn223qoH+BbmC6fL4xp/u1cmGngXWGyrDcaNG8dTTz3FPffcI2uL3YCLnci2bdvGunXrbNqnfPz48Tz//PMsXbrUZntI7I9+yEB5fSvl9W2U1rZSWtdCeV0bDW3u1x3Tx1tHVmIUI5OjGZkSw8jkaLISo/Dxdt6Sy23btvGTn/yEo0eP2nqrt4FHcPFyQVcVABMxD26xyTzOcePGXXp4y+Qs98RgMHDw4EE++ugjVq9eTXl5uSrrJicn88wzz/CNb3xD1qa7ON19gxSUN1BU1ci5mhZK61qoae7EaPS4hnGX0Gm1ZMRHMCIlmolZCUzKSSQ52rmqnYxGI2+99RY/+clPqK+vt+VWJ4G7gHO23MSWuOLbbRHwITYY15uQkMCzzz4rH94eSHFxMR988AHr16/n+PHjVtsHBgby05/+lO9+97uyEsRNGNAPs/HQad7bfpKqRvcrP1WLyJAAJmYnkpuZwISseEYmx+AM96be3l7+8Ic/8Jvf/OZz3SNVpAv4JvCBrTawJU7w12QVXwbeAVR9wgYHB/PUU0/x5JNPOnxoisTxlJSU8OGHH7Jq1Sry8/Ov+fW33XYbK1ascJnGPUajifYLCWitXb109JiT0PoG9Azoh+nXD9HTr8dkuvymq9FoCPI399QKCTD/CAb5+xAc4EuQvy/BAb4E+/sSFuRHWJBTjtoQwmgycaCwine25XHsbI2jj+P0xIYHM3t8GnMnZDA5JwkfL8depkpLS/n+97/PunXrbLWFCfgd8DQuNk/AlQTAd4E/onKy37333suLL75IbGysmsvajQH9sDmbuKef7t5Bhg1G+gb16IcN5of54BDDhs/33vf39cZLpyXI3wetRkNIgB9arYaQAF+CA/0ICfAl0M/uDRSdjqKiIlatWsXKlSspK7t8emhKSgorVqxg2bJlDjrdF6MfMlBW30pFfRs1zZ3mT0sndS1dtHb1YrLxY8rbS0d4sD8xYUFEBAeQEBVMQmQoiVEhJESFkBQVir8LlrLlnavltY8OcqK0ztFHcQkC/Hy4fkwqcydkMHNsGiEOrDrYunUrjz76qGrhvivwAfAALlQq6AoCQAP8BnNzH9VISEjgtdde47bbblNzWVXpG9BT09L1qaxic2ZxY0cPbV3mMqIBve2y2rVazYUbnT+RIQFEhwUSGRJAVGgQUaEBJESGkBQdSlSoZ3hNDh8+zFtvvcXKlStZvnw5L774IsHBwY4+FvphA6ermjhVVs+Z6iZKa1uoauzA4MRDl7QaDQlRIWQnRpGZGElWQiTZSVEkR4eh1Tr/Y+nw6WpeW3eIwgrbJZK6Gzqtlumjkrl5xijm5Wbg623/ctje3l6efvppXnnlFVsNJTsELAOco/74Gjj7T5oGcwOGR1VbUKPhoYce4oUXXnCaVr1Gk4nKhnZKa1vMmcW1LZTWtVLf2mXzm5oa+Pl4kRRtLiFKig4lKSr0wr+HEh8ZjM7Nyt+MRqNDS/qGDUZOltZx+HQ1J0vrKKpqtKhW3BXw8daRGR9JVmIkY9LimJSdQHp8pFPElK/E3oIKXl93iLPnmx19FJciyN+HRZOzuWXGKCZkJtj973fv3r18/etfp7S01BbLlwO3YO4b4NQ46Y/VJX4HPKXWYsnJyfz9739n8WKbVQ5axIB+mOLKRk6W1XGyrI78snp6+u067MJu6LRaEiJDyE6KIjspipykKLITo0iIUj2H061p7epjb34FB4oqOXT6PH0D7vn9ciXCgvyZmJXAxOxEJmUnkJMU7VReApMJdp4s5eW1B6hu7HD0cVyOpOhQbpkxiuWzxxIREmC3ffv6+njmmWd46aWXbOEN6AbuBjapvbCaOM9P0ef5P8xjGVVhyZIlvPPOO0RHR6u1pFWU17exr6CCfYWV5JfVXzEu70kE+fuQk2SuK865IAwyEyMd4hZ0Vrr6Btl5opQtR0s4VlLj0eVnnybI34fcrAQm5yQxd0IGKTHO4ckbGjawcscp/vbxEY8SaGrh46VjydQc7luQS06y/Z7TBw4c4IEHHrCFN2AI8xyBd9ReWC2cVQA8CbygxkJarZaf/vSn/OxnP7Or29ZoMnG8pJZdJ8vYV1BJbUun3fZ2VXRaLdlJUYzPiGd8RhzjM+NJiPQsT4HRZOLw6WrW7C1kb0ElQ8Pu4dq3JRnxEcydkMHcCRmMTot1ePe6ls5eXl57gI2HTrtECM8Zyc1K4J75E5g/MdMuIcTu7m4efvhhVq1apfbSJuD/AS+rvbAaOKMA+A6wQo2FIiMjeeedd7jxxhvVWM4iKhra+OTYOTYcOk1dS5fd9nVXIkMCGJMWy8iUmEt1xu7oJWjr7mfd/iLW7CuSYlEBUaGBzBmfzrwJmUwZ6dgStIKKBn7//m6KK+02wtbtSIwK5es3TeGW60bZRQi8+uqrPPnkkwwODqq5rAn4AeYqNqfC2QTA3cBKVDjXxIkTWbt2LSkpKcpPdQ36BvSsP3ia9QdPc6baJZI/XRYfLx1j0+OYMiKJaSOTGZseh5fOdZMM61q6ePuTPNYdKGZwyL5zCtydkABfbpg6gluvH83oVMdMXjSaTGw4eJoVq/fT0eMy1WFOR3xEMA/dNJVlM0fbXAicOHGCu+66yxYhgf8Ffq32okpwJgEwEdgHKM4CWbBgAWvWrCEkxLbu46b2HlbtPMWafYV096mqGCUWEuDrTW52AtNGJDN1ZDLZSVEOdwFbQnldK//YfIxPjp1z6nI9dyEzIZLbrh/NTdNHEhFs/yZFbd39/G7VLrYdd9musU5BQlQID94whdtnjrFpIqgNQwK/BX6s9qKiOMuTMg44AiQrXeiuu+7irbfewtfXdg0nSmpaeOeTPLYeK/H4ZD5nIyzIn6kjkpg5No3rx6Y55GF/NRraunlj/SE2Hj4jk/ocgJdOy8yxadx2/Whmj0u3ezXBjhOl/GblLtq6XHqGjMPJSIjkyTtmM2O0bT28L7zwAj/60Y8wGFTNxXkJeAIn6BroDALAF9gBXK90occee4wVK1bYLNmvoa2bf2w6ytr9RfLh7QJoNRpGJEczbVQyc8ZnMC4jzmHege6+Qf728RE+2J3vNjX7rk5CZAj3LMjl9pmjCbBj18vO3gFe+PcePj58xm57uitzxqfz/bvmkBhluzHtmzdv5u6776arS9Wcrj9jTg50KM4gAP4BPKR0keeee45nnnlGheN8no6efv7+8VH+s6dAZmW7MFGhgcwca+5RPmNUil3GmppMsOnIGf704T5563NSgvx9WD57LHfPn0BsuP06O+4tqODX7+ygubPXbnu6I95eOu6YM45Hb5thMyGXn5/PrbfeSnV1tZrL/hJ4Vs0FrcXRAuC7wJ+ULvLss8/y85//XPlpPoPRaOK97Sf468Yj9Mq6XrciwM+HWWPTuGFqDrPHp9vEM1Be38ZvVu4kr6RW9bUl6uOl07J4cjZfWTSRkSn2SRrs7B3gl29tY/cpm/Wn9xhiwoN44o7ZLJ6cbZP16+rqWLZsGceOHVNz2e9hDgk4BEeOacoF/q30DE888QTPP/+8Oif6FKW1rTzx2nrWHzwtb/1uyNCwga7eAe5bNJGIYHW7jxmNJv615Tj/+/fN1DTLkj5XwWgyUVrbyuq9hRRVNpIeF27zORd+Pl4smZJDeLAfR8/WYJChRWF6B/RszyuluKqRyTlJqg8zCw4O5v7776esrIzCwkK1lr0BqAROqbWgNThKAPgBm4F4JYs88MADvPrqq2hUvL0NG4y8/Ukez/x9Mw1t3aqtK3EuwoL8ef2JL5ERH6nqug1t3Xz/tQ18dKBYPsxdmPNNHazZV8iZ6ibS4yOJtGGLWo0GxqTFMX9iFidKa2nrluWCSqhu6mDjoTPERQSTmaDuz7eXlxfLly+nra2NI0eOqLGkBvPcgALA7kkhjhIAvwcUjeG7++67+de//qVqwl95XSvffmktm4+elQ9vNybQz4dXvvsl1duNbj1WwmMvreW8vPW7DVWNZiFQ09zFiKRogm04zjY82J+bZ4yitatPDhdSyIB+mO15pZyuamLKiCRVcwM0Gg1Lly7FZDKxe/duNZbUArcDB4EKNRa0FEcIgEWYJ/wJX9vnz5/P6tWr8fJSryPc5iNnefK1DTR19Ki2psT58PPx4qXHb2N8hiLn02UMG4z8+r0dvLL2oCwLdUNMJjhX08IHu/Np6eplTFoc/r7eNtnL20vH3AkZJMeEcbCoSn4/KaS6qYONh8+QFhdBamy4qmvPnz8fnU7Hzp071VjOC1gObAHq1VjQEuwtACIw/waFO/SkpqaydetW1eawDw0beOHfe/jzmgPyh83N8dJp+cMjtzBtlOJ2E5c439zBY39aw/7CKtXWlDgnRpOJ4qomPtpfhL+vNyNTYmxWVpqdGMWssWkcKKpy20mh9mJAP8zWYyV09w0ybWSyqr0f5s6dS3R0NJs2qTL0zxe4GVgF2OUmam8B8A8U1Pv7+/uzZcsWsrKyVDlMS2cv3/nzR+w8WabKehLn5kf3zuOGqTmqrXeqrJ5v/2kttXLmg0cxOGRgf2EV246fIzU2nKRo29SgR4YGcvOMUZypbpLfYypQWNHAweIqZoxOJdhfvVDOtGnTSEhIYOPGjZiUT38KAWZhniBo897g9hQAizG3QRTmL3/5C0uXLlXlMHUtXTzy4hpKa1tUWU/i3Hxt8SQeummqauttPVbCU29slOWhHkxHzwAfHz7DmeomJmQmEKTiS+Uifj5e3DhtBEPDBk6V2c0z7LY0d/Sy5chZcpKjVRVukydPJj09nXXr1qkhApKAdGCN8pNdHXsJAG/gI0A46+rJJ5/kRz/6kSqHKa1t5ZEXV1Mvs/w9gjnjM/jp/QtVqxb5y4bD/P793RgMMlFUYk4UXLuvCH9fH0anxapalQTmjpbTR6UQFxHMwaIqmaCskH79MJuPnEWj0TAxOxG1/romTJhAdHQ0H3/8sRrLjQcGMc/HsRn2EgBPAveJGk+bNo2VK1eqkvF/7GwNj720lo7eAcVrSZyfnORo/vT4baqMhTWZ4Pfv7+KtrXkqnEziTgwZjBwoquLY2RomZicQGuin+h4jkqOZnJPErlPlcnKkQkzAsZIaKhramD0+XbWJolOnTsXLy0utxMD5mPsDnFVjsSthDwGQAHyAOcHBavz9/dm8eTMxMco7cx0+Xc33Xl7HgF7+8HgCIQG+vPbEl1Sp4TYaTfzfO9tZvVe1BiASN6ShrZu1+4rw0mkZnxGvujcgLiKYBZMyOVBYRVefvMQopby+jWNna5gzPkO1yo45c+bQ19fHgQMHlC51sUfARqBR8cGugD0EwGvAFFHjF154gZtvvlnxIYoqG/nuy+sYkMrZI9Bo4Pn/Wcq49DjFaxmMRn72z61yeIvEIgxGI0fOnLeZNyA00I9Fk7M4VlJLi5wjoJjG9h52nixjxuhUwoLUmR66aNEiamtryctT7C30wdwt8F+YQwKqYmsBMBv4I4I1/wsWLODll19WrKLL61r59p/WyHIaD+KBGyZz17zxitcxmkz84l/b2HzEZl44iZvS0NbNR/uLCAvyZ1SqurMFAvx8uHFqDmeqm2W7aRXo6htky9ESxmfGEx+hvMRco9Fw8803U1hYyOnTp5UuFw6kAR8qPthnsLUAWAUIFV2HhISwefNmwsOVNW9obO/mkRfX0ConsXkMk7IT+cWDi1Wp0f79+7tZu79IhVNJPJFhg5G9BRVU1Ldx3ZhUVXJRLuLtpWPJlBwa27spqZHVTEoZHBpmy9GzjEyJISUmTPF6Wq2W22+/nV27dqkxRXAsUAWcVHywT2FLAbAEeFrU+KWXXmLhwoWKDtA3oOfhF1ZT0yIVsqcQEujHa99brkpJ1qsfHeSdbSdUOJXE0ymvb2Pb8XOMz0wgOky9AUNarYa5EzLp7O2nqNImYWKPwmA0sT2vlIz4CNLjIxSv5+XlxbJly/jwww9pb29Xutxc4E1AtbiPLQXA2wje/nNzc3n99dcVZf2bTPCzN7eSd06OYvUknn1gkSptft/bfpJXPzqowokkEjNdfYNsOHSaAF8fxqbHqVZ+ptHAzLFpDOiHZK8AFTAaTWw/UUp8RIgq80ICAgJYtGgR7777LoODisL4/kAiKoYCbCUAFN3+V61aRXp6uqIDvP1JHit3qOotkTg5N0zN4eFbpiteZ29BBb98axvK+3lIJJdjNJo4WFxFSU0zs8alqRoSmD4qBYDjJfLSoxSTCfbkVxATHsTIFOX5G9HR0UyYMIFVq1YpbRQ0DtiNeYSwYmwlAIRv/3fffTc/+MEPFG1+vKSGn7/5iRodmSQuQnRoIH967DZ8fZQNiCqvb+N7L69jcMig0skkks9T1djOjhOlTB+VolrmOcDknCT8fLw5fFpxzNnjMWG+DEQEBzA6LVbxetnZ2fj4+LB9+3alS40G/q74QNhGAAjf/v39/Vm7di1hYeIJGO3d/TzypzX0yRatHoNGA795eClZiVGK1mnr7ueRP66WCaMSu9DZO8DmoyWMTFG3Le2EzHiC/H04WCxFgBrsL6okLiKYESqEA2bNmkVZWRn5+flKlkkEioBipeexhQD4F5AiYvj000/zpS99SdHmz729ncKKBkVrSFyLpdNHcv+SyYrWMBiNPPHKeplNLbEr5szzEgL9fBiXobxnxUXGZcTj7aXj6Jnzqq3pyewvrGRESrQqI4WXLl3Kxo0baWhQ9J4aCbyu9CxqC4CJwK9EDCMiIvjgE2WbDgAAIABJREFUgw/w9RXP3t59qpzX1snELU8iNNCPF799q+IuXq9+dJBNstZf4gBMJnNeQENbNzPHpqk2rnZiVgLDBiMnSutUWc+TMZpM7DpZzsTsBOIjhafZA+bKgLlz5/LPf/6ToaEh0WVigWNAiZKzqC0AfoVZBFjNj370I5YsWSK8cWfvAN/580f0Dwr/gUpckB/fN58Jmcqy/g8UVvHblbuQGSMSR3L2fDOnyuqYPzFTteTAqSOTZXWAShiMRnaeLOP6MalEhior5YyOjiYoKIjNmzcrWSYF+KeSBdQUABGYD2P1VSwkJISVK1fi7y+eDPPc29uk69/DmJSdyPfvnKOonKqpvYfH//wR/XopHCWOp661i30FFcyZkEGgn48qa04bmUJ7Tx/FVU2qrOfJ6IcN7DxVzrzcDMUtnqdOncratWtpbBTu35CCeWSw8ALqjEAy8yDmOkWrefzxxxV1/MsrqWXLUUWeEImLodNqefor8xW9/I0mE8/8cwsdPf3qHUwiUUhpbSv/84cPqW7qUGU9jQZ+eM88Fk/OVmU9T6etq48nXlmvuLW8Tqfjz3/+s9LjfEvRGZTufgEt5uQ/q1snBQQEsHLlSgIDxVwqRpOJH//1Y5rlUAyP4s6547llxihFa6zccUpO95M4Jd19g2w9VsLknCRiwoIUr6fRaJgzIYOTpfXUt3apcELPpqNngDPnm7hhao6iluOpqakcOnSIsrIy0SVygBWAkAtTLQ/AEiBLxPBb3/qWolG/m4+cla4tDyMkwJeHb5mmaI2qxnZeWat4XKdEYjPau/t55MXVHD1bo8p6Pl46/vjtW8hJUlYuKzFzqLiaFav3K17n2WefVWIeCgiPy1XLA/AHzGUJVqHVann33XeF3f+DQ8M89fpGOeXPw3j8SzOZOkKozxRwoeTv1Q3yJiRxeoYNRrbnnWNsWhyJKvQK8PHSMWd8BjvySuVzUwUKyhuIVdgtMDk5mR07digZGKQD/i1iqIYHIAK4ScRwyZIlilr+vrf9JA1t3cL2EtcjJTaMO+cqG/O7ascpmTAqcRkG9MM88ep6DhZXqbJedFggLz1+G8EBygdmSeD593ZyvESZl+bRRx9VYr4UEJphrIYAWA4Ipat+61vi+QsD+mHelZPaPI5Hb7sOL534t21jezdvrD+k4okkEtszODTMk69uYNdJ4VjxZWQkRPKb/7kJnYKBaxIzwwYj//v3LXT1DgivsXz5cqKjhTsN+gGLRQzV+Nu/R8QoLi6Om28WDl2wZl+hzN72MHKSolg4SSjV5BJ/eH8PfbJXhMQFGRo28PTfNrO3oEKV9aaPSuF7d8xSZS1Pp6Wzlz/+Z6+wva+vL/fee6+SIwh54ZUKgBhgnojhN7/5Tby9xbq3DRuMvCdv/x7HI7ddpyjj9kBRFTtVukFJJI5gaNjAD9/4WLVwwL0Lclk+e6wqa3k6Gw6e5shp8dbLd9xxh5LtbwKsfjgqFQB3IpBIqNVq+cY3viG86ZajZ6mXsX+PYmx6HHPGi+eL6IcN/HblLvUOJJE4iKFhAz9642Pyy9Xp7vfU3XOZlJ2oylqezl83Hha2nTlzJgkJCaLmicAIa42UCoC7RIwWLFhAWlqa0IYmE7y1NU/IVuK6PHLrDEX2/955itqWTpVOI5E4lr7BIb738jpKzjcrXsvbS8dvH15KgsIe9xI4UVon3HZZq9Vy001CnvyLzLV6TwWbJQBCAaQ777xTeNPjJTWU1bUK20tcj1EpMcwYLTRgEjDPifjHpqMqnkgicTxdfYM8vmIt1Y3KOwaGB/vzm4eXqjaDwJN5d5v4BVXJPBxgtrUGSgTAMhF7nU7H7bffLrzpugOKRyBLXIwHb5yiyP5vG4/Q1Teo0mkkEuehrbufx/+8lrauPsVrjU6N4ft3zVHhVJ7NvoJK4R4LCxcuRCtemWG1m1SJABCSKvPmzRPu/NfTr2fHiVIhW4lrkhITxvzcTGH72pZO/rOnQMUTSSTORV1LF997db0qk1C/PGccS6db3dNN8in0wwb25JcL2UZGRpKTkyO6dQZW9gMQFQBewHwRQyWZjluOnmVAPyxsL3E97l8yWdF89L9/fJShYYOKJ5JInI/iykZ+/NdNGIxGxWv971cXkJMsXJMuAbYdF7+oTpo0SdRUA4yxxkBUAEzH3IPYKrRaLcuWLRPcUrr/PY2IkACWzhC/jZxv7mDjoTMqnkgicV72F1byu1W7Fa/j6+3F89+8kQCVxhF7IkfPnmfYICbGJk6cqGRrq9qkigoAoa5Ds2fPJj4+XmjD8vo2iiqFxx5LXJA75oxTlJT0t41HVbkRSSSuwod7Cvj3rlOK10mNDeepu61OKpdcoH9wSLhCQ4EHAGCcNV8sKgCE4v9Lly4V3A6258nYvyfh7aVT1KCkuqmDTUfk7V/iefzxg73knatVvM6t141iyRTheLTHc7KsTshu0qRJaMQbntncAxAGTBWwY+HChSJmAKr1wJa4BosnZxMVGihs//bWPIxGk4onkkhcg2GDkR//5WMa25U3S3v6vvnERwjNmfF4TpaKCYCwsDAlQ/Js7gFYgDkJ0CrCwsLIzc0V2A7q27opqVHe8ELiOtw1T3ziX1tXHxsPn1bxNBKJa9HW3c9Tb3yMfkhZAmxwgC+/eGiJokRcT6WkpkXYdvTo0aKm4Rc+FiEiAISa/yxYsACdTiyeu+tkGSZ5mfMYRiRHMzY9Tth+1c5Tih98EomrU1zZyPPv7VC8zqTsRB68QVkvDk+krrVL+DmUnJysZGuL+zqLCIDpAjYK3f9iNZUS1+T2WVZVslxG/+AQH8q6f4kEgPUHT/PvXfmK1/nWrdMZlSLWv8VTMRpNnG8W69KYmKhoNkOSpV9orQDwAoRqFBYsWCBiRnffoHAsReJ6+Hp7ccNUq2daXGL9wdN0KpjLLZG4G3/8YA95JcqSAnVaLT+9fxFeOjUmyHsOVY3tQnbO6gEYB/hbaUNiYiIjR4rVc58orZOlXB7EwklZhAT4CtvLrn8SyeUMG4w8/bdNtHX3K1onJymKhxS25fY0apq7hOySkiy+xF/R3NIvtFYACLn/r7/+ehEzwDz8R+I53D5T3P1/vKSGcjkoSiL5HK1dffzyrU8U51J9/aap5CRFqXMoD6CtW2xGg7N6AITK/yZPnixiBqDYdSVxHWLCg8jNFp6HrUqsUyJxV/YVVPLBbmVNgry9dDz7wGIZCrCQ1s5eITtn9QBMs/LrAZgyRcxt1NOv56ws//MYFk3KQivYAKOls1cmi0ok1+BPH+5TPE59RHI09y1U1K7WY2gVnNLo7++Pr69wKNQmZYBBwChrT6LRaIQ9ACdKa2UzFw9CSdexjYfOyFwRieQa6IcMPP23zQwOKRuq9vAt00mIClHpVO6LqAAACAoKEja19AutEQDjAKsL+TMzMwkLC7PWDIAT52T2v6cQFxHMmDTx2v8NB2XjH4nEEsrrWvnzmv2K1vDz8eLH9wgNhPUoegf0wraBgcKdUC1u3WiNABCqzZo6VShtAIDTVXL4j6ewZEoOou2v88vrqWhoU/dAEokb8/7OU+wtqFC0xvVjU1kwMVOlE7knSsbXO5sHQKiOT0kC4FkFrRQlrsWiydnCtvL2L5FYh8kEz729nY4eZaWBP7h7rhwbfBUG9EPCtgo8ABYb2twDMH68WE/3hrZuumRDF48gMSpUuMvYsMHINjkpUiKxmrauPl78zz5Fa8SEBfGNm8S9vO7O4NCwcOmlAg+AH+BtyRfa3AOQkyOW2HWmuknITuJ63DBV3P1/9Ox5KRQlEkE2HjrNweIqRWvctzCXlFixPC93x2QS9wIo8ACAhV4ASwWAF5Bh7Ql8fX2FGxqcPS/L/zwFJe7/7fL2L5Eo4tfv7KBvUNxV7e2l43tfnq3iidwLk6ALQKtV1GvBz6I9LFwsA7A60JOdnS38mzh7Xsb/PYGEqBDhzmIGo5Hdp2Ttv0SihPq2bl5fd1DRGnPGp3Pd6FSVTuRmCLo3DQbbTzS19O0s5P7Pzha/2VXUy6xuT0DJQ+N4SS3tCvubSyQS8wjtokplVVdP3jUbnbJbq1siGN3EqKyviUXGlv5tCQXyReP/RqOJ+jaxIQoS1+L6MeICQLr/JRJ1MBpNPPf2NoYN4i+d9LgIls0creKp3AONYzwAFsUdLBUAQoF8UQ9AfVuXom9EiWvgpdMydYRYz2uj0cTOk2Uqn0gi8VxKa1t555M8RWs8fMt0/H0tSkD3GEQTnBV6AFQVABZPF/o0ogKgVnCEosS1mJCZIFxDfKK0ljYFbTYlEsnn+cemozR3iA2wAYgKDeS+hbkqnsj1EfUAOFMIIF7kBKmpYu7dmpZOITuJa3Hd6BRh2x0n5O1fIlGbvsEhXl57QNEa9y+ZTHiwv0oncm10Wi0+XlZ30AcUCwCLsJkHQKPREBsba60ZADXNHUJ2EtfiOgXxf6W1yxKJ5Mp8fPg0hRUNwvaBfj48dKPYBFh3I8BPPBzS16fIw6maB0CDgAcgLCwMPz+LShE/R02z9AC4O5EhAeQkRQvZ1rd1U90oRaJEYgtMJvjtyl0YRVvYAXfMGU9MmHAnO7dBST5EV5eiULhF6sESARCFQA+AhIQEa00u0djeI2wrcQ1mjE4VTo45JG//EolNOV3dxOYjZ4Xtfbx1fG3JJBVP5JoEOEYA6C98roklAkAoATA+XihtAFA2Q1niGkwfJdYhEuDI6fMqnkQikVyJP6/er6hD4JdnjyM6VFE7W5dHiQDo7u4WNrX0C20mAOLixGe7t3VLAeDu5GaKeYiMJhNHzkgBIJHYmubOXt7ddkLY3sdbx4MengsgWuVkNBrp7RWuxlBVAAhl8ol6AHr69eiHbN8CUeI4okMDSYgKEbI9U9VEpxz+I5HYhXe35SkatnX7rDGEBXluRUBEcICQXU9Pj5IqAFUFQLjICUQ9APL27/5MyBLPDzl0ulrFk0gkkqvR06/nLQXNgXy9vbhz7jgVT+RaiIofhQmAqgqAYJETREZGipjJ+L8HMD5DPDx0WMb/JRK78v7OU4qey3fOm4Cvt5eKJ3IdwoLEKuHa29uVbGtxFr0lAkDIVxsUJFYCIru7uT/jMsTCQ/phAwXl9SqfRiKRXI3+wSH+ufmosH1EsD83TR+h4olcB9EQQH29ouecxXX0NhMAwcFCjgMZ33VzfL29GJksVv9/pqoJ/bDMD5FI7M2HewqpaxV3S39t8SS0onW/LoxoR8SGBvFGTIDFYx2dTgAM6MXLTiTOz6jUGLwFW2MWVir6oZBIJIIMDRt4c/MxYfvU2HBFnT9dlXDBHICmpiYl26oqAITe5KICoH9wWMhO4hrkKkgAzC+XAkAicRQbDp6mpVN8UNBXF3teY6DYCLFQuEIPgMXqwek8AP3SA+DWjE0Tmw8BUCAFgETiMPTDBlbtPCVsP3VEEiMEw3+uiEYD0YLtkD02BNA3IAWAO5Mj+ABo6uihsV24M5ZEIlGB/+zOp3fAoi6zV+SeBZ4zKjgiOEB4EqDLewBEqwBkDoD7EhzgS3yEWAMgefuXSBxPT7+eD/cUCtsvmpQl3B3P1YgNFx+G5EwCwNfa3b28vPDxEftL7lfQe1ri3GQnRQkPACpQMJ5UIpGox7vb8oS7tfr7erNoUpbKJ3JO4iLEvOAAVVWKBp5Z/LC0RABY8jWXodOJuT0ABvQyCdBdyU6MErZVMp9cIpGoR2tXH58cLxG2v+W6USqexnmJDRcTAC0tLfT0CE/E7QQsztS05OVu9dtcq7VaM1zCYBLufyxxckQTgEwmOFfTovJpJBKJKB/sLhC2nZiVSHJ0mIqncU4So0KF7CoqKpRsW2nNF9vEA6BEAMj3v/uSnSTmAahv7VKUeCSRSNSlsKKB4iqxWnWNBm6eMVLlEzkfyTFiAqCyslLJtlbFDpzOA2DCJGwrcV60Wg0Z8RFCtudq5e1fInE2Ptwj7gW47frRaLXu3RkwOUbMy6Ew/l9pzRc7nwdAvv/dkrTYcOGBIKW1rSqfRiKRKGXL0bN09Q0K2caEBzFlRJLKJ3IedFotCZFiFU8KBYDqHgCrn9rKBIBUAO5IuuDtH6BUegAkEqdjQD/M5iNnhO3n52aqeBrnIj4yGC+d2HtQYQ6Ai4cApABwS1IE3WEAJTIBUCJxSjYeEhcAs8elq3gS50LJ8+7s2bNKtq605osteVNbHahRIgCM8v3vlojGwwaHhjnf3KHyaSQSiRoUVTZS2SA2uz4uIpisxEiVT+QciD7v9Hq9XZMALXHvW/02NxjER7a6eV6IxyL6A1HZ0I5RqkKJxCYEB/ii0WgI9r9yv7chg4GBwaGrxvo/PnyGby+7Tmj/WePS3TLHRzThuaysjOFh4V447YBV7lJLBMAg4GfNogMDA9Z8+WX4CCaKSZwbUZdYdZO8/Usk1qLTakmNCycpKpSk6BASo0KJjwwhLMiPsEB/woP9CQ6wrsnrgH6Y/sEhOnsHaO/pp727n9auXrwVNH6bPS5d0ZhhZyUzQcyzodD9b7WxJW/bAewoAEQzxSXOS4CfD5EhAUK256UAkEiuSUpMGJNzkhiTFktOcjRZiZHCg2i+CD8fL/x8vAgP9ieNcFXWHJceR2igH5294u8MZ0TUA+CsAsAqjEYjer1eaB6Ar7e637QSx5McLdYQA6CmuVPFk4jj46UjMSqU5JhQEqNCCQn0IzTQl5AAP0IC/fD6TN6LwWSkq3eQzt5+OnsHae7oobKxnYr6Ntq7+x30u5C4C34+Xlw/JpU54zOYOjJJuO2so9FqNeRmJbD7VLmjj6IaMeFBhARadWe+hDMKAKFCz4GBATEB4CM9AO6GkoxYe3sANBpIjQ1ndGosY9JiyUyIJDkmlJiwYOFBRp+lq3eA4qom8s7VcrykhqLKRoYNsgWm5OpotRpmjU3n5hkjuX5MKv6+3o4+kiqMSYt1KwGQGS+e2HjmjHhVBc7iAQDo7+8nJMT6Rgg+XlIAuBvxgg0xwPYeAC+dlvEZ8UwdmcyEzHhGp8YS5G/bcaUhgX7MGJ3CjNEpAPQNDrH7VDmbj5zl8OlqKQYklxEe7M+XZo1l+eyxiibMOSujUmMcfQRVyRSsbDCZTBQVFSnZ2mr1YDMBIJoH4OcjQwDuRlyE2Fzs/sEhWrosHmxlMSmxYcwam8a0kSlMykkkwME3qQBfb26aNoKbpo2go6efdQeKeW/7SVo61f+9S1yH0EA/7p4/ga8smkign21FqSNJjVUnn8BZEI3/V1ZW0tXVJbqtAbDajeJ0AkBWAbgfMWFiAqCmpVO11tA5SVHMn5jFwomZZAhm6NqDsCB/7l8ymXsW5LLh4Gne3HKMuhbhh4LEBfH20vHVRRN56KapDhen9iA+whxec5cecCNTxDwaBQXisxWACgTe1U4nAAJ83VfpeioxgglKDW3divZNjg7j5hkjuXHaCJIUJCI6Ah8vHctnj+WWGaN4c8sx3txyDP2QeH8NiWswKTuRH983X/gW6YpoNBq3efn7eOmE/+7y8/OVbC2kHmwmADo6xJK3IoL9hewkzktcuJgHoLGtx2qbIH8flkzJ4eYZoxifEa9a4p6j8PHW8fAt07l5xkh+9c4Ojpw57+gjSWyATqvlG0un8s2bp6F19W9aK3GXlz9AVlKU8AwAhR6AUyJGlgiAPpGFGxsbRcyIDBWrF5c4J95eOsIERV1zp+UCID0ugi/PGcdtM0e7pds0MSqUV777Jd7aepxXPjoguyO6ETHhQfzmmzcxPjPe0UdxCEPD7uPZGiXo/gfFAkDIfWCJAGgWWVhYAIQECtlJnJPosEDhG01T+9UFgFajYf7ETL6ycKJHPDw1GnjghsmMSonhx3/bRJebNU/xRDLiI1jxnWVumd1vKb2DekcfQTVGJEcL2fX19XHu3DklW58UMbJEAAi9ycUFgPQAuBNRoeKCrqnjylnw3l46lkzJ4cEbJ5Me5zmx0otMG5XM335wB4+/tJamDuvDJBLnYEJmPC8+dhshVrbkdTf6BtxHAIiWNObl5SmZAdCNlVMAL+J0AiA8yB+tViNdnG5CWKB4TkfzZ15u/r7e3D5zDF9dPNFlO5+pRUZ8BH/7wR18+6U1TtMtUWI5I1NiWPGdZW5d3mcpejcJAXh76YRnABw5ckTJ1vmA0AvTZgKgoaFBxAytVkNYkD9tXUKpBxInIyxIrCUmcOl26+fjxX0LJ/LVRROFW2y6IwlRIbzy3dt58Lf/lu2FXYi0uHD+LF/+l3CXJMDspCjh+QtHjx5VsrVQAiA4oQcAzFnjUgC4B2FBYh6AoWED/YNDLJqczf9bPpMEBd0E3ZnEqFBeeuw2Hv7jhwzohV2IEjsR6OfDHx+9lXA7VjsNG4zUt3VR29xFXWsXzR095ol+3f109g0woB9maMiAftiARgPeOh06nZYAP3MybZCfD1qtFn8fLyJDA4kIDiA82J+o0EAigv0JD/InPDhAuOLG5CYKYHxGnLCtFACfIik6jOKqJmF7ifMgKgD6B4d475n7hF1qnsTotFh+dv8ifvK3zY4+iuQa/PRrC0mJFZ+NYQnVjR0cPXue09VNnK5qoqyu1ebtpb10Wn54zzyWzx5rta3BTcK949LFEpHb2tooL1c0C0E4fmAzAVBbWys8EdDVmrZIvhjREEBIoJ/Tuvv7BvQ0tHVT39ZNZ6/5BjWgH75UzhQc4Eugnw8Bft7ERQSTFhuOt8qjWT/Lkik5HDlznrX7FPUSl9iQ5bPHsmhyturrmkxwsqyOzUfOcrC4yiGdI4cNRnr6xZL5jEb3mH0xTtADcPToUSVekAFA+IfeEgHQCfQDVl3lDAYDlZWV5OTkWH2oZAXT4yTOhZIcAEfTNzjEuZoWSmqaOVfTwtnzzZxv6qCrz7oBmTqtlqToULISI5k2MpnZ49KJEWyOdDWevHMOx87WyKRAJyQqNJDvfGmmqmt29w3ynz0FrNtfzPlm+07NvBKi1QzdgsLBmYgICRAOUyp0/58EhkSNLW28XwGMtnbxsrIyMQEgPQBug78LtXbuGxzi5Lk6jp+rIa+kluKqJgwq3E4MRiNVje1UNbazPa+U59nJiORobp81htuuH42vSvMvAny9+cWDS/jmHz5wm8Qqd+EHd80hWKVyv55+Pe9tP8HKHSfptlKM2hLR319Pv/P8HkSZkCHeh0ShAFBkbOmTpxQBAVBaWmqtCSA9AO6En49zD3eqb+tmb345e/IryCuptVtJ0tnzzfx25S7+uuEw9y6cyFcWTsTHW3mYYEJmPDdMHcHmI1aPBpfYiNysBNVc/3sLKvj1OztodsJJkcH+gh4AJxIxooxznAA4psTY0qdzmcjiZWVCZkSGBBDg5+NWDSI8FX8f52vL29Tew5ZjJWw+cpaz54UaXapGW3c/r6w9wKbDZ/j5A4sZnRareM3Hbr+eHSdK5fAgJ+F/bp6meA39sIHfvLeTdQeKFa3jpdMS4OtNT78eo8puoiAP9gCIxv9ra2upr69XsrXdPABWI+oBAHMiYImDH84S5TiLB6B/cIhPjp9jw6HTnDxXp/rDTynl9W089LsPeOz267h/yWRFa8VHBHPvglz+teW4SqeTiDI+M57po1IUrdHdN8j3X99AXkmtRV+v02oZkxbLhMx4shIjSY+LIDosiMiQALTa/9bqdfcNUtvSybnaVg4WVbGvoIK+QeFwsnAOgGjyoLPg46VjTKqYcD98+LCSrbsBRa4+m3oAlAiAZCkA3AJ/Bw/mOXu+mTX7Ctl0+Cy9Tu5RMhiNrFi9n66+QR6//XpFa31l0SRW7jgpvQAO5t4FuYrsewf0PPzCh5yrbbnq12m1Gq4bncrS6SOZNS7NoiZDwQG+jEyJYWRKDLdeN4quvkH+suEQ7+88JZRDEuQvlu/j6h6AsRlxwuE7hQLgEKAoScmmHoCKigoMBgM6nfV/ODIPwD3wd4AHwGg0setUGe9uO8GpMkXuNYfw5uZjDBuMfO/Ls4TXiAj2Z+n0kbIs0IGEBvoxd0KGsL3RZOKn/9hy1Ze/RgNLp4/iG0unkqLwmRkS4MsP7ppLWKA/r68/ZJWtj7eOUMG2366eAzA5O1HYds+ePUq23qfEGCwXAFWYSw2sus7p9Xqqq6tJT0+3+mBpseFW20icDz875gDohwys3lvIeztO2LUWOiTAl5zkaMKC/An29yU4wIcB/TAdPQN09PTT1t1HdVOHVbfxdz7JY0RyNDdNGyF8rvsW5PLR/iJZEeAglk4fKdwaFuAvGw6zJ7/iC/9/dGggv3hoCdNGJgvvcSXuXzKZd7efsOrFHBcRLNwJ0BkTGq1hUk6SkF1fXx95eXlKtlakHsByATCMWQRkWbtBaWmpkADITJQd4FwdH2/dZTFHW6EfNrB2XyFvbj5ut+l4GQmRLJ81lqkjk0iPj7jmyGOD0Uh1Uwf5ZfUcPn2eQ6errznO9/l3dzAiOZqMeLGJhxkJkUzKTuJ4SY2QvUQZSjL/y+vbeHPzFyd4R4QE8MaTX7ZJV0Efbx3RoYFWCYD4CPFW3Q1t3cK2jsbbS8e4dLEEwAMHDqDXC4cl9SjoAHgRa/yzZQgIgJKSEhYvXmytGRnxEXIqoItj69v/0LCBdQeK+cemYzS22+ch4u2l44k7ZnPH3HHXfOl/Gp1WS3pcBOlxESybOQb9sIEDhZV8uKeQg8VVV7TpGxzil29t458/vEv4dnXD1BwpABxASIAvY9PFKzp+t2rXVdv3PrbsOpu1FNYPGWhot05Ix0WIT+dstHIvZ2J0aoxwovPevXuVbH0cUDwwx1oBYDXFxWJlK77eXiRGhjpFhyuJGF46rU3WNZpMrD9QzN82HqHezreHX33jRhZMzFS8jo+Xjnm5mczLzaS4qok/frCHk6V1n/u6wooGPjlewpIp1jfUAlg4KeuaLxOJ+kwblYJOK/aTy/h9AAAgAElEQVT9n19ez7GzVxdtSnILrsWuU2VWl2DHCwqAjp5++hVUHjiayYLuf1Ac/1ekHi5izXfoOZENCgsLRcwAGQZweWwQfC6qbOTB37zPc29vt/vLf874dFVe/p9ldGoMf/n+l/nOl2Ze0avw8toDwg2KQgP9mDZK3Rix5NpMHSH+YnjnkxPX/BpbDdAZGjbw1w3We5ZFPQD2/hlWm8k5YgmAer1eaQWA4gRAsE4ACF3lCwoKRMwAyEwQi31KnARRv/UV6Ojp5//e2c5Dv/23wyZFzhybZrO1tRoND9wwmae/Mv9z/6+upYutR0uE15473na3RcmVGSVYF97dN8jegi9O/LvIJ8eE7mPX5M0tx6loaLPaLlGwfbsrx/99vHXkZiUI2R49epT+/n7RrU3AflHjT2ONABC6yre3twt3OpKjYF2bAJV6AHy0v4jlz77N2n1FDm3gY4+mRl+aNZb5uZ/3MqzdL17ON0XBbVRiPd5eOrIEvZe7T5Vfmip5Nf6y8TCtXYpDwJext6CCv24Qu5WKliC6sgCYmJUoPMdDofu/CLBepV0BawRAneimomGAjHgpAFyZXoUdvvoG9Pzv3zfz3Nvbr5kxbw9Kaq7ejEUtbp815nP/7WRpHeX1Yj/zqbHhNpk+KLky6XHhwuV/ltz+Abp6B3ji1fWqxc9PltbxzN+3CAnsIH8fIkMChPZ15cmVSjo8KkwAVCX+D9YJABAMA4gKgLQ4289Rl9iOTgUv7ZLzzdz3q5VsUeD6VpsdeaV28UB8kft40+EzwmtOUZCsJLGOxCjxaaYF5Q0Wf21xZSOP/mkNbQo9ATtOlPL4irXCnTJTFPRsqW503STvGYK5NUNDQ+zfr8iD7zABIPQmLyoSc1966bRyNLALYzSZMAhmn/9j8zGnux3Ut3XbZcreF3k7DhZXC68pGquUWE98pFhCXFN7j9V9LAorGvjq86vYV1Bp9X4D+mF+t2oXP3zjYwb0w1bbXyRVQQfCqqZ2YVtHEhHsT3ZStJDtgQMH6OpS1KhMlQRAsF4ACL3JFVUCyDwAl0b0VmFJL3NH8MragzYfXrL7VPkV/3vJ+Wbau8USh0Ymiz2sJNYTJ9gURyT5DszC4XuvrOPJV9eTb0Hra/2QgZU7TrLsmTf59658oT0/jWjbdv2wwWVzAKaPShHOcf7kk0+UbF0JnFeywKexNoNB2ANgMpnQCPyJZSREwnHbZLxKbE/PgJ6QQD+r7UQHi9iaxvZufv3uDn71jRvVLHK4RFfvAG9/cuX2oEaTiaNnzwv1BMhKisJLp5X9AOxAeLBYT/xahe2r9+RXsCe/goz4CK4bk8q49DiiQgMJ8veld0BPZUMbJ0rr2JNfoWpOjWgCYE1zp8s2elMS/1coAFRz/4P1AkDIA9DT00NVVRVpaWlW2+YkRYlsKXESRJOUnNUDALD1WAnp8RGqzHn/NEaTiefe3k5Hzxff8k+cqxMSAD5eOjISIuWETTsgKl7rW9WZX1Fe3yacMCqCqACobnRN979GIy4A2traOH5c0Zju3UqMP4u1IYBmQKgIWzQMMDJFui5dGVEB4KwegIu8sf4Q/9h0VLX1jCYTf3h/NztPXr3h5plq8R4IMgxgH0TFq61DS7YiSVQANDlXjo+l5CRFEx0WKGS7fft2DAZFI7q3KzH+LCK9KoW8AKKJgLHhwcIuNYnj6XNDD8BFXv3oIE//dZPVbVM/y4B+mB//ZZNF8diSmhYMRjE3/siUGCE7iXWI9r8QzZdxJGFB/oQE+ArZnm9yzQqAWePShG0Vuv9LMOcAqIaIABC6yufniyebjJA3F5dF1APgr1ITIVvzyfFzfO359ymqbBSyP3y6mnuee5cdJ0ot+vrBoWEq6sVcp6NSpQCwB6JRbSWZ+I5CSZWWq855mTXO+um2F9m2bZuSrRWphysh0sZI6CqvZO7xyJQYDikogZI4DtFbTZCf2K3CEVQ1tvPgb99n8eQcvrpoIqPTrt4G1mQyv/jf2ZYn9H19urpJqNNcTlIUOq1W2IMgsQzRVhE6O4zOVhvRCgCAahf0AIQE+jFGsM1zSUkJFRWWNXr6ApxCAAh5AEpKSuju7iY42PoaWekBcF1EBUCAn2t4AC5iMpmTA7ceKyEtLpyZY9MYkxZLVGggft5etHX309zZQ35ZPYeKq2nu7BXe60x1E7deN8pqO19vL9LiwimraxXeW3JtTIIKQOuCAiBJ0AMwODRMS4f4z4CjmDU2TfjvafPmzUq2HgZ2KVngSogIgHzAiJXhA6PRyKlTp5g1a5bVG8pEQNelb0AsBBDgAjkAX0RlQzuVDbbLcD6tIBFwVGqMFAA2ZlDQlS/aV96RKCoBdOBcD1GUxP83bNigZOsjgOpZkyI5AN2AZQHLzyAaBkiKCiNYMNFE4ljEGwG5lgfAnpyraRGunx6ZLPMAbE3PwKCQXahAvwxHIxoCcEX3v1arES7/6+npUToAaKsS4y9CRAAACL3JRQWARgPZsh+AS9I3KBgC8HVdD4Ct6R8colKwa1yGHLFtc0TL+VxSAAiGAM67YAnghIx44b+jrVu3MjgoJgwvLqHE+IsQFQAnRIwUJQLKm4tLIhoCcIUyQEciGgZIixMf3CKxjO4+sQd9ZKhYbbmjCAnwFeryCVDjghUA8yd+fky3pSh0/7dhDgGojl09AMXFxfT1iU2uknkAroloCMDHWycnQV6F0lqxOH5MWJDTN1lydVoEEzxdbfCZaAMgcM0eAHMnZAjZGY1GNm3apGTrjwFF3YO+CFEBcByBcleDwUBBQYHQhrKLmWuipLmJq/QCcASig2MAUhWMb5Vcm8Z26yb6XUTJWF1HEBceJGzral0Ac5Kjhcc8Hz16lIYGy8c8X4GPlRhfDVEB0A4IFeaLhgHS4iLkC8EFEQ0BAATKv+8vREmv9/R4mQdgS6wd6XuRiGB/l0p2jgwRC1kMG4w0C/4ZOYp5grd/gI0bNyrZ2oCN4v8gLgDAzomAWq2G7ESZCOhqDOjFBYCvj+uVRdmLhtZu4c5xaS5203Q16lvFR9yKltU5AtF++K1dvS5XAjgv12Hx/0OAzep2XUYAgMwDcEUGh8RDVz4uWBdtL4wmk/A0NekBsC31bV3oBb/vXSk8EyWYtNjsYg2AEqJChKfS1tTUcPLkSSXbK0oeuBZKBIBQJUBhYaFwOcTY9DghO4nj0A+J9zf3kUmAV0U0DCArAWyL0WgSznL3CAGgoAumI5iv4Pb/4YcfCneGvIDN4v+gTAAcEzHS6/XCkwHHpkkB4GoMDivxAEgBcDVEEwGTokOluLIxlY1iAmDMNeZIOBNRIQFCdqJVEo5CNPsfYO3atUq2rgUUuQ+uhRIB0AjUixiKhgGSY8JcslmGJ6PEA+DrJUMAV6NC0AOg02qFe7hLLEO03fK4jDiXmQkQJJiw6EoCIDIkgNzMBCHblpYW9u3bp2T71YgPl7QIJQIABMMAx44JOQ/QaFxLIUtALz0ANkPJvAHRkiaJZZw93yxkF+jnQ1aC9ZMeHUGQv5gAEG2U5AgWT8kWFmRr1qxheFjRiOePlBhbglIBIHSVP3TokPCGMg/AtRgaNgiPR5Vu6qtzXsFAlbgI66dySiznjIKBTRMEb5z2RnReh2irZEeweHKOsO3q1auVbN0BKBoeYAkO8QAUFhbS0yNWByrzAFwLk8mzxqPak6Fhg7A7NVZBExfJtWlo66a9u1/IdkJmvMqnUR9/X290WrHXh5LmYPYkJjyIcRli75vOzk527NihZPsNgHgNtYUoFQBHRYwMBoNwGGBseiwa+V5wKURvqVr5F31NGgRrzqUHwPYUVIh1f5uQ5fweACWzOlxFACyalC38DFq/fj16vaLf5zolxpaiVACcx5ypaDWiYYCQQD+So12nWYYE4dG1WsEbhidR3yYFgLNyvKRGyC4+IpiEyBCVT6MuSgSAq4QAFk/JFrZds2aNkq0Hgc1KFrAUNZ6wQlOKDh8+LLyhzANwLQxGo5CdjABcm/rWLiG7WCkAbE5eidDdCIBZ49LUO4gN8FWQoCs6ItyexEUEC4ebe3t72bJli5LttwPi7SStQA0BIPQmP3DggPCGUgC4FuI5ANIDcC1EPQAxYYHCMVyJZZytaRbOeJ81Ll3l0zgPoh5Be7J4crZwqHndunX09ioqdfxQibE1qPEEEPLlNzU1UVVVJbShFACuhUE0BCBzAK5JfZuYB0Cn1Qp3cpNYhtFo4kRpnZDtlBFJBChws9saJc3tNDj/z/XiKeLZ/++//76SrYcARd2DrEENAXAMECp2FM0DyEmK4v+zd97hUVbZH//MpPdCSEKAUEInQKihN+lFmliQtTfctZdVV13rFgs/saFYERWWpihFkBLpvUNogRACIb3XSTK/PwZcVtrk3Hda8n6eJw9K5tx7gcm8557yPV66TrzLIC4C1HMA1yUtSx4pjAzVOwFsze7jsjSAp7sbPdo01vg0zoGz+/XR4cG0axIuss3Ly+OXX5TS92sB+ajPGqKFA1AMiLR9pXUA7m5GWuuDgVwGg7P/xLsw53PlDoAeAbA9u47KCgEB+sY21e4gGmNWEahz8o+D0T3bim0XL14snnVzgYUqxjVFqySg6EmuJAik6wG4DO5usrdZZZWseLAuUVpuoqRc1i6sy2rbnqOpmRSI6wCaOu1tubamAAwGGNHDYeH/Suyg/ncpDnUAdu/erTAZUJcEdhXchcVm0u6BukZekUxwJtjfR+OT6PyR6mozmw8mi2zDgvzo0Nw5RYFUyvjchBcCexAXEyWWyc7MzFQV/1kHyDSkhWj1LyG6ypeXl7Nv3z7Rhs76g6FzOW5uMo9fjwBYR15RmchOjwDYh4R9J8W2I7rLb6O2pEwYdQLwd+LixpHxbcS2CxYsUNX+t1v1/0W0cgCOAPkSQ2kaoEFogC5m4iIYDcIIgO4AWEWeUHI2UHcA7MLmg8lUmGRDsYZ2beWU7ZpFpfI8t7+vczoAHu5u3NClhdheMfxfBSipB0nQ6p1VjVAWWEUQKM4FJDPrOm5GoziPqacArCOvWOYA6BEA+1BSbmL7kTMi25AAH+LbOl83QFFphbgOIEA4RdDW9I1tKv6ZSE1NVR39uwaQT5ASoqVrKXqSqzgAnXUHwOmRhv9BTwFYi7gGQHcA7EbCviSx7YgerTU8iTZUm81iRb8AX+d0AFTC/9999x3VaheWOSrGUhzuACQlJZGeni7asHPLhiI7HfshLQAEqNQjAFYhrgHw1x0Ae7F+30mxAt6guBh8vGSjd22JVOXQ3wkjAEF+3kryy99++63K9sXYUfznUrR0AMQ9fdLQSbPIUEIC9EpmZ8bbUy7YVFmpOwDWII0ABPrqDoC9yCksZf/JNJGtj5cH/ZxQGlg61CfQCSMAo3u2wdNdNt9gx44dHDx4UGX7xUCRygJStHQAMgFRueuGDRtEGxoM0FHvBnBqfLzkBT/S/va6RlmFrPJYxTnTqTnr9srTAGN6ycVpbEVBiSzyFBrgq/FJ1BnTq53Y9ptvvlHdXil8oILW5aWiNIDUAQC9DsDZ8VUIXeoOgHVUVMoqzD0VJrrp1JxVO46J0wA920U73YjgnIISkV39YOdSoGzXJJxWjcJEthUVFcybN09l+zQsBYAOQWsHYJPEaN++feTni7oI9ToAJ0cld6nSa1yXKBdGANyMRn3egh3JzC9m25EUka3RYODG3vJbqi3Iypc5AM4mQT1W4e912bJlZGVlqWw/F0sLoEPQ2gEQXeWrqqrE44HbRNd36qlZdR0VB0CPAFhHuYL4iIebHgWwJ8u3HhHbju/b3qk0AbIKZCNvnckB8PRwY3h3eZeFBuF/h1T/X0Trd9NBhJOMpGkAN6NRlwV2YtRSALIio7qGNAIAehrA3qzbm0RJmex9HRbkRx8nGhCUlS9zAAJ9vZ3mfTe4cwtxUWJ2djYrVqxQ2f4wsFdlAVW0dgCqAdFVXq0OQE8DOCvSCEBVdbVYPa2uofL35CGsfNaRUVZRyZo98mLACf3aa3gaNaQOgMEAYYHOEQW4UaH4b+7cuaqT/xx6+wftHQAAUU/fjh07KCuTVZXqhYDOi7TSvLRcSVO7TlFuUogA6A6A3Vm+NVFs2ye2qdNIoGfmyRwAgPAQfw1PIiOqXiDd2jQS23/55Zcq21cD36ksoAW2cADWS4zKy8vFqoAdmkfqNxknRSr6oYf/rUdlNKvuANifXcfOkp5bKLI1GgxM7Ber8YlkSCMAgFM4MeP7tsco1CnfuXMne/bsUdn+N0CmD60htnAAdgKi8lBpGsDLw5220eEiWx3bIh05KxUZqYuoyC1Xq3gPOiKqzWaWbpEXA07sF4uXh+M1HPKLy8SFuo52ANzdjIxVCP9//vnnqkdwWO//pdjCATAB2yWGKnUA+mAg5yRUqNQonXBXF1GpDDfpaosOYfGGg2JNgGB/H0bGO8d8AGkkIzLEsQ7AoLgYsR5BaWmp6uS/Mizqfw7HVj0lojTA5s2bxfOUO7fUHQBnRBoByBXK29ZF3BR6+Sur9EJLR5CeW8jGg6fE9lMGx4mnbGrJ+RyhA+DgCMDE/h3EtvPmzSMvL09l+yWA0gJaYSsHQHSVLyoqEudVOsVE6aImToh0VkOuHgGwGqUIgD5x0WEs/O2A2LZ5VD26t3H8mGCpA9CgnuMcgMb1g+nWSl78V1vC/2A7B2ALllRAjZGmAQJ9vWjdqL7IVsd2BAsnzkkH3NRFVBxffeSy49hy+DQpGfKL4G2D4zQ8jQxXjADcNKCDOHpy5MgRtmzZorJ9GrBSZQEtsZUDUIxQ4EClDqBHW8d7xDr/izQFkFesOwDW4q6g5lelOwAOw2yGHzfKp8j1iW1KdESwhieqOem5siF2ft6e+PvYX8HV092NUfFtxPazZs3CrFY4+znCy7EtsKWupKgOYP369VQL58D3cIKQmM5/8XR3w08o05xToDsA1qLyQWrSawAcypJNh8VCTkaDgalDumh8opqRli2LAIBjogBDu7USpyUrKir49lul6H0V8IXKAlpjSwdAJAiUk5NDYqJMKCOuRZTe1+xEBPnJ583nF8tEoeoiUq0FU2WVuBJdRxvyi8v4ddcxsf2YXm2p70BtfWkKACDCAZ0ANw2QF/8tWrSIzMxMle1/AU6rLKA1to4AiK7ya9euFW3o5eFOh+YNRLY62qMy9jO3UDZprC4S5CdzAHQnyzmYt3af2NbT3Y1bHVgLkJFXJNaSsHcEoG10OB2aRYrtP/zwQ9UjzFJdQGts6QDkACK1izVr5OOR9TSA86DyA55XpD+crEUaASgoUdIx19GIxJQMdh1LFdvfNKADAcKBNqqYKqvEHTsRdpYDvu0GuaO0b98+8cTaC6QBy1UWsAW2ni0pquhLSEgQ6wHohYDOQ2RooMiusqpaPGq0LiL98NcjAM7Dt7/KZWX9vD2ZpNDXroordAKEBvgwpGtLsf1HH32keoTPAKcbcGJrB0BUCJifn8+uXbtEG7ZrEu6Q6lKdy4kMlXn4GblFem66BgQIIwCFJboD4CxsPHiKU+dFk9QBizCQo+SBXUEN8KYBHcX1YXl5eXz//fcq2ztd8d9FbO0ArANEn+SrV68WbehmNNKlpT4e2BmQRgDScgo0PkntRlproadZnAezGeaukY+GDw30ZUyvthqeyHqkEYAI4QWhpri7GRnfVz5G+euvv6a4WCkiuQJIUVnAVtjaAUgDRCX9KnUAzqCQpSMP8alUFtdFpNXUBXoKwKlYuiWR7AJ58evdI7o5ZCrq+RyZFkC9QPt0Lwzt2pLwYJmzYTab+eSTT1SP4HTFfxextQMAIHqSb9q0Sex1xesOgFMgdwBkHyh1FWkxVY4ut+xUVFRWsWi9XB44MjSAMT3tHwWQjgX29nTHV6gTUhNuGdRJbLt69WqOHj2qsn0qTlj8dxGndQAqKirEVZfNGtQjzIG9sTqWlswQoQqgHgGwniA/b3y8PES2adl6qsXZWPDbfsoq5LVid4/shrubPT7W/4tK1KJegK+GJ7mcttHhxCq0/n388ceqR/gCSw2AU2KPd0oCwupHaRrAYIBureXDHnTUiQwNEOtt6w6A9UQoVFKn6X/PTkduYSk/KMgDR9ULVJK6lZCj4ACEBMouCdbyp2FypcSUlBSWLl2qsn0V8JXKArbGHg5APiAq6ZcWAoKuB+BoVAp8dAfAelQqqfW/Z+dk9spdYnlggHtHdVeaEFlTshVadm0ZAYiqF8gNXVqI7T/44ANxO/oFluNkyn9/xF7vEtFVfs+ePWRlZYk21B0Ax6LyYJK2FdVFmjUIEdlVVFYpfXDr2I6s/GKWbpXJoQM0DAtiVHxrDU90bQpLy6molDksoYG2cwBuuyFO7AgVFxfz5Zdfqh7BaYv/LmIvB0B0la+urua3334TbRgZGkDj+o6dlFWXkRam5ReXUVLuNMOynJ6YqHoiu/M5hagNNdOxJV+u2KE0qvn+MfF26wgwm+XS3fVs5AAE+noxro+89e/LL78kJ0euywCcwdL+59TYywHYDIhKjtXaAfU6AEchbU1L18PSNaJ5g1CR3bksvQDQmTmfU8gv2+XV51H1Ahmv8ACsKdn5MgdAOpnvetw0oCO+wuJYs9mshfLfRzhx8d9F7OUAlCOcDqhSBxDfNlpsq6OGtO/2vHC+eF3EaDTQTOgAnEzL1vg0OlrzxfIdSoqY947qjrenfdQBpS2l0k6ha+Hp7sbNAzuK7X/++WfV1r9iLNK/To89+0VEI/6OHz9OcnKyaMOe7aLt3hKjYyFAOKFOz/9bT6OwILH864mzugPg7JzJzGP17uNi+7AgP7tNCiwprxDZ+dlAtn1Ej9ZKbeDvvfee6hFmYxmG5/TY8+kovspLxwP7eXvSMUYfD+wIpPMY8nV5Wqtp2yRcbHvirKy4Vse+fPLzVqqq5bUAdw7rSqCft4YnujKlwrodP42FgAwGmDqks9j+4MGDJCQkqByhGnhfZQF7Yk8HYA9Cr0ilDqBvbFOxrY4cf29ZBKC4THaTqIt0bC5zbqvNZk6dz9X4NDq2ICU9T6kWIMDXS+mBaC2l5bJ2Oa0dgN7tm9JcWBgLMH36dMxq1bHLAaX8gT2xpwNQhUUUqMasXbtW/I+iOwCOQRra0x0A6+kgVDhLzcwX39h07M+nP2/DJGyzA7htcJzNqu0vUlrhHBGAu0Z0E9ump6czd+5c1SP8n+oC9sTeCXLRVf78+fPs3SublNU8qh4N7Dh3WseCh7D2Qn8wWYeXhzutGtcX2R5P1cP/rsS57AKWbDostvfx8uCekd01PNHlSH9uPTUcYdyxeQM6t4gS28+YMYOyMqUU5EEsE3BdBpdwAACWL5fPU+itRwHsjkGoA6y3pltH2ybh4gLX/SfTND6Njq35fPl2pRkBE/vF0jAsSMMT/S9lwgiAlkXa94/pIbYtLCxk5syZqkd4Fxf7CLO3A3AUi0BCjVFxAProDoDdMQodAJW2p7pEd4VZF/uSdAfA1cjKL2bBb/vF9h7ubtw/Wv6AvB7SGgBppPCPtGpcn55tm4jtP/nkE/Ly8lSOkAHMU1nAETiiR05U0r9t2zays2WtS/FtG4vbpXRkmF3LEXY5pBoXFaYqjp7J1Pg0Ovbg6192KtXIjIpvo1Qgdy3KTTIHQKsIwH2jeoiHj5lMJj744APVI3wEuFwLkyMcgF8lRlVVVaxcuVK0oZeHO11aNhTZ6sioEt7k7SVc4sr4+3jSobmsADAxJUOpoEzHceQXl/Hd6j1ie6PRwLQbe2p4InXcNHAAmkWGMjCuudj+m2++4cwZUWD6ImXAJyoLOApHOAArEUok6mkA16G4VCgMonFVcG2kW+vG4iEnevjftfl+zR7yi+UXzUFxMcQpFMpdDaNRdv2uUph3cJG7R3YTpxzNZjPTp09XPcL3WFIALocjHIAsYLvEcMWKFVRVyW4v/To2FdnpyJCGKm2hDFbb6N1enuvccUTppqPjYIpKK/hmlWi6+u88PqmvOFx+NaQPYGmk8CJRYYEM795KbP/jjz9y+LC8w+ICM1QXcBSO0skVTUnKyclh27Ztog0bhgURHaFPB7QXUgcg0FcmIFRXMBoM9O/YTGRbbqpk9/GzGp9Ix97MW7uPjDz5zIzYZpHc0KWlhidCHJFSUTkEi9KhdG+At956S2l/LClteXWmg3GUA7BMarhihXzCYt9Y2QenTs0pKi0X2dUXDhGqK3SMaSDWOd9z/Jy4WEvHeSg3VfL1L2pRgEcn9MFTw3HBPsLJeyopgMjQAMb2bie2/+2339i6davY/gIuJfzzRxzlAOwBRMnIZcvEvgN9YuWhU52akZFXLLKTThGsKwzuHCO23XzotIYn0XEkP2w8yNmsfLF9VFggNw3ooNl5pLM/ShSEv+4Z2V3JiXnjjTfEthdIBH5RXcSROMoBMCNMA+zdu5ezZ2VhzC4tG+KrF5nZhUxhiDI8RHcArobBAAPj5A7A1sQUDU+j40hMlVXMWioqpfqde0f1IECjlJuvMAJQJCwWjgwNYGyvtiJbsLSVq4yav8C/cDHhnz/iyFm5opJ+s9nML7/InC4Pdzd6tGksstWpGdIcZUSIvzicWNvp2LwBUfUCRbZns/I5eU4fAVybWLHtCIkp8uLzID9v7h6hjUSwtHhXmiq8b1QPPBRu/6+99prY9gIpgPLgAEfjSAfgV0Dk/inJAitUUOtYT3qOzAEwGgw0jQjR+DS1g9E95TeeNbtPaHgSHWeg2mzmvYUblda4bXAnGtVXlwiuHySL3BUKHIAGoQGM7tlGtB/Anj17lGrJLvBPwOUHlzjSASgARO/eX3/9lYoKWeiob2xTzVtgdC7ndIZcVrNZg1ANT1I78PRwY2hXeeX2at0BqJXsOpbK5oPy2g4PdzceGqsuDhQWJJs2WFhScwfg/jHxyrd/xTEn8BAAACAASURBVJG/54CvVRZwFhzpAICwDqCwsJCNG2Web3iIP60bh4tsdawnJT2XSmGFb5to2ZS72szATjHifG16biGJp9M1PpGOszBj8UalGRrDu7emXdMIpTNIi3czcmsWKWxUP0jp9n/o0CF++uknsf0F3sEFZX+vhKMdAHFJv0oaYGAnuWykjnVUVlWTIowCxArn3NdmxvdpL7ZdszsJtQuPjjOTdC6bnzbLxWwMBos4kBRPdzeCA3xEtjXtFrpvVA+lvv/XXnuNajXtgSxglsoCzoSjHYBEIEliqOIADFJopdKxHmnRWZvocE17lF2d6PBguisUr67YdkTD0+g4I5/8vJVShZa6Li0bigWmGocHi5UA03MLrX5tdEQwI+Nbi/YBOHLkCAsXLhTbX+A9QNbj7IQ42gEAYR9lYmIiSUki34GYqHq6KqAdkFYoe7q7KYckaxMT+sWK61ZOnstWqhTXcQ2y8ov5VmFQEMBjk/qKbtdNFIp202uQAph2Yy+l2/+bb76pevsvwDL1r9bgDA6A+Cq/dOlS8aYDOuppAFtz4OR5sa3erWHB08NNqd956dZEDU+j48zMWbWLrHz55bRJRAjj+tRcWa9ppNwBOGelmFHb6HCGKMgXHzt2jHnz5ontL/AhIK9udkKcwQFYB5RIDH/88UfxpoMUBFV0rONQcrp49GzPdroDADCyRxuC/WX51WqzmV92HNP4RDrOSkm5iVlLZbNSLvLQjb1qPJGzubBrJyu/mAIruwD+MqG3UvfWSy+9RGWlkgx2CS489OdqOIMDUAokSAw3bNhAZmamaNPY5pFiTXUd6yg3VXL8rLQOoD71AmWtRbWJWwd3EttuOphc4yprHdfmx02HlASfQgN8mDq0S41sOjSXFe2ePJdj1eu6tGpIfNto0R4ABw8e1CL3/ykuOvL3WjiDAwDCNEBVVZU4DaAyVU3HenYeTRXZGQ0GbujSQuPTuBY92jSmZcMwsf3i9Qc1PI2OK1BdbeaDHzYrrTF1SGerL0ehAT40DJMJCZ1Ms84BeGRCH9H6F3nxxRdVc//lwLtKh3BSXNoBALU0wMBOehrA1mw+lCy2HdpNPue7NnDbDXFi2/TcQjYp/N3ruC4bDpxi+5EzYnsfLw/uHN7VqteqtOyeTLt+pGJw5xZ0UNhj165dWvT9fw3UyjnazuIAnAJE15VVq1ZRWGh9K8ml9GjbWLNhGDpXZl9SGiVlMtXGTjEN6uxwoOjwYPrENhXbL95wUEkcRse1eW/RRqoVxB8m9etAfSuiAJ1iosR7HD597Yi60Whg2jg1lcK//e1vqqp/VViEf2olzuIAAPwgMSorK2PVqlWiDd3djHq1uY0xVVaxTXgbMRoMjFOY9+3K3Dq4k7i32lRZxY8bD2l8Ih1X4tiZTFYqFIB6erhZVQvQS/j5WVpu4nhq1jVfc2PvdjSLlMuCb9q0iZUrV4rtL/A9UGt1tJ3JARDH8lXSAEMU9NV1rCNh70mx7YS+sUq9v65IgK8XY3rJHZ9VO4+RXSBqrNGpRXzwwybKKuSV75P6dyD0Ggp/YUF+4hqVA6fOU3WNvLyXhzv3j+4hWvsiL774opI9ltv/m6qLODPO9Mm6G0sqoMYsXbpUPByoT/umNW570akZCXuTqDDJ2gHDQ/zpV8eKNSf0bS+erw7w/Zq9Gp5Gx1XJyC1ifsI+sb23pztTh169FqB3+ybi1rz9SWnX/P7tQzoTERIgWxxYvXo1CQkJYvsLzAGOqi7izDiTAwDws8QoLy+P3377TbShp4eb3g1gY4rLKth4MFlsP0WhGM7VcDMauXmgvPVv17FUjp6Rtcbq1D6++mUneUWlYvub+sfi73PlC5LK5+a+azgAoQE+VhchXgmz2cxzzz0ntr+ACXhddRFnx9kcAD0NUEtZtVOej+zSsiGdW8iLjVyJG7q0IDJUfvOZu1Z+49OpfRSWlPPNql1ie19vT8ZdYRBVoK8XvYVFqqXlJnYdv3p78LRxNRcjupR58+axa5f8z3yBrwB57tJFcDYHYD2WaUs1ZsmSJeJqz17tmuhpABuzft9JcgrlN5G7R3TX8DTOy+1DOottz2UVsH5/rf/M0qkhC347QI5CTcitg+Muq8MZ0rWleGDXjqOpV00JNm8Qyo0Khb8mk4mXX35ZbH+BCuCfqou4As7mAFQBImWfs2fPsnmzTADD08ONAfqIYJtSUVnF0i1yXfresU2Iq+VRgM4tomivMARp7tq9euufzmWUlpuYrRAFaBAacJko18j4NuL1Nh64eqnXk5P7KxX9fvLJJ5w4oVy0/ymQrLqIK+BsDgAopAHmz58v3lRPA9iexRsOKPUmPzapr5IeuLOjIvxTXFahNBNep3az4Lf9ZObJBwU9NLbn7w/m6Ihg4hT6/zcdPH3F3+8T25Se7eSSv0VFRbz5pnLRfhnwb9VFXAVndABWIZy3PH/+fKqqZNXmvdpFE6iLAtmU1Mx8th5OEdt3aBbJDQoTwZyZsCA/+itMqFyy6RDFQsElndpPhamK79bIxwVHRwQzvLtFmfPWQXFiR/xQcjrpuZcLtxmNBh6dqCb5+84775Cenq60BpaJf7VS9e9KOKMDUAqI1BvOnz/Ppk2bRJt6uLvRX08D2Jxvf92tZP/4pL5KLXLOyo292+HuJvtxrK428591+zU+kU5t48eNB8WqnAD3je5BiL8PYxTGUy+7ynjqif1iiYmqJ143MzOT6dOni+0vkA/8S3URV8IZHQAA8egmlTTAUD0NYHO2Hzlz3R7gaxEZGsCDY9XkQZ0No8HA+L6XV1pby5o9Jzhr5Vx1nbpLUWkFP26Sp4miw4N56Y4hYge8sqqaVTuPX/b7Ab5ePDBG7Wf61VdfFUvCX8JbgHyUogvirA7Az1giATVm4cKF4jRAz3bRhOojaG3O1yt3KtnfNjiOttHhGp3G8fRsH01UvUCx/Vxd+EfHSuYpFor269BUbLvxwKkrahI8MCb+moqD1+PYsWPMmjVLbH+B88AM1UVcDWd1AIqAFRLD9PR01q9fL9rUzWjUowB2YMOBUxy7jg74tTAaDbx69zC8PNw1PJXjmNSvg9h2/8k09p+UR1R06hbnsgtYu0deJW9QqMJdtvXIZb/XvEEokwd0FK8J8NRTT2EymZTWAF5DWHvmyjirAwCwQGqokgYY2aO12FbHOsxm+GCxrFbjIs0bhPLYJLWiIWcgNMBHaerf/AQ9969TM2Yt267UjSMhLaeQ9fsvb/979taB4toXgLVr17J0qahz/FKSgM9VF3FFnNkB+BmhR7Zw4UIqK2VDMGKbRRIdESyy1bGeLYdPK3UEAEwe0MnlZZxHxrcRfwDmFZWydnetHVSmYyNOnstm9a7Lc/G25D/r9l02/Gdo15Z0a91IvGZVVRVPPPGE6tEAXsQi/VvncGYHoBhhN0BWVhbr1q0Tbzyiux4FsAfvL1abWW4wwKt3DXNph02lovrnLYlUVMrqXXTqNp8t3W430aiSsgp+3Hjwf37P29OdRyf1VVr3888/Z/9+5QjYPkAeMnZxnNkBAEelAeJb12rBGWfhWGqW8tz6AF8v3nloDL4uKOXcqlGYeJyq2Qw/bDh4/Rfq6FyBU+dzWLH98py8Lfhx0yGKSv+3/fCekd1poDDzorCwkFdeeUXxZAA8A1x9LnEtx9kdAHEaYNGiRZSXl4s2bVw/mNimkSJbnZrx4Q+blHTKwVIP8I97RyhJiDqCUQpyqjuOniElI0/D0+jUNT76cQul5baNfFdWVTNv3f8OqGpUP4ipQ7oorfvGG29w/vx5pTWwyM7/qrqIK+Psn5jiNEBubi7Lli0TbzwyXk8D2IOCknLeXSDr2riUvh2a8vc7h7hM5MZoMDDsgrKahCWb1CInOjoZeUVKMwKs4YeNBzmXVfA/v/fUzf3x9JANEgI4deoU77//vurRTFhu/3UaZ3cAQCE/M2fOHPGmQ7u2UqpO1bGelTuOsfnQlfXBa8Ko+Db8eVxvDU5ke3q0bUx4sL/ItrisgoS9+tQ/HXXmrNpNWo6ygM4VKTdV8tWK/9X86N+xGf06qBXuPvvss5SVlSmtAcwE7JMDcWJc4Qn3MyB6hy5fvpzsbJmwU0iAj/IbVcd63pizhvxi5R9q7hrRjUcn9nH6SIBK+P/XnccpN8m6XHR0LqXcVMm789UjcFdi7pq9ZOQV/f7/3p7uPH3zAKU1N2zYwKJFi1SPlgO8qrpIbcAVHIAShBMCKyoqWLBAXEfIWIW51Do1IyOviNfnrNFkrTuGdeX5KYMxOqkX4OPlwcC4GLH91fTUdXQkJOxNYu2eJE3XLCgp55s/pBceGtuTqDC54mVlZSV//vOfMatrGLyKxQmo87iCAwDwndRQJQ3QJ7YJ9YP8xPY6NSNhbxI/bNSmsn1iv1heu3uYUxYGDu7cQqynfi67gL1J5zQ+kU5d5615CRSWyIqmr8QXy7dTcMl6LRrW49bB8nHXADNmzODAgQOqRzuCJfyvg+s4AGsA0ZzHzZs3c+zYMdGmbkYjoxX6tHVqzvQFGzh+Vi4TfCkjerTm3w+MdLrpgaMUCkyXbT2CnUXcdOoAWfnFvLdoo2Zr/eeSyn+jwcALtw9WqqlKT0/n9ddf1+J4z1BHRX+uhKs4AJUoFAPOnTtXvPGNvdo5fT65NlFabuKpj5decWiIhIFxMXz7wm00Vxg1qiX1g/zo3rqx2N5evds6dY8lmw4pzQm4SEiAD7HN/ttGfdOADnRs3kBpzaeffpr8fOWJl2uxtP7pXMBVHABQTANI80bREcHExURJt9YRcC67gBc+/+Uy6VAp0RHBfP3Xm51i0NPI+NYYjTKPcn9SGinpeu+/ju14Y84azit2BbgZjbz1wCjCg/2pF+jLtBt7Ka23adMmvvtO/PF/kSrgcdVFahvyZkz7cxa4HajxVS43N5fhw4fTuLH85vXbPr3typ6czSqgpKyCXu2baLKeh7sbN3Rpib+PJ7uPnaXKTjKof+SZWwYQJqwr+fKXnSSeztD4RDo6/6XcVMWRlExG92yrNPnPx8uDjjENiGsRRRuF0d1VVVWMHz9eC9GfWcCXqovUAB+gKdAK6AT0BuKBrpd8tQOCAAOWYne7KxK62jzV74G/Swxnz55Nr14yT3Ro15a8M389JWUV13+xjmZ8v2Yv4cH+TB2qphp2EYMBbh/Smf6dmvHP79ax/cgZTda1lqiwQPGHoamyyu4DXHTqJruPn+Xb1Xu4Y5jaz12HZpGg2Ek9c+ZM9u7dq7YI5AMvqy5yFbyB2AtfbS/82g5oguXBbi1VwAlgC7AJWA/IitdqgKtlt1sBRyWGgYGBnDt3Dj8/2e3rzW/XalahrmM9BgO8fMdQxmpcjGk2W/Lp785fr4n+gDXcMawLj06UDUBZs/sEf521XOMT6ehcGQ93N756drLS7V2V8+fP065dO3Jzc1WXegZ4R4Mj1QfiLnx1uvBra2x3kd6L5dI7F0i1xQauVAMAFo9om8SwoKBASRNgUv9Ysa2OHLMZ3vx2jSZKgZdiMFjEeOb/fSo39m5nl3bBQZ1biG2Xb9OL/3Tsh6myimc/XW435/hKPPHEE1o8/JOAD2rwejcscYvhwF8u2P6CJQWdAawC3sKSjm6PbaPocRf2Ogl8Acg/QK6Cq0UAAB4EPpEY9unTh40b5a0ud/17PgdPKeeidAR4urvx7wdH2Uyd8Vx2AV//spMlmw5rVnx4KeHB/iz75z2ijpLisgqGPvMZFSZ99K+OfYlvG80Hj4wTF65KWblyJSNGjNBiqYnADxf+O/DCVz2gEdAAaAhEXfhqDsQAXlpsbAOqsDz7XgAKrvNaq3BFByAISMNSZFFjDh8+TNu2snDy0i2JvDK7Tg+PciieHm68O20MvdppUxh4JVIy8vhi+Q5+3XmMikrtHrg3DejAc7cNEtku33aEl79apdlZdHRqwgNj4nlgTLzd9istLaVDhw4kJWmiTpiC5aEfrMViTkIq8ACwQnUhV+oCuEg5liKLDhJjb29vhg0bJtq4SWQIi9Yf0HXYHURVtZk1u04QHRFCjI36+oP8vBkUF8PNAzvRMCyIzPxisvJFE6n/h3tGdqdpZKjI9qMlm/XRvzoOY8/xc7RtEkF0hH2eoS+//DI///yzVssFYSnUq00EAlOwXILXAuKWJld0AMAS/rhDYnjixAkee+wx3Nxq/kd3dzOSW1TK/pNpkq11NKCq2sy6vUmE+PvSrmmEzfbx8nCnbZNwJvaLpV/HZnh7uFNQUibKiboZjTw/ZbBoBGpRaQX/+n6dw9oWdXTMwOZDyQzp2pJAX9s+Sw8ePMhdd91FtQ3ScLUMA9AXaAn8hLCF0FUdgGTgLgRhnZKSEjp27Ej79u1FGzeqH8T8hP1yl0tHGbMZNh5MpnOLKBqGBdl8v/pBfvRu34RbBnVibO92xDSoh5eHO3lFpZRWXD8a1LF5JJMHdBTt/dv+k6zaafNuIB2da1JuqmLP8XOM7dUONxuNSa+urmbSpEkkJyfbZP1aSgegDZaBeTV2AlzVATADoYBotmRBQQFTp04VbRzo582+k2mkZirLUuooMHlAR24e1Mnu+wb4eNEmOpwhXVvyp2FduXlgR/p2aEaH5g1oVD+IID9v6gX6EuDjhbenOwYDjIxvQ9dWDUX7zV65S7PZCDo6KmQXlJBdWEL/js1tsv6nn37KzJn6nB4B7bEUMdY4b+KKRYAXaY5FOKHGfwaj0cjJkydp0kRWTJawN4mnP1kmstVRZ0SP1rx29zCnHferFdXVZoY9+7lmcxF0dLTg73dqr8uRlpZGu3btyMvTa10UeAj4tCYGrqYDcCknsagl1Zjq6mpmzZol3rh/x+Z2CT3rXE7v2Ca8cufQWv/wBzh0Ol1/+Os4Hf/8fi1HUrSVpJ42bZr+8FfnPWpYHO/KDgBYxBFEfPbZZ5SVyUQujEYDtw62f/i5rtMxpgFvPTBaaayoK7HrqEX8y2g0UD/Ij4ZhQTQMCyI0wKdOOEA6zompsopvV+/RbL25c+eyZMkSzdarw3hjmXlg9YeDq3+KeAFnsEg01pjZs2dzxx2iZgJKyioY/cJXFJaUi+x1akZMVD0+e2oSgX61raPn6uw4eob6Qf5ERwRf9sAvq6jk+NksjqRksC8pjU0Hk/X3oo5N6RTTgOHdWzGwUwzhIf6arJmZmUn79u3JzMzUZD0dAG4B5lvzQld3AADeBZ6UGHbv3p3t27eLN56xaCNzft0tttexjqiwQL54ejL1g2VzHOoCpsoqdhxNZemWRBL2JmkqYqRTd/H0cGN4t1bcOjiO1o1F96xrcuTIEUaMGMHp09pKfTsKNzc3mjdvTmxsLG3btqVNmzaEhob+/uXh4UFJSQklJSVkZmayd+9edu7cyaZNm7R0gk5hGUx03RtBbXAAWgOJCP8sW7duJT5epnKVkVvEjS9+TWWV3rNqK0ICfPj86ZtoEhHi6KO4DLmFpcxdu5d56/bpEyx1RHi6u3HzoE7cOawrIQEi0VWrKS0t5f333+e9997TYuyv3QgICKBTp0506tSJuLg4OnfuTPv27fH2rnmUsqKigkWLFvHBBx+wZcsWLY73APDZ9V5UGxwAsKghiXRWp06dypw5c8Qbv/D5L3qfto3w8/bk0ycnajaR7PTp00RHRyvNOXclCorL+HrlTr5bvdcm8w10aifxbaN54fZBdi90Li8vZ/HixXz//fesWrWKigrncF69vLxo0aIFrVu3pm3btsTFxREXF0dMTIxNPkvmzJnDtGnTKC5WUiDdCXS/3otqyyfhzcB/JIZeXl6cPn2aiAiZqtyh5HTu/Jdoa51r4OXhzgePjqNLS1n//B9ZvHgxt9xyC927d+ell15i5MiRmqzrChxKTufV2b9yMi3H0UfRcWI83d14cnJ/JvXvIBpapSVFRUVs2LCBNWvWsHPnTg4cOEBOju3evyEhITRs2JDo6GiaNGlC69atad26Na1ataJJkyYi5VgVdu7cyZAhQ8jPV9Kb6YxlpPBVqS0OgCeWoQ+ip/jrr7/Oiy++KN78vncWsvfEObG9zv9iNBp456HRmgmOrFmzhtGjR1Ne/t+UWJcuXXj++ecZP3487u62nOjpHFSYqnjj2zX6WGGdK1Iv0Je3HxpNx+YNHH2Uq5KamsrJkydJSUnh3LlznD17lsLCQoqKiigsLKSsrIzi4mKCgv43chEQEEBwcDDBwcGEhIT8/mtUVBQNGzakcePG+Pr6OuhPdXVWrFjB6NGjMZvFurN/B1671gtqiwMA8E/gOYlhVFQUycnJeHh4iDbedDCZxz78SWSrcznP3jqAmwdq02a5Y8cObrjhBgoLC6/4/caNG/PQQw9x3333ER6uTarBWTGb4fPl25m1dCvyzxSd2kZESACznpqoa5s4IVOmTGHu3LlS881An2u9wFWlgK/ESeARBE5NYWEhbdq0oUMH0YBBosOD2bD/lCZT4+o694/uwZ3Du2my1vHjxxk6dOg1Q4cFBQWsXbuWGTNmsGPHDtzd3YmJiamVUQGDAbq2akhogC+bDiU7+jg6TkD9ID8+eXIijevXpmm5tYeYmBgV0boGwNvAVQeW1CYHIA/ohqUroMacOHGChx56SFzUEeTnzepdx0W2OhZGxbfh6ZsHaJJ/TE1NZdCgQZw9e9aq11dXV3Ps2DEWLFjA+++/z549ezCZTDRq1AgfH9tWQdubdk0j8HB3Y8eRM44+io4D8XR348PHxtOyYZijj6JzFSIjI1m3bp20TdIILAau2lpRmxwAgAyEY4LT09Pp06cPMTExoo2bRoawZk8SuYW6dKuEPrFN+ef9IzAa1Z/+WVlZDB48mBMnTojsKyoqOHz4MIsXL+add95h6dKlJCUlYTKZCAkJccp8YU3p3CKKwpJyDp5ynbYrHW15fspg+nds5uhj6FyHtLQ01qxZIzXfCOy/2jdrUw0AWP48+4FYifHQoUNZtWqVePNlWxP5+9e/iu3rKu2ahPPJk5Pw9ZLVYFxKSUkJQ4YM0aqX9oo0bdqUrl270qZNG9q0aUOrVq1o3LgxERERGI2uI1NcVV3NA+8uYl9SmqOPomNn+nZoynt/vtHRx9Cxgh9++IGJEydKzZ8B3rnaN2tbotMMzMAKAYQr8euvv7J79266dOki2nxkjzZ8vmwHZzL1oRbW0qh+EO/9+UZNHv4VFRVMnDjRpg9/gOTk5CvOLHd3dyciIoLg4GACAgJo3bo1X3/9tU3PooKb0cg/7hvBlDfmkl8sm4uh43p4e7rzzC2iSeo6DsDT01PF/Jr5Hde5rljPd4B4gPo771zVWbouRqOBPw2TOQ91kdAAHz58dDyhgeoh9aqqKqZMmcLKlSs1OJmMyspKzp49y6FDh9i6dSuRkZEOO4u1RIQE8NTN/R19DB07csewrjar+C8oKWfljmO88PkvfLxkiy5ApQGKgkDX9B5qWwQAoBTLRKQXJMbz58/n9ddfF9cC3Ni7Hd+s2kVqppKAQ63H29Oddx8eS6P66h9EZrOZadOmsWjRIg1Opg3jxo3jH//4h6OPYRUje7Rh8YaDupZFHcDX25NbB2k7yTQlPY+EfSfZdDCZvSfO/c9Df+exVF69a6jeZaBAenq6irnpWt+sbUWAFzmKpSWwxn8+s9mM2WwWK8UZjQYC/bxZtzdJZF8XcHcz8s60MXRr1UiT9V544QXef/99TdbSgvbt27N8+XK8vLw0We/42Sw+X7adz5Zt46dNhzl8Oh0vT3ca1AvURIrUYIA2jevzw6ZDuj5ALefWQZ0Y0EldYKuyqpqfNh/mrXm/8f4Pm9iWmEJadsFlojXpuUX8sOEg5aYqYptF4uFeWx85tuOtt94iMTFRar4K+O1q36xtRYCX8j1wm8TQz8+PU6dOUb++bPpVdbWZW9/4npPnskX2tRmDAV6+Yyhje7XVZL0ZM2bw+OOPa7KWFgQHB7N9+3ZatmypvFZVdTUzFm1i3rq9VFdf/mSODA1gYr9Ybh3UCV9vpTwhoM+1qO0YDPDj63cqh/83Hkhm+sL1pKTXrNYpNNCXqUM6c1P/Dpq8X+sCVVVV1K9fn9zcXOkS9wJfXu2btdkdS8YyEanGmEyWqMnQoUNFGxsMBsKC/Ph1p64L8EceHtdLsxDkggULuP/++1WkMjXFaDSyYMECevbsqbxWSbmJxz/8iZU7jl31Vl5UWsGOo6ks23aEtk3CaVAvUGnPhmGBLN5wUGkNHeelfdMI7hjWVWxfbTbz9n/W8+6C9aKi0dJyE9sSz7Bo/QGy8kuoH+xHPQ3qf5yB4rIKEk9nsOHAKZZsOsSOo6l0ahGlHPFYtGiR0rA64H0s44GvSG2OAIAl/CF6ivv5+ZGUlCQeEgRw97/nc0Dvs/6dif1ieeH2wZqstX79eoYPH05ZmfNUr6vOlLhIWUUlj334E7uOpVpt4+Huxmt3D2NoV7XIw8MzfmB7oi4QVBt5cnJ/ptwQJ7b/99wEFvx21ZZyEW2iwxkUF0O/Dk1p1VgWcbUnZjOcy87neGoWx1KzOHE2i6NnsjiXnf+7oz6sWyteuXMonh7q9+v4+Hi2b98uPi6WLoCrSqHWdgfgBmC11Pipp55S6grYlpjCn2f8KLavTfTv2Iy3HxqNmwZ98ocOHaJfv34qYTHNmTBhAosWLVLOyVdXm3lq5lI2HLiq035V3IxGZvzlRnq2ixbvv2qnpYJbp/bx4+t3iotul287wstfyTVSrCE82J+4FlF0imlAh+YNaNGwHp4OqBkwVVaRllPI2ax8zmYWWH7Nyic1q4DUzHxKyq48pthggPtG9eCBMT01UTNdvnw5o0ePVlniBHDNG0FtdwAAtgCimKyvry9JSUlK7Vz6jQo6xTTg48cn4OWh3nSSmppKr169SE21/nZsa9q1a8fWrVsJCAhQXuvt//zGf9btKdy0fgAAIABJREFUE9sH+Hox76UpRITIzlJWUcmwZz6jpPyaxcM6LkZ4sD/L/3WPyLakrILxL80mx84qp0ajgUZhQcRE1aNxeBDhwQFEhvoTFuRHSIAPAT5e+Pt6YbTiaVtuqiS/uMzyVVRGQUkZeUVl5BWVUlBSTn5RKeeyLQ/9jNwiqmuYVgzy8+alP93AwDhZ99gfKS4uJjY29op6IzXgI+Av13pBbWwD/CPvAAslhiUlJbz11ltMnz5dvPlTk/sz5Y25dbYftmlkCP/38FhNHv55eXmMHDnSqR7+wcHB/Pjjj5o8/Oet3af08AcoLCnntW/W8NFj40X23p7u9OvYjJU79GLA2kRciyix7Q8bD9n94Q+WaFhKRh4pGdcuNvTz9sTtgoS4t6cHHu5ulJRXUFVl+cwtM1VSYaqy2Tm7tmrE63cPIzzEX7M1X3rpJdWHP8Cy672gNgoB/ZEfsLQFipg5c6bVA2WuRExUPSb2EykTuzzB/j5Mf3gsgX7eymtVVFRw0003cfCg8xSpeXh4MH/+fE0q/jccOMX0hes1OJUl9fTbvpNi+34ddH342kZciwZi2x83HtLwJNpTXFZBQUk5BSXlZOQVcTYrn9zC0t9/z1YPfzejkYfH9WLm4xM0ffj/9NNPvPfee6rLZALXHSBQFxyAaiwjEUWUlZXx9tticwCm3diTIA0egq6El4c70x8eQ3S4ugBIdXU1U6dOVRmIoTkGg4HPPvtM3ClyKUfPZPK3z3+5YquflE9/3iru6e/csqFm59BxDppGhIrszmTmcer81cdp11VaNgzji2du4p6R3TUZYHaRo0ePcscdd2jR2fQtcOVihUuoCw4AwBxAHDf+9NNPpeMYAQj08+b+0fFie1fDaDDw+j3D6Nhcfuu4lCeeeIIFCxZospYWGAwG3n77be68807ltXIKS3ny46Wa59yPpWaxN0mm7BcR4i+uIdBxThqFy4r/dhxxnnSbM+Dr5cETN/Xj27/dSmwzbaW+MzIyGDduHPn5yiqyVcBMa15YVxyACkCsy1pWVsbf/vY3pQNMHtiBmKh6Smu4Co9M7MPgzi00Weutt95yKpU/d3d3PvnkE5566inltaqqq3n+sxWk5xZqcLLL+WW7OPNFr/byTgId58LD3Y1IoUN3JCVD49O4Lv07NmP+36dy+5DOmnQzXUp+fj4jR47k6FH5z+wlLACsEqGpKw4AwBdAitT4+++/Z8eOHeLN3YxGnppc+4euTOrfgT8N1WYg0nfffcdzzz2nyVpaEBYWxtKlS3ngAZG+1GX838INNer1rymbDyaLbfU58bWHBqEB4jD1yTQ9/B8dHsz7j4xj+sNjiQzVPjJWUFDAyJEj2b17txbLVQKvWfviuuQAVABvSo3NZjOPPfaYUm6mR9vGjO6pjQSuM9K7fROevVWbMaPr1q3j3nvvdRqVvz/96U8kJiYyfPhwTdZbtjWReWvVKv6vR1pOoTi10ESYM9ZxPlSKcNNzbBOdcgWC/X14ZEIf5r18O73bN7HJHjk5OQwbNkzLEeafAVYPDqhLDgDAV1gkgkVs2bKFJUuWKB3gycn9CA3wUVrDGYmJqsc/7hupSWjswIEDTJw4kfLycg1OJsdgMDB06FDWrFnDN998Q1jYNUdrW83h0xn847t1mqx1PUqFDoCvl4fGJ9FxFL7e8n/L7MISDU/iGgT6efPwuF78/OZd3Dm8q83EiFJSUujduzfbtm3TasnzwMs1MahrDoAJeENlgaeffpqKiusWV16VID9vnqxlqYD6QX68/8iN+PuoD/hITU1l1KhR5OXVbNCIlvj5+XHvvfeyb98+Vq1axeDB2sgXA2QXlPD0J0spN1Vqtua1MFXKWqC0UDLTcQ78vWVTKSsqq2zaP+9sBPv78MCYeJa8fif3jOyOjw2d4K1bt9KzZ0+tcv4XeQDIqolBXRAC+iPfAM8DIsmmpKQkPv30Ux555BHxAUb0aM2K7UfZpJCjdRZ8vTyY8cg4TarGs7OzGTp0qEOEfoKDgxkzZgyTJk1i+PDh+PhoH6UxVVbxzKfLyMgt0nxtHZ2r4SeMANSVh3/zqHpMHtCBMT3b2vShf5E5c+bwwAMPaD3H5Evg55oa1UUHwAS8DnwtXeDVV1/ltttuUwoJPzdlELe89t1VdaVdAaPRwBv3jqBVI/XQeHl5OePHj+fIkSManOz6uLu7061bNwYOHMjgwYMZMGAAnp62HVH673kJ7E9Ks+kef0T6gVYhjBzoOB9ubrJArzR65Ar4enkwoFNzJvSNpUsr++heVFRU8Mwzz9iiqykZeEJiWBcdALDoAjwOiEZjZWdn89e//pUvvvhCfIAGoQE8c8sAXp39q3gNR/PYxL6aVIubzWbuu+8+Nm7cqMGproyXlxddunShb9++DBw4kH79+mki32stX67YYXdFNU8PNwJ8ZOFfe6UodGyPqVImQ+7tWbseDz5eHvSJbcqwbi3pE9tUE3lyazl16hQ333wzO3fu1HrpEuBmoEBiXLv+ha2nGngKK6QSr8ZXX33F1KlTGTRokPgQY3u1ZVtiilK/tqO4sXc7bh/SWZO1XnzxRb799ltN1rpI8+bN6dmzJ/Hx8cTHx9O5c2eb3/Cvxg8bDzLzJ82qfK1mUFyMuP2rpEwfBlRbkJZzeNrxAWkrWjYMo2e7aHq1b0JciyiHTBecM2cOjz76qC3qmqqBOwBxf7rr/wvLWYslZzJWYmw2m5k2bRr79u3Dy0t2ywJ47rZB7D+ZxrkskQPnEDq3iOL5KXLH51K+/PJL/vEPsUYTYMnfx8fH06NHD7p37058fDzh4eGanE+VtXuS+Of368SyvFLc3YzcN7qH2D63yP7DX3RsQ70gX5Gdm9FAq0ZhHEutUV2Zw3B3M9K6cX06xUQR16IBnWKiqBco+7Nrwblz53jwwQdZunSprbZ4AVikskBddgAAngVGAKJE6dGjR5k+fTrPP/+8+AD+Pp78876R3Pv2AiqrnH9iYMOwIN5+aDQeGnjSCQkJTJs2rcZ2Pj4+DBo0iMGDBzNw4EDi4uJwc7O/Z3891u45wYtfrNRU499aHh7Xm2aR8l7+7Py61/5VWwnykxe0fvvCbSTsO8mSTYfYcfSM0xQG+nh50CKqHi0bhdEmOpyWjcJo2TDMadIWs2fP5oknniA3N9dWW3wB/Ft1Eef423IcR4BPuc7M5Gvx+uuvc8stt9C8eXPxIdo3jeCBMfF8vMT+YeKaEOjrxQePjCPYX71C/uDBg4wfP97qlsrAwEBGjx7NhAkTGDlyJP7+2k3fsgXfr9nLews31HiuuBbc0KWFshqjXgNQe3B3l3d7G40GBneOYXDnGMoqKtl97CwHk89zKDmdE2ezycwrstl7PDTQl/pBfkSE+NM4PJjo8ODff40ICXDKVtWzZ8/y4IMPsmzZdSfxqjAHeFCLheq6AwDwKjAVEI2tKy0t5S9/+QvLly9XOsTdI7pzPDWLX3dZJeFsd9zdjPz7wdFER6hP90tLS2P06NFWDb2IjY3lL3/5C1OnTsXPz095b1tTbTbzfws2MHftXofs3ywylL/fMUT5w7GyyjluejrquGn0pPT2dKd3bBN6x/5XFa+isoqzWfmkZReSV1RKXlEZeUWl5BeXYTabqao2U3xJp5OXhzteHm6//7e/jyeBft4E+npd+NWb+kF+hAX7OSRfL8VkMvHxxx/zyiuv2FrD5BvgHiwDf5TRHQCLcMKbKIwMXrFiBZ999hn333+/+BAGA7xy11DOZhdwODldvI6teOaWAXRv3Uh5ndLSUiZMmEBKyrXHMowcOZKnn35aUxEeW5ORW8TLX69i51HHTFDz9fbk7YdG4+utXuzoCukoHevQImJ3NTzd3WgWGaqUbnJ1VqxYwZNPPmmPFubZWB7+mv1w1jUlwKvxAXBSZYEnn3ySpKQkpUN4ebjzzoOjHVq4ciWm3NCZSf07KK9TVVXFLbfcck3py06dOpGQkMDy5ctd5uFfbTbz48ZD3Pr6dw57+BuNBl6/exhNI0M0WU93AGoP9YOdP3Lmihw5coTRo0czatQoezz830fjhz/oDsBFyoG/qixQVFTEHXfcQZVi6DQ8xJ93po1xmmKWgXExPD6pryZrPfvss/z885XFqtzd3Xn11VfZsWMHAwZoM1DIHuw5cY5731rAG9+uoaDEMbMLDAZ4ceoNDOgkr0P5I7oDUHvQHQBtycjI4PHHH6djx47KqV8rqAIeBR5D44c/gOskWWzPYaAPQolggDNnzuDh4UH//mpa/xEh/sQ2i2T1rhNUVTvug7h90wimTxuDp4f62+TLL7+8ardEvXr1WLJkCXfffbdTVvNfiR1HU/nn92uZuWQLGXmOlfZ96ub+3KRBhOZStiWeYc+Jc5quqeMY/jK+tyZdO3WdzMxMXn31VaZOncqGDRuotv1ncxEWkZ85ttrACesoHUpLYD8gnp/p4eHBli1b6Nq1q/JhNh88zdOfLHWILGvzBqHMemqSJvnDtWvXMmLECEymy8VlwsLCWLduHbGxscr72JqC4jJW7z7BwvUHOHYm09HHAeCBMfE8MCZe83XfX7yRb1ZpMp9cx4EE+HqxbromBeN1lqysLN555x0++ugjiors5uyfAiYBe2y5iXPEmZ2H48C/gFekC5hMJqZOncqOHTuUW9V6xzbhXw+M5NlPl9s1JNs0MoSZT0zU5OF/7NgxJk+efMWHv7e3N7/88otTP/zLTZX8tu8kv2w/xpbDp51KH/2ekd1t8vAHPQVQW6gfpIf/pSQmJjJz5ky++uorez74AZZhUfjLsfVGugNwOf8CbgNaSxc4cuQId999N/Pnz8eg2ILTv2Nz3vvzjTz32XKKSm0/OKh5VD0+fmy8JoWIOTk5jB07lpycK7+P3333XU0iJVqTV1TK9iNn2HggmYR9J51uYJPRaOCZWwYweUBHm+0h1Y/XcS7qBzu3XoazYTKZ+OGHH5g5cyYJCQn23r4KeBGLwI9dBER0B+ByyrHMVV6HQpHkwoULeeutt/jrX5VqCwHo2S6ab56/lSc++pnT6TZTlqJb60a8/eBoAnzl0sYXMZlM3HzzzRw7duyK3+/SpYtIBdAWVFVXcyw1i+2JZ9h2JIVdR886tPbiWnh7uvOP+0ZqMoTpWugRgNqBXgB4faqqqtiwYQMLFixg0aJFpKc7pA37NHAn8Js9N9UdgCuzHvgIeERlkb/97W907tyZYcOGKR8oOjyYL565iWc/Xc7u42eV1/sjk/p34Omb+2tWLPTwww+zZs3VZy29/PLLytERKaXlJhJPZ7D/ZBp7Tpxj9/GzlJY7//Cb0EBf/u/hsbRvGmHzvXQhoNqBngK4MiaTiQ0bNrBw4UIWL17sqIf+RRZgUfaz3e3uKugOwNV5HhgNiHurqqqqmDJlCjt27KBZM/UbW7C/D588MZF56/Yy86etmjy0/H08+ettgxjZQ5zxuIzp06fz+eefX/X7QUFBjBo1SrP9rkdWfjF7T5xjX1IaiSkZHE5Od7l59z3aNObVu4bZ7UanRwBqB3oE4L8cOnSI1atXs3r1ahISEuyd178SmViizT866gC6A3B1ioF7sUwNFF9Vs7OzmThxIuvXr9dk/rzRaGDKDZ0Z2CmGN79by7bEayvqXYsburTg6ZsHaPoh8fPPP/Pss89e8zVDhw7Fw0M0f+m6VJiqSEzJYF9SGvuSznHg1HlyClx3sI2Huxt/HteL24d0sav2ue4A1A7C6mgEwGQysXfvXrZt28a2bdtYu3Yt5845VVvrHOBJLEq0DkN3AK5NAjADeFxlkb179zJhwgSWLVumNDr4UqLCAvnosfFsOXyar37Zye5j1qUFjAYD8W2juX9MDzo2b6DJWS6ya9cubr/99uuKIbVo0UKzPc1mOHomg82HTrPl0GkOJqc7VaW+Cs2j6vHqXUNpG23/0cYm3QGoFUiLALdu3UpWVhaDBw/G19e5lEn/SGlpKYmJiRw+fJidO3eyfft29uzZQ1lZmaOPdiWSgIeA1Y4+COgOgDU8DwwGlEqu16xZw9SpU5k3b56mYje92jWhV7smJJ/PZeWOo2xLPMOx1EzKKv47zS0kwIdmDULp2Taaod1a0ri++kCfP3LixAlGjRpFYWHhdV/boIG643HyXDZLtyby687jpOVcf09XIsDXiwfGxHPzwI64GR0j1lmlOwC1AmkEYN26dbzwwgt4e3vTrVs34uPj6dmzJ507d6Zp06Z2F+wymUykpqaSkpLCqVOnOHLkCIcPH+bw4cOcOnXKHqI8qpQA7wL/BEodfJbf0R2A61OGpS1wJ6DUGL9w4UIefvhhPv30U00OdilNI0N4cGxPHhzbk+pqM0VlFZSUVeDr7UmgBlX91+L8+fMMHz6cjIwMq16v6plvTzzDkzN//h8npzZgNBgY16c9D4/rRUiA7Qa4WIMjxhjraIvRYCBM2M57MVxeVlbGxo0b2bhx4+/f8/T0pEWLFrRs2ZLo6GgiIyNp2LAhERERBAYG/v51MeXp6emJn58fZrP590l5paWlv38O5OTkkJOTQ3Z2NtnZ2b//d2ZmJikpKSQnJ5OWluYKD/krYQYWAs8CyY49yuXoDoB1HAaeAT5UXWjWrFnUr1+fN954Q/1UV8FoNFjGa9r4wQ9QUFDAqFGjOHnS+llK2dnZSnv2aNuY+X+fysdLtrBq5zGqq137YeXh7saI7q3407CuNG9Qd6eq6WhLsL+3uKvnWvnyioqK32/fOtdkA5Y8/05HH+Rq6A6A9XwE9MeizazEm2++SXV1NW+++abDWuG0oLi4mHHjxrFnT83UKvfv36+8d1S9QN64Zzj3j+7B7JW7WLXzmMtFBHy9PBjfN5apQzoTHuJcgi1mPQLg8kSGyouOz57VvtW4DpECvISl0M+pf5Bc9+njGAKA7UAbLRa74447+OKLL3B3dz0/LDc3lzFjxrB58+Ya2/r4+JCdnY2Pj3Zh7qLSClZsP8KqHcfYdzLNaaMCRqOB7q0bMyq+NYPiYvD19nT0ka7Iox8sYfOh044+ho4Cg+JiePuh0SLb6Ohozpw5o/GJaj1nsaj4fQo4l3zoVXC9J49jKQTGY3ECAlUX++abb8jLy2PevHmaPgxtTVpaGiNGjBDf5EtLS1m8eDG33367Zmfy9/Fk8oCOTB7QkfziMjYdTGbn0VT2n0zjdHoujrzQenm407llFL3bN2Fo11Z2682eO3cut912m8hWrwFwfRrUk0UATCaTs7XMOTtnsBT4zcKJCvysQY8AyLgZmIdGf38DBw5k8eLFhISEaLGcTTl69CjDhw/n9Gm122H79u3Zv38/RjtUuecXl7H/ZBrHU7M4lprFsTOZpGbm2+whFxLgQ8tGYbRvEkGPttF0at5Ak5HK1mI2m3nllVeYMWPG70VXNeXPM35U0pjQcTxPTu7HlBs619guOTlZE+GyOsBpLLNjvsRFbvx/RI8AyJgPtAP+rsViCQkJdOnShf/85z/06NFDiyVtwtKlS7nzzjuvOtynJhw6dIhPPvmEhx9+WIOTXZsgP2/6dWhGvw7//VCrMFWRmpXP2ax8UjPzScsuIK+ojNzCUrILiikuM1FcVkF1dTXVZjMlZSb8fTxxczPi6+WJh7uReoF+RIT4Uz/Yj/Bgf5pEhNCyUZgmg5SkFBcXc+edd7Jo0SKCg+XtnmbnTl3qWIG0BkDVua/lmIE1WG77PwLOryF+DXQHQM6rWGoBbtFiseTkZPr06cOLL77ISy+9ZJebsbVUVlby5ptv8tprr2naivPMM88wePBg2rTRpKSiRnh6uNG8QWitqro/ceIEkydPZu/evQBq7yH9+e/yRIbIHICUFD3ycwWyga+w5PdPOPgsmuE8TxnXwwzcDWzTasHKykpeeeUVJkyYoNwqpxWnT5+mX79+vPLKK5r34ZaUlDBmzBjOnz+v6bp1kYULF9K9e/ffH/6AUoeJ3gXg+kTWk5Up6Q7A75QCPwC3A42wtILXmoc/6A6AKqVYBgZp2hD7008/0bJlS/79739TUeGY1JLJZOL999+nQ4cObN261Wb7JCUlMXLkSLKyHCqJ7bIUFRVx1113MXny5Mvy/SoRAP3x79p4ergR4i8rLK7j1f+lwFIso3kjgInA91gE4WodugOgTjYwAkslqGbk5uby3HPP0bFjR1asWKHl0tdlzZo1xMXF8dhjj1kl7avK3r17iY+P5+jRozbfqzaxYsUKYmNjmT179hW/rxYBEJvqOAGRoQHi4VF1sAbgOJac/jggFBgLfIOl66tWozsA2nAGGI5lvKOmHD16lFGjRjF69GgSEhK0Xv53qqurWbx4Mf3792fIkCF2V/k6efIkvXr1YtGiRXbd1xXJyMhgypQpjBo16pof1moRAN0DcGVURIDqQAogBZiN5ZbfGGgFPAj8RC296V8N3QHQjkQsQ4OsE8SvIcuXL2fQoEF06dKFDz/8UJNKfLCE+/7v//6Pli1bMmnSJDZs2KDJuhJyc3O56aabuPfeezX789UmysvLeffdd2nTpg1z58697uuVVCb1579L0yBULlNSy1IApcAWLDLudwMtgSbAXVhu+akOO5kToOsAaE97YC1g0xmu7u7u9O3bl5EjR9KnTx+6dOlilZhQbm4u+/fvJyEhgZ9++ok9e/Y4ZcFXeHg4//rXv/jTn/7kkkqJWmI2m1mwYAHPP/98jWYuNGzYkNRU2efb/e8sZM8JXQzGVXlgTDwPjImvsV1OTg716tWzwYnsQi5wBNh1yVci4Foa4Xakbn+y2oZDwCBgFdDQVptUVlaSkJDwe1rAw8ODxo0b06xZMyIiIvD398fX15eioiLy8/PJysri+PHj4geCvcnIyOCee+7htdde4/nnn+eee+6pc45AdXU1y5cv57XXXmPHjh01tleqARBb6jgDDWpvB0ARlkr845d8Hb3wq15JXEPq1ieq/TgM9AZWYBEMsjkmk4mTJ0/W6IboCiQnJ/Pggw8yffp0/vrXv3Lrrbe6lGyyhOLiYr799lvefvttkpKSxOso1QA4YVRIx3rsLAK0BEs0uT6WyvmQC/9/LSWqaiAfKMESps8Hii/8dwZwHjgHpGPR2M/AEq4vkhxQ58roDoDtSAH6YSks6ePgs7g8R48e5Z577uHxxx/n1ltvZdq0acTFxTn6WJqSmJjI7Nmz+eyzzzSpgdAjAHWXyFDZdElhBOBRLJ931hCM5SFfLtlIR1v0IkDbkgMMAb528Dnsjc1ybgUFBcyaNYvOnTsTFxfH66+/7tJzyU+dOsXbb79N9+7d/7+9e4+yqrzvP/4+c59hmAEGmAsIw0UF1EE0hos3LGCMBEntb1rtL21ZtdH+2qReVhvTdJlau2xjbpVFjLFhGU2z7CqJvyxRsVSJAmJTcBAQJDIDw2VELiPDzMAZ5sLs/rHHiBdkz3efy37O+bzW2ou1cD/n2RzPzPM5z5Vp06bx0EMPJWwCpMtHTYtdLAaVxl0ADRMA+/C/qQd1HDX+kaEegOQ7hT/7dDPwfTL/Pd8D/B7wp8BXk1nR1q1b2bp1K9/85jepra1l/vz5zJkzh5kzZzJlypRIbaf8vr6+PjZt2sRLL73EM888Q0NDQ7of6RN5ET1OWc6tomwIBXm2w6cMQwAH0SQ7Z2V6YxQly4AtwM+AcWl+lmR5Fvhj/JR/J3533x+louK9e/eyfPlyli9fDkB5eTmzZs1i1qxZXH755UybNo3a2lpyc1N3Kh9Ae3s7mzdvpqGhgXXr1rF27Vo6OjpSUvfp06fNZdX8uyvFewBEftagnJ0CQGqtBy4FfoR/pHCm6Aa+CXyHD9oOD78XoAS/RyCl2tvbWb16NatXr/7t3xUWFjJlyhSmTJnC1KlTmTBhAtXV1dTU1FBVVWVe/hSPxzly5AjNzc3s3r2bpqYmmpqa2LZtG01NTWmbUBcmAIi7FAAkKAWA1GvDP0HwWfwhgVHpfZzQNuEPcez4hP/Wh/9vfRj4Siof6pN0d3f/dtjgkxQWFlJZWUlZWRmFhYWUlJRQWFjIkCFDKCgooLOzk76+Pnp6ejh58iStra20trZy8uTJFP9LgglzeFOO5g84q9oYAHp6eiwHc2XUrkHZRgEgfX6Gv0zwO/i7Urn2G/ck8CD+83/aGOBp/LkAzQP3Rm9gfkB3d7cL66ADC9MDkJvj2sdR3medANjS0mIJjTrK02GR/WWcJd7D7ya/CtiQ5mcJygP+DZgC/DPBJwB9H/gC/rpeSYEwASCKEyglGOsSQOMeAHFTZRIJ+imPhtfwQ8AXge1pfpZP85/ATPyJfpYtBV8Apg/8KUkWZghAPQDuSvEugF2myiQSFACi5RmgDliIf55AFPQDvwAuBz6PP+YfxmH8f99f4q8WkCQJNwSgXw2usk4CVADIPvopjx4PWAXMw/+2/DBJOmHwHPYC9wMTgHr8fQwSxQN+CFyIv0mSVp0lQahJgOoBcFJRQR7lQ4pMZY0BIKuOz800CgDRtg24GxiLP37+Q/yNdpKlCfgecC0wCfgHkrvM5wj+CoIrgbVJrCcrqQcg+4Q5Blg9ANlHqwDc0As8P3ABXADMxe8hqBu4BvuTfxL/FK3X8ScgbgDsJ8+E89/4/565+L0O16bpOTKKVgFkn+qKlO4BAAoATlMAcNOuget9MWA8fk9BDf4OfOV8uIenE3/JzlH8b/X7iV7X+yv4IeBK/H0DbgYK0vg8UdOIf775TUFu1hBA9gmzCZDhHABQAHCaAkBm8PDH7Pem9zES5v0eiSrgy/j7JExM5wOlUQ/+plE/AtYA/4eAAUBDANnHGgBCbGilAOAw/ZRLlB0C/hF/PsIs/AmRgzl5zFUe8Crw50A1fqP/0sDfD2rSlTUEaAjATWNGlpvKhdgASwHAYeoBEFf8z8B1N3AR/qTI+cA1ZMYwwWng18DPgac5+z5kzKMXAAAVaElEQVQLgzpK1XoOgTYCctOYkbZJgM3NzdYqU3OylSSFAoC4aMfA9RBQir850VXAHPyeAvtU6NTx8Dd9WjNwvQKcCFBu0D0AeXmD/zFXD4Cbaow9ACECQJDPrESUAoC47gQfNKLgD2tNBmYAlw38OQU4Ly1P94H9+Ms6N55xtRleJ0VDAOoBcE1xYT7DS4tNZY0B4BT+CiVxlAKAZJp+Plgl8R9n/H0p/sZDFwK1+IFgHP7qiZFABeF+HuL4+xq04B98tA9/UuZb+L0VieoqHVQAsK4E0CoA91RXlGE9xNEYANT97zgFAMkWJ4CGgetsRgDD8ZdRFgBD8IND/hn3xPHH4dvxD0J6D2gldYeiqAdAPtFY4/g/wJ49pv3FOs0VSiQoAIh84NjAFWWDmgRoDQB5ueoBcI31ECDP86yrANQD4DjFfBG3DKoHoKenx1RJzNqXLGljXQL47rvv0tVlWs2nHgDHKQCIuGVQAeDUKdtZLRoCcE8algAqADhOP+UibklJAMjL1a8G11iHAEIEgHZrQYkG/ZSLuKUbf6VDsJu7BzVl4LcK8zU9yDXWHgDjBEDwJ8CKwxQARNwTuFW39gAU5Oeaykl6DCstZkiRbUPMED0AUZ8wK+egACDinsCtur0HQAHAJTUhlgAqAGQvBQAR9wQOANYeAA0BuGWMcfwfQgUADQE4TgFAxD2B12zZhwAUAFxi7QHo7e3lnXfesVarHgDHKQCIuEdDAPIh1j0A9u3bZ94sCvUAOE8BQMQ9GgKQD6lJ/RJAsB1mJRGiACDinqQHAA0BuGXMqLQEAPUAOE4BQMQ9yR8CyNMQgCtyYjEqhw81lQ0RAHpQD4DzFABE3BP45EHzEECBegBcMWpYKQXGwBYiABwBPGthiQYFABH3BN6DXRsBZT7rDoAQKgC8a65UIkMBQMQ9gQOAfQhAPQCuCBMAQmwDfMhcqUSGAoCIe5IfADQE4Iwa4xLAEydO0Nraaq1WASADKACIuCf5QwCaBOiMNBwDDAoAGUEBQMQ9HUFv1D4AmS9NewAcDlNYokEBQMQ9gXsAuroC7xr8Ifl5ueTEYqaykloKAGKlACDinsAB4MSJE6YKYjE/BEi0FeTnMnLYEFPZEBMAAfaHKSzRoAAg4p7AAaCjI/BowceUFOWby0pqVI8oM/fU7N27N0zV+8IUlmhQABBxT+BWPVQAKCwwl5XUSNMSwG78jYDEcQoAIu5JSQ9AabECQNRZTwGEUD0A+9EugBlBAUDEPYEDQGdn4Fs/ZogCQOSdN9oWAI4ePWqeH4LG/zOGAoCIewJ/rW9vbzdXUlpUaC4rqTF21DBTuZATADX+nyEUAETcE/hrfTwep6+vz1SJhgCib9xoWwBobGwMU+2BMIUlOhQARNzTjX8cayDWYYAhRQoAUZYTi1FjnATY1NQUpupQGwhIdCgAiLgp6RMBNQcg2qpGDDVv2RyyByBUYYkOBQARNyU/AKgHINLGGicAQugeAAWADKEAIOKmpO8FoAAQbdbxfwgVANqBo+aKJVIUAETclPQAoEmA0TbWuAdAW1sbx44ds1arb/8ZRAFAxE3vBb1RASAzjau09QDs2rUrTLUKABlEAUDETUkPABoCiDbrHgAhx/9DFZZoUQAQcVPgcVh7D4A2AoqqnFjMfA5AyADwdpjCEi0KACJuag16o/YByDyjh5dSmJ9nKhsyAGwPU1iiRQFAxE2BhwCs2wFrDkB0pWkFQB/wG3PFEjkKACJuCtwD0Noa+NYPKRtSRG6OfkVEUW3VCHPZEJsAvY2/C6VkCP10i7gp8BwAawDIicUYPrTYVFaSq7bK1gPQ1tbGe+8F7jz6KHX/ZxgFABE3BW7Vjx6179syQgEgkmorbT0AO3fuDFPtm2EKS/QoAIi46XDQG609AAAjykrMZSV5aquHm8r95jehhvDVA5BhFABE3NRJwN0Aw/UAKABETUlRAaPKS01lQwaALWEKS/QoAIi4650gN8XjceLxuKmCkeUKAFFTWzWcWMxWNkQAOALssxaWaFIAEHFXoAAA9mEA9QBET22lrfsfQs0B2GSuVCJLAUDEXYEDwOHDgacMfIjmAERPbZUtAHR3d9Pc3GytVgEgAykAiLirJeiNBw8eNFVQoQAQOdY9ABobGzl9+rS1WgWADKQAIOKuwD0A1gAwXEMAkWPtAQg5AfD1MIUlmhQARNyV9AAwUj0AkVJUkMd44zHAIcb/9+JPApQMowAg4q69QW+0BoBhpcXk5BinnEvCXTB2lHl75hA9AK9aC0q0KQCIuGs34AW58Z13AncWfEhOToxhpdoNMCouOG+kuez27eZ9fF4xVyqRpgAg4q6TwKEgN1p7AACqRgw1l5XEmjputKlcV1cXb731lrXatdaCEm0KACJuC3S2a0tL4AUDHzOmosxcVhLrwvNGmcpt27aNvr4+S9GDBPyMiXsUAETcFuiXc1tbG8ePHzdVUK0AEAlFBXlMqqkwlW1oaLBWq2//GUwBQMRtgb+dWTeBqVEAiIS6SdXk5+WayioAyCdRABBx2+6gN+7Zs8dUQc1IBYAouHRSjbnsG2+8YS36X+ZKJfIUAETcFnhtl7UHwLruXBLrsvPHmMp1dXWxY8cOS9HfAOa9gyX6FABE3LYT6Alyo7UHoLqijKKCPFNZSYz8vFwunlBlKvvaa6/R0xPoI/JRL5gqFGcoAIi4rQcI9PXOGgByYjHz/vOSGDPOrzGHsFdeecVa7SprQXGDAoCI+7YGuSnEOnAmVisApNM1l0w0l3355ZctxU4A682VihMUAETctyXITQcOHDAvBbQuP5PEuLqu1lQuHo+zaZPpIL81QLepUnGGAoCI+wIFAMA6GYyLJ1Saykl4E2sqGDOy3FR2w4YN1vH/p00VilMUAETct5WAZwK8+eabpgqmjq80H0Ij4cydbu/+f+mllyzFuoGV5krFGfqJFnHfcQIuB7T2AJQU5jNpjIYB0uHGmVPMZZ955hlLsdVAu7lScYYCgEhmCLRjW4gd4bjiwrHmsmJTN7Ga2qrhprI7duzg7bffthT9halCcY4CgEhmCBQAXn/9deLxuKmC6y6dZCondl+YPdVc9umnTcP46v7PIgoAIpkhUADo7e019wLUTaqmoqzEVFYGr6Qwn+s/c4G5vLH7/3nU/Z81FABEMsO7wK4gN27YsMFUQU4sxuIrLzKVlcH74lUXU1pcYCq7d+9eNm/ebCn6uKlCcZICgEjmWBfkpvXr7fu71F9bZz6RToLLz8vl/86/1Fz+pz/9qaXYIfwJgJIlFABEMkegvdvXrFlDR0eHqYJRw4aw4PLzTWUluM9/9kIqhw81le3v7+fxx01f5H8C9JkqFScpAIhkjv8EzjnDr7u7m1Wr7Nu83zrP/s1Uzi0/L5clN3zGXP7FF19k3759gy3m4QcAySIKACKZI07AXgDjDHEApo4bzYzJ9rPp5dPdct10xo22H8H84x//2FJsLdBorlScpAAgkln+f5CbVq1aZT4XAODWeTPMZeXsRgwt5rYbP2suf/jwYVauNK3ie9hcqThLAUAkszxHgENc4vE4TzzxhLmSudMnmvenl7P7yy/OMc/8B1i2bBm9vb2DLdYIPGuuVJylACCSWTqAF4Pc+Mgjj+B5gY4Q+JicnBh/ttD+TVU+bs5F47lpjn2ZZXt7O4888oil6FKg31yxOEsBQCTz/DzITU1NTaxZs8ZcycKZU5hYPcJcXj4wYmgxf/8nC4jF7K/x8MMPW4Z12oAn7LWKyxQARDLPSgKe5f7oo4+aK8nJifHnN80ylxdfLAb3L7k+1C6LHR0dLF261FL0h8BJc8XiNAUAkcxzHPivIDeuXLmS3bt3myu67tLJXHb+GHN5ga988UrmXDQ+1GssW7aMtra2wRZrB74fqmJxmrb0EslMOcDN57qpv7+fU6dOsWjRIlMlsRhcVFvJL1/dQb9xPkE2u/nqi/nq714Z6jUOHTrErbfeSnd3oE6fM32bgMtGJTOpB0AkM60EuoLc+OSTT9LS0mKuaGJNBb8/t85cPltdd+kkvn7rdaFf56677rLs7Hgc+JfQlYvTFABEMlMn/slu59Td3c33vve9UJX9v5tmM67SvnlNtvn8Zy/kn7/8eXJyQsz6A9atW8eKFSssRf8FPwRIFgv36RORKPs94BdBbiwpKaG5uZnRo0ebK3tr3xH+9Nsr6DutFWWf5pbfmc499deQE2bKP9DX18dll13Gm2++OdiiB4ELgROhHkCcpzkAIpmrGfgroPBcN/b29pKfn8+8efPMlY0aNoS+/n42N75jfo1Mlpebw931V3PHF2YRC9n4A9x3333WLZ3/Ang99AOI89QDIJLZ/g34UpAbS0tL2bVrF9XV1ebK+vs97nn0WV59c6/5NTJR1Yih/NNtN1A3yf7enmnt2rXMmzeP06dPD7bor4E5+If/SJZTD4BIZusB/jDQjT09tLW1sXjxYnNlsViMqy6ZwCtbd3P8xCnz62SS+Zefz9Kv3JSwORJHjhxhwYIFlol/HlAP2Gd8SkZRD4BIZssD9gKBFuvn5ubS0NDA9OnTQ1V64Ohxbvv2zznWGWghQkYaO6qcv/79a7nqktqEvabneSxcuJAXXjCt3lsOfDlhDyPOUw+ASGbrB4YB1wa52fM8tm/fzpIlS0KNU5cPKWLOxbX8anMTXT195tdxUWF+HrfdeAUP3nYDExK8VfI3vvEN6yFOB4HfBdQtI7+lACCS+ZrwJwMGWva7f/9+qqqquOKKK0JVOmJoCVfXTeRXb+wm3j3oE+qcU5CXy+IrL+I7dyzkmroJ5OYmdpX1Y489xte//nVr8T8CtiTwcSQDaAhAJDs8D9wY9Oby8nJ27NjBmDHht/ndf+Q4f/2j59lz8L3QrxVFJUUF3Hz1xfzxgssYEWI//0/zy1/+kvr6esukP4Cf4QcAkQ9RABDJDvMJeEzw+2688Uaee+65hCxZi5/q4e+feJGXt9jPHYiaKeNGc/PVF3PDZy+kpDA/afWsW7eOG264ga4u03yKA8ClwLHEPpVkAg0BiGSHPcAioCZogcbGRsrLy5k9e3boyvPzcllw+QUMLSlgy+53nd0saPjQYhbOmsrf3noddyyaxdTxo8nPS96v0VWrVrF48WJr498H3AS8ndinkkyhHgCR7HEL8O+DKZCfn8/69euZOXNmwh7iyPETfPc/1vKrN9zoDSgrKeTquonMv3wys6eNJy/BY/tn89RTT7FkyRJ6e83zJ/4G+G4CH0kyjAKASPbIA3YBEwZTaPLkyWzcuJHhw4cn9GHWbWvm8Rc2sb35UEJfN6ycWIwp40Yxa9p4Zl80nrqJVeTmpPbYlGXLlnHXXXfR32/uKXkWWIw2/JFPoQAgkl2WAD8ZbKG5c+eyevVqCgoKEv5Am95u4cnVr7Nx54G0HCkci0Ft5QimT67mMxeMZebUcQwfWpzy5wD/YKa7776bRx99NMzLNAKz0Li/nIMCgEh2yQEa8CeGDcqSJUv4yU8GnR0Ce68jzprNTby0uZEtjQeTFgaGFBUweUwFdROrmXF+DXUTqxlWmp4G/0zNzc3U19fT0NAQ5mWOAbPxe3pEPpUCgEj2WQg8Zyn4wAMPcN999yX4cT6uI97NW3sP89a+w2xvPkxjy1FaO+L09gVbBpebk8OIocWMGjaE80YPY/KYkUweU8GkmgpqKsqS/PSDt3LlSpYsWUJbW1uYl+kBbgBeTsxTSaZTABDJTmuA37EU/Na3vsW9996b4McJ5viJLo51xDnW2UV//0d6CGL+5kMjhhYzfGgJCVi9mHTHjh3ja1/7Go8//jheuB4PD/gT/MOfREREzmoG0IvfcAz6euCBBzwJZ8WKFd7o0aNN7/9Hrn7gq0n/xIiISMZ4iBANz/3335/uNtRJjY2N3uc+97lENPzvX+npjhEREWcVAjsJ0fjccsstXjweT3eb6oQDBw54d955p1dYWJjIxv9vk/wZERGRDDUXvwvZ3AjNmDHD279/f7rb18hqbW317r33Xq+4uDiRDX8/cHdSPxkiIpLxHiFkgzR27Fhv7dq16W5rI2X37t3ePffc45WWliay4feAbuDWpH4iREQkKxQCGwnZMMViMe/222/3Ojs70932ptWrr77q1dfXe7m5uYlu+D2gE/hcEj8LIiKSZcYDrSSgkZo8ebK3fv36dLfDKXXo0CFv6dKl3tSpU5PR6L9/NQF1yfoAiIhI9pqHf4Jc6MYqFot59fX13q5du9LdNidNPB73VqxY4S1atMjLz89PZsPvAc8DiT2MQURE5Ax/RwIbrvz8fO+OO+7wWlpa0t1eJ0Rra6v31FNPefX19Yme1He26zRwH9q0TUREkiwGLCfBDVlxcbF3++23exs3bkx3Gz4o/f393ubNm70HH3zQmzNnTrLG9c927cVfpSEiIpISecAzJKlhmz59uveDH/zAa2trS3f7/jH9/f3ejh07vMcee8z70pe+5NXU1KSywT/zWg4MTeT/VJGPUreSiHySQuBp/IODkqKoqIhrrrmGBQsWcP3113PJJZcQS/EG/vF4nG3btvHaa6+xbt06NmzYQGtra0qf4SP2AV/BeFiTyGAoAIjI2RQCvwC+kIrKqqqqmD9/PrNnz6auro66ujrKyhJzcl93dzd79uyhqamJnTt3smXLFrZs2cKuXbs4fTrYCYNJ1g18F/gnIJ7mZ5EsoQAgIp8mD3gU+LN0VF5ZWcmECROYMGECo0aNoqKigoqKCvLz8ykrKyM3NxeAzs5O+vr6iMfjtLW1cfToUQ4dOkRrayv79u2jpaWF/v7+dPwTgngeuAfYle4HERER+ag78Wekp2tMPBOvXwPXDeZ/goiISDr8AdBB+htO169NwE2DfO9FRETSqhb4b9LfiLp4vQosGvQ7LiIiEhGFwMOEPEUwS64TwL8Cl5reaRERkQi6GthG+hvZKF7bgb8Cys3vroiISITl4U8QbCf9jW66r1bgMeCqUO+oiIiIQ8YAPwJOkf6GOJXXO8Aj+Acp5YZ+F0VERBw1FliKv5lNuhvnZFx9wP8A/wjMAXIS87aJiIhkhkrgQeAA6W+0w177gB8D9cCIRL5JIiIimSoHmA88CXSS/sY8yNUM/Az4C2BK4t8SkWjQVsAikiql+BvgLASuB0am93EA6AXeAF4buDYAB9P6RCIpogAgIumQA0wHrsQfS/8MMInkjqm34y/P23LGtR1/4qJI1lEAEJGoKAGmARfg7zhYC9Tgj7tXDFw5A/cV4m9E1D5QtgN/052jwJGBPw8Bu8+43kvJv0LEEf8LBVuiGnecSTUAAAAASUVORK5CYII=;" parent="1" vertex="1">
          <mxGeometry x="559.5" y="216.5" width="31" height="31" as="geometry" />
        </mxCell>
        <mxCell id="okpZpmTV6SpFpqVT5AK8-25" value="" style="shape=mxgraph.networks2.icon;aspect=fixed;fillColor=#EDEDED;strokeColor=#000000;gradientColor=#5B6163;network2IconShadow=1;network2bgFillColor=none;network2Icon=mxgraph.networks2.data_management;network2IconW=0.8252;network2IconH=0.9989;" parent="1" vertex="1">
          <mxGeometry x="557.75" y="256.5" width="34.5" height="41.76" as="geometry" />
        </mxCell>
        <mxCell id="okpZpmTV6SpFpqVT5AK8-27" value="" style="shape=flexArrow;endArrow=classic;html=1;rounded=0;endWidth=13.668639053254438;endSize=8.792307692307691;width=6.9230769230769225;" parent="1" edge="1">
          <mxGeometry width="50" height="50" relative="1" as="geometry">
            <mxPoint x="465" y="254.91" as="sourcePoint" />
            <mxPoint x="530" y="255" as="targetPoint" />
          </mxGeometry>
        </mxCell>
        <mxCell id="okpZpmTV6SpFpqVT5AK8-30" value="&lt;font style=&quot;font-size: 15px;&quot;&gt;СЛОЙ ДАННЫХ&lt;/font&gt;" style="text;html=1;align=center;verticalAlign=middle;whiteSpace=wrap;rounded=0;" parent="1" vertex="1">
          <mxGeometry x="520" y="340" width="110" height="40" as="geometry" />
        </mxCell>
        <mxCell id="okpZpmTV6SpFpqVT5AK8-31" value="" style="shape=flexArrow;endArrow=classic;html=1;rounded=0;endWidth=13.668639053254438;endSize=8.792307692307691;width=6.9230769230769225;" parent="1" edge="1">
          <mxGeometry width="50" height="50" relative="1" as="geometry">
            <mxPoint x="620" y="254.76" as="sourcePoint" />
            <mxPoint x="685" y="254.85000000000002" as="targetPoint" />
          </mxGeometry>
        </mxCell>
        <mxCell id="okpZpmTV6SpFpqVT5AK8-33" value="" style="shape=image;verticalLabelPosition=bottom;labelBackgroundColor=default;verticalAlign=top;aspect=fixed;imageAspect=0;image=data:image/png,iVBORw0KGgoAAAANSUhEUgAAAQ4AAAEOCAMAAABPbwmXAAAAflBMVEVSgv9Yhv+Usv+sw/9cif+Ztf9zmv+Mq//3+f/+/v/09/+Gp//5+v/b5P9ijf/R3f/I1/9lkP/s8f/8/P+jvP+wxv/9/f++0P/k6/9qk/94nv/o7v/9/v+6zf/y9f+Cpf/V4f+euP/6+/+0yf9vl/+Qrv98oP/C0//f5//L2f9TBQlZAAAMmUlEQVR42u2dXWOiPBBGJ4DggwgYKQ3yKVgp//8Pvhd8qFW7fVvbGjvnZle2tetpyExCMiFiGIZhGIZhGIZhGIZhGIZhGIZhGIZhGM0RhmmapiGOLlkz0zRN+/+/1eztO2mIMwfgLo6uGB6Apf+/38laAgg012GFABAcPv1qCcB16G/qIFsCWEfT66cYwLP4qzrIXANQyfBqIwGkNv1ZHf4SQJb3n0OEANYm/V0d5LgAivLw98r/yzrEMwAEFhH51Sf70QfSQXYKwNsSUVQDaMTf1kHR0JsmKYB0N7Ya3/fPP53l+9ZZ95MkK/FWh/CTxNfSjl8BiBsrz4D1tr/0kgdKqSAvhz52m+d5JPZ5pVTVzo6M+LP2Vco0aNJjHYnZKSlVFyVERCLK8zzf9v+4a/I8N/079uG4AGRUTBnZy7JGT2FaREQiALA0ZX+x7qYm5FRrHBh0WDOV9Rdi9SLGVLfYExGJHMC6ued2I3IAqKf/Mj0dPmEdTTrq+vC5+9+uiFzgTId48g6X3K0gsvJsDFmG9+ng9bO9KYD4qf+tlV4mg7BTMQDljzoAZOsYwHRPGfPh+050bD0A3jLsVD3G8EQBWEeCdgqA3OvQmx6yU781bUEiaTPAW0w6vCpyjGcJAJVFRLsUANwuMqJOTjoSBSA1LBKrqADQinGsKDciB1Cbd9+b9h/XmG6f/o+dBBCNOtzIIiKxKAAUNhGZAJA6gohEWYw6zAwo+uRFmGug2BCRyNcAwpkLoLPuProszsb1liVIdADyqSu1DnlbvRjy+/mQtSVy0GFVAEJxdDWi6XaZf3ZI9MPsPQDd1N/7znO17KJdC+D5jQ4yYiB2iDbu0cVJR5ICaBc9TgqgOYQvAN6MdNNRvtYAEMviko5FDcQvRM56+qxHOjYugHU9kA3Ni0jkffANhW46SnkcPa/qMDIA5lsd+zne0Az9SB9/7jzInuuwQgDrKpqZy/qfrSN/q8MuAKj2iH7ucT84Xpua6bALAJ1PRH73no79HMCr/0aHry7Op/kVAG8OoFjopWNRj+GAnt/T4SsA8yE4l+6gQ3SXood4qoH4yVwDWK7009FaRLRX7+noc3k5s4j8mZrSsBcPQLUZ8l1zdTSxtPIDAHEjdNKxkwC8MNo26btdKe2LPlfN2z4S9Tr62XmZb52XqJW1MWUdRTn00oWjkw4R4kORhURU48IQzlbH45twHMLVpiAiM9bhdjkJtHs1fDy5fFcHWc00dlXFYYC/r+LJUBz4RLPDMHZVAYjzO79dNtJ13Xb8T+6DYp2tZVBGruvmRCRC13WDQUdZuO44KJkt5wBQhPvAdd0xxVqZqvc0fzVXRMnSdV1ZDjLl0Yt7xbJt206OXjqGsxPkj1eTo3+2bNu2x2GYX5p5Hm3EyVcQ+WWUt3lU+kREvm3b9m5QJXa2bdv3H1wYhmEYhmEYhmEYhmEYhmEYhmFujfDthTHbRubTkxltZ8bC9sUfVeHvDbNTxcmT2bpQnWns/b/WKpJF83q20GlkrppF8ndaSeK0ssa71LJ1kj/RMDZm+g8Xg5HU3Dx6ExH7tsjwQbKi3VsPLSMs8L8owv3DtpAk/58yAKDIH7MPsbYqwyfI1PYB75hN5+GTeN3m0XqNrcQXkNuH6kFW+RxfYp4/0IonO4jxReLAfhQbpcINUOVjdBuOxE2QzgN0IMIocCMKQ7CNh/Lh3NCGDuvx/9GLStwUudDZhq1wY5TG8XYV4OYE2uZjIo9vr+Pu92tcZTvHNzDfajqGlfgWpJbjW6vDN9HpOP+x9b5LhxdpOBOo8G1MJZY0iirZ9+nItIsu+wLfSLHXrHGE+FZCwY1D2+Yh2q8Gj/BQo6K79Ayz1al5bNyvplrJP97M1SkXM7Pv1pGZ+thIUny3DqT6PKt06u/XUTt/piP9iA59OtNE/oQOqcu82KL+CR2xoYmOBj+hYyqrdef4rx+c5juQfUbHqx7rLfcfmxN8NV4m2s/omOuRqBsfnNM6igzRZ3RAj87D/CkdWiSmovspHZ0OmYevfkqH0qEvtYuf0lHokIh9NAn7uo5ah+fXHwwsN9ChRWiZfU5H1RxIP6hDh0rH28/piE5i08d06PC0Nvo5HTo8jTN/TocOedjTz+l4Yh266eCbhbtSDrRfTsOmwxLqur6JDh3SMOP6op3FhFHcQocOSfrVIdzxY9VE3kCHFkO4qwP8m+vQYoB/dfrn5jq0mP65Ojl4cx1aTA5ezcNurkOPNQ3GT+nQ48HCtcdOt9ahyWOna33prXUoTYrAND+jQ5NH1tcSsRvr0GZBw5XlLjfWoc1ylyuLoW6sQ5+VpZeXyt1Whz5L5a4spLytDo0WUl5eZntTHTots/33uukv69BqEfbFzrTuDsvuQw/y6KTIV+D16KV8sCX6vIHjFOu7t/dotlmSN3+d9h68NfA09/jGjaNSu42jvK34bW/Km85PczEuSXB6u3DBitPowuVMjuFiN6dwKaRTuFDWm4kxLqN20p1ykb3v8vEANrhA53l/epvyrQt6ELi475t8jEs/n3YgXBj8zfiWy8afzn9E8nOHCsjoMY/h2H3uyIkdPSh8IMmZkNb9+HE17mMfV0PEhxmdkzit/EdeFv+Vo676JrIzcvXOQWi5sftrx+XxMXnnrYQPUWQYhmEYhmEYhmEYhmEYhmGYv4E4wDLIb6uRoI3KLz8pElHbto22D5xWJxvL56/NF1ceiOBNiWOddXx9Xcqj6QDUV9bBPoION2zbvK3kemggL39bx9IiIrKSWdivTpDl1Y4yb5rF39BBROJFZQAQXAkN1vJfZc8eSgfRrgKA9Yx19NgpAAQW6+iJ1gDcqViAtVqtpsUr1hLA00kKK/zVyrc+oEP4q2R1dBOK6f39U/eW71vibnT09bH6u8XfN8tUpqpdWAcdKgzDMNwQEYnECFUq06W5+4cO/6VTUkrVjMsIyzBs81USLVOZVtH0DWJjVkotwygR96HDqqYykYvlWKBm3vqTjr7gsUNE4mlcTJnJmXhPR1mNS9mLIYM3ABSR6mN7nA7F1KynYlxz+CubG851UA4ALRGRsT7Ue87FuY7e3PAxy3d0HO+UWvdmDQDrw6rDPraL5rABIH66Dx3mVFPVLjJXBYGqARSbcx1kZrWsuqo4VBi4qGMjAaxlEKg5gHU06gAQe158KOJqSwB1+prOM7jlvekQjbnxhViZNZBFo45l0zRNYxMR2a2TWMLaVACK3TUdIgQwNxMh/IUa6+oZAJCpqCy3aqp4vM2Atbmykn1T/EqVpAs62ulmGXt/f4n+GO4+stBZeFjMAW9/TcemADKz/9KyGOrEGwDWzwkRURIAiGfDb6KvnSX2yZ10pcuTirtCiP78iUBczjuEIFpJwCuv6TCPqsdZ1VAeyziqge3UABrqTzKIw19cw36uYycPFXctxwyDMNpH13TsZnnX5cY+HcudX9BhVQCUMbAEUFmnOhI51C3dFAAgw23p34kOYcZTi7WH0mduelmHmKVZHxW9d3T0ZXGzAQw/71jHKh10CHOILPNldB83S1/MpbOIKDk5c/SCjpl7Vgz/ko6zKZXqmg6yojEkZ6/3EFmSCgBqow+jQKzyqAncizpWCoDbmWar1v9qHUXQHYjomg6iTT7mfunut3WIxfIwwPcVAJUQkWUe65gii1MD2ZMY+purOkQHQCVvpuyv6SCyNmblYgjtv6dD+PvWPUoREwngmYj6w1omHeHY8UfTLeK/15XSbH1hyuCyDrESRESW4R7/oB/WIZ+iKGo65Z6U10gkgOVqTAwCQSSqvqSTsBeDpMwUROLFPdHhRsaBTX9TSaNvgqvZ5h0dL8pMBA2VY39Lx+lOvnSYOvZfAcRV9GKqbNTRAkDadrKyiBYegOLZMFr3tCudwkiWZVlDFHkA5sF2URq5qp+v3yy2wjp9djZlW//izXKyFzqcigaY/WgiPkQWehl3NbnldNp1HAPZqY5jGiKrjQEgq714qn19SYd4zgCgdj2Mo6Rf1RG73eI4ygybQ+fVetDhV1P5RCIaS5xk6vVdHeTn3tv6aRdbx6Y6bCKbR7+QnPrKG3ClCrebk9FLkhcxsnnlOK7n9VV87WANAMWzTURiUXnAWub2s+f1I1DReW9o+vQ2cMd5jN6B4XneWINxpTzPy4mI/NmyF7d+/ZWqJ2JT9uw3yfkGNmEbhrG3yN+X5fCb9J3IjGbjsMIvDcOxBSVlOewEtMs3jIOVvRGZ5tZJpu8sy3G3sdgcvs4vt02bR85DVbZgGIZhGIZhGIZhGIZhGIZhGIZhGIZh/gz/ATvHMG8goeucAAAAAElFTkSuQmCC;" parent="1" vertex="1">
          <mxGeometry x="700" y="215" width="80" height="80" as="geometry" />
        </mxCell>
        <mxCell id="okpZpmTV6SpFpqVT5AK8-34" value="&lt;span style=&quot;font-size: 15px;&quot;&gt;БИЗНЕС СЛОЙ&lt;/span&gt;" style="text;html=1;align=center;verticalAlign=middle;whiteSpace=wrap;rounded=0;" parent="1" vertex="1">
          <mxGeometry x="685" y="340" width="110" height="40" as="geometry" />
        </mxCell>
      </root>
    </mxGraphModel>
  </diagram>
</mxfile>
